<svg width="74" height="54" viewBox="0 0 74 54" xmlns="http://www.w3.org/2000/svg"><title>logo_black</title><g fill-rule="nonzero" fill="#FFF"><path d="M31.193 20.196l1.336-1.593c-2.313-1.953-5.088-3.34-8.07-4.06V2.415h2.725V.36h-4.78v15.88l.823.153c2.93.617 5.653 1.9 7.965 3.803zM19.887 51.286c-9.712 0-17.575-7.862-17.575-17.575 0-7.86 5.19-14.748 12.745-16.906.462-.103.925-.257 1.387-.308l.823-.154V.412H12.59v2.055h2.62v12.23l-.718.206C4.06 17.883-1.953 28.778 1.028 39.21c2.415 8.428 10.123 14.234 18.86 14.234 4.42 0 8.684-1.438 12.127-4.213L30.73 47.64c-3.083 2.363-6.937 3.648-10.843 3.648zM37 41.882V23.69h-2.672v20.402h11.1v-2.21M56.888 32.632c-1.13-1.285-2.827-2.056-4.625-2.107-1.8-.103-3.598.617-4.882 1.9-1.284 1.286-2.004 3.033-2.004 4.883-.05 1.696.617 3.443 1.85 4.728l.052.05c.103.053.154.156.257.207.103.103.205.206.308.257 1.182 1.028 2.672 1.49 4.163 1.49 1.49 0 3.032-.514 4.213-1.54v1.283h2.466V37.36c.103-1.696-.565-3.392-1.798-4.728zm-.67 4.625c.053 1.233-.41 2.364-1.232 3.135-.77.873-1.9 1.336-3.083 1.284-1.13-.05-2.21-.565-2.878-1.44-.77-.77-1.182-1.9-1.182-3.03 0-1.08.463-2.16 1.285-2.98.77-.823 1.798-1.234 2.98-1.234 1.08 0 2.107.462 2.878 1.284.77.823 1.233 1.902 1.233 2.98zM71.996 32.53c-1.285-1.337-3.084-2.056-4.83-1.954-1.49.052-2.93.566-4.01 1.542v-8.48H60.69V37.36c-.102 1.798.617 3.546 1.953 4.83l.154.154c1.285 1.182 2.878 1.8 4.522 1.8 1.747 0 3.494-.67 4.78-2.056 1.18-1.285 1.85-2.93 1.85-4.728 0-1.8-.67-3.546-1.954-4.83zm-7.606 7.913c-.822-.822-1.284-2.004-1.284-3.186.05-1.182.513-2.21 1.284-3.032.72-.822 1.696-1.233 2.878-1.233 1.08 0 2.158.462 2.98 1.284.823.823 1.285 1.902 1.285 2.98 0 1.183-.41 2.262-1.182 3.084-.718.822-1.746 1.285-2.876 1.336-1.182.103-2.26-.36-3.084-1.233z"/><path d="M20.71 23.69h-7.04v20.402h6.988c5.602 0 10.227-4.574 10.227-10.227 0-5.653-4.574-10.175-10.175-10.175zm7.4 10.38c-.103 3.855-3.135 6.938-6.99 7.04h-4.778V26.723h4.78c3.956.052 7.04 3.392 6.988 7.35z"/></g></svg>