<svg width="410" height="383" viewBox="0 0 410 383" xmlns="http://www.w3.org/2000/svg"><title>collaborative_illustr</title><g transform="translate(1 1)" fill="none" fill-rule="evenodd"><ellipse fill="#1CBC79" cx="306" cy="163" rx="47" ry="47"/><circle fill="#1CBC79" cx="216" cy="223" r="17"/><ellipse fill="#1CBC79" cx="85" cy="65" rx="57" ry="57"/><g stroke="#485F76"><path d="M120 194.67V140c0-2.21 1.79-4 4-4h160c2.21 0 4 1.79 4 4v104H120v-29.072M288 244h12c2.21 0 4 1.79 4 4v11H104v-11c0-2.21 1.79-4 4-4h12" stroke-width="2"/><path stroke-width="2" d="M229 244l-5 7h-38l-5-7M200 142h10M272 252h9M132 235h144v-87H132zM364 159h-75M288 239h108v-78c0-1.105-.895-2-2-2h-5.998M396 239h10c1.105 0 2 .895 2 2v9H304M352 239l-3 5h-29l-3-5M331 163h8M385 244h6"/><path stroke-width="2" d="M289 167h99v65H288M120 239H12v-78c0-1.105.895-2 2-2h105M12 239H2c-1.105 0-2 .895-2 2v9h104M56 239l3 5h29l3-5M77 163h-8"/><path stroke-width="2" d="M119 167H20v65h100M83.618 334.25C64.03 316.594 48.342 294.695 38 270M313.105 344c-30.217 22.954-67.91 36.578-108.782 36.578-19.67 0-38.605-3.156-56.323-8.988M374.07 260c-4.175 11.987-9.582 23.396-16.07 34.077M321 63c16.842 14.244 31.033 31.526 41.724 51M225 22c20.78 2.37 40.485 8.277 58.498 17.106M70 80.148C95.037 52.158 128.7 32.05 166.813 24M32 147.405c1.402-4.548 2.98-9.02 4.724-13.405M166.893 325.147C138.143 316.52 113.583 298.207 97 274M319.367 262c-13.86 25.89-36.227 46.538-63.367 58.21M282 96c16.974 12.583 30.775 29.202 39.984 48.44M147 84.498C164.397 75.858 184.004 71 204.746 71c5.63 0 11.174.358 16.615 1.052M87 145.597c3.588-7.634 7.897-14.862 12.838-21.597M273 80c0 11.598-9.402 21-21 21s-21-9.402-21-21 9.402-21 21-21 21 9.402 21 21zM143 99c0 11.598-9.402 21-21 21s-21-9.402-21-21 9.402-21 21-21 21 9.402 21 21zM142 215c0 1.657-1.343 3-3 3s-3-1.343-3-3 1.343-3 3-3 3 1.343 3 3z"/><path d="M128 205c0 2.76-2.24 5-5 5s-5-2.24-5-5 2.24-5 5-5 5 2.24 5 5zM114 190c0 8.284-6.716 15-15 15-8.284 0-15-6.716-15-15 0-8.284 6.716-15 15-15 8.284 0 15 6.716 15 15zM351 201c0 7.732-6.268 14-14 14s-14-6.268-14-14 6.268-14 14-14 14 6.268 14 14zM133 353c0 11.598-9.402 21-21 21s-21-9.402-21-21 9.402-21 21-21 21 9.402 21 21zM223 330c0 11.598-9.402 21-21 21s-21-9.402-21-21 9.402-21 21-21 21 9.402 21 21zM358 322c0 11.598-9.402 21-21 21s-21-9.402-21-21 9.402-21 21-21 21 9.402 21 21zM397 142c0 11.598-9.402 21-21 21s-21-9.402-21-21 9.402-21 21-21 21 9.402 21 21zM217 21c0 11.598-9.402 21-21 21s-21-9.402-21-21 9.402-21 21-21 21 9.402 21 21zM317 54c0 4.418-3.582 8-8 8s-8-3.582-8-8 3.582-8 8-8 8 3.582 8 8zM298 45c0 2.21-1.79 4-4 4s-4-1.79-4-4 1.79-4 4-4 4 1.79 4 4zM247 326c0 3.314-2.686 6-6 6s-6-2.686-6-6 2.686-6 6-6 6 2.686 6 6zM71 108c0 11.598-9.402 21-21 21s-21-9.402-21-21 9.402-21 21-21 21 9.402 21 21z" stroke-width="2"/><path stroke-width="2" d="M91 195h16v-10H91z"/><path stroke-width="2" d="M91 185l8 6 8-6M29 183h35v-5H29zM160 223v-34h10v34M176 223v-47h10v47M192 223v-39h10v39M208 223v-55h10v55M29 197h14v-5H29zM48 197h24v-5H48zM29 211h25v-5H29zM59 211h11v-5H59zM154 223h70M236 183h17M236 190h21M236 197h19M236 204h23M236 211h19M298 195h15M293 224h15M363 219h15M362 185h18M358 214h8M306 201h11M161 185h8M177 172h8M193 180h8M209 164h8M334 207v-12l9 6zM120 216v28.33M103 363.992h18V350h-18zM107 349v-3c0-2.76 2.24-5 5-5s5 2.24 5 5v3M112 354v4M114 359h-4M323 330h28M327 330v-12h4v12M335 330v-9h4v9M343 330v-17h4v17M201 339l3-17M209 323l7.778 7.778-7.778 7.778M196.778 323L189 330.778l7.778 7.778M388 139l-8 8-3-3-8 8M363 146.5l9.5-9.5M367 136h6v6"/><path stroke-width="2" d="M383 138h6v6M48 100v-4h9l5 5-.064 13H55"/><path stroke-width="2" d="M56 96v6h6M55.055 119H41v-18h9.12l5 5z"/><path stroke-width="2" d="M49 101v6h6"/><path d="M111 98.994C111 92.922 115.922 88 121.994 88s10.995 4.922 10.995 10.994-4.924 10.994-10.996 10.994S111 105.066 111 98.994z" stroke-width="2.374"/><path d="M134.598 92L132 93.5M129.087 87L124 95.81M122 85v3M115 87l1.5 2.598M110 92l2.598 1.5M108 99h10M110 106.5l2.598-1.5M115 111.598l1.5-2.598M122 113v-3M129.087 110.81L124 102M134.548 106.47L132 105M136 99h-3" stroke-width="2"/><path d="M118 98.76c0-2.076 1.684-3.76 3.76-3.76 2.08 0 3.762 1.684 3.762 3.76 0 2.078-1.683 3.762-3.76 3.762-2.078 0-3.762-1.684-3.762-3.76z" stroke-width="2.374"/><path d="M118 98.76c0-2.076 1.684-3.76 3.76-3.76 2.08 0 3.762 1.684 3.762 3.76 0 2.078-1.683 3.762-3.76 3.762-2.078 0-3.762-1.684-3.762-3.76z" stroke-width="2.374"/><path stroke-width="2" d="M191 28V13l13-3v15M185 31h6v-4h-6z"/><path stroke-width="2" d="M198 29h6.124v-4H198zM260 79.526V78c0-3.866-3.134-7-7-7s-7 3.134-7 7h-3c-2.21 0-4 1.79-4 4s1.79 4 4 4h4"/><path d="M259 86h2c1.923 0 4-1.596 4-3.52 0-1.92-1.56-3.48-3.48-3.48H259M253 87v-7M249 83l4-4 4 4M162 20l5.693 4.193-4.193 5.694M217.054 66l4.445 5.5-5.5 4.444M280.937 32l2.628 6.565L277 41.192M363.588 107l-1.733 6.855-6.855-1.733M323.93 138l-2.215 6.716-6.715-2.214M262.676 322.006l-6.676-2.33 2.33-6.676M151.293 377.55L148 371.295l6.257-3.294M96 280.98l1.136-6.98 6.98 1.135M36 276.545L38.677 270l6.545 2.677M365.364 292.482l-6.923 1.44L357 287" stroke-width="2"/></g></g></svg>