<svg width="698" height="355" viewBox="0 0 698 355" xmlns="http://www.w3.org/2000/svg"><title>exploratory_illustr</title><g transform="translate(2 1)" fill="none" fill-rule="evenodd"><ellipse fill="#1CBC79" cx="362" cy="206" rx="37" ry="37"/><ellipse fill="#1CBC79" cx="136" cy="132" rx="22" ry="22"/><ellipse fill="#1CBC79" cx="570" cy="127" rx="52" ry="52"/><g stroke="#485F76"><path d="M302 208v26.128M302 142.837v-37.872c0-3.314 2.686-6 6-6h150.304M512.647 125.795v-20.83c0-3.314-2.686-6-6-6H465M512 202.23v-9.265M512 234.2v-22.235M282 237.965v15.123h250v-15.123c0-2.21-1.785-4-3.994-4H285.998c-2.21 0-3.998 1.79-3.998 4z" stroke-width="2"/><path stroke-width="2" d="M439 233.965l-5 8h-51l-5-8M402 106.965h13M493 243.965h11M498 182.965v40H316v-24M316 131.965v-18h182v22"/><path d="M359.87 138.095c14.84 14.84 14.84 38.9 0 53.74-14.84 14.84-38.9 14.84-53.74 0-14.84-14.84-14.84-38.9 0-53.74 14.84-14.84 38.9-14.84 53.74 0z" stroke-width="2"/><path d="M353.506 144.46c11.325 11.324 11.325 29.686 0 41.01-11.325 11.326-29.687 11.326-41.012 0-11.325-11.324-11.325-29.686 0-41.01 11.325-11.326 29.687-11.326 41.012 0zM267.9 241.22l35.355-35.355c.78-.78.78-2.048 0-2.83l-8.485-8.484c-.78-.78-2.047-.78-2.828 0l-35.356 35.356c-.78.78-.78 2.048 0 2.83l8.486 8.484c.78.78 2.047.78 2.828 0zM302.913 188.965L296 195.878M302 201.948l6.983-6.983M458 105.965v-55c0-2.21 1.79-4 4-4h84c2.21 0 4 1.79 4 4v37c0 2.21-1.79 4-4 4h-75l-13 14zM470 61.965h2.85M476 61.965h44.85M470 69.965h2.85M476 69.965h52.85M470 77.965h2.85M476 77.965h39.85" stroke-width="2"/><path d="M504.497 138.462c11.33-11.33 29.698-11.33 41.028 0 11.33 11.33 11.33 29.698 0 41.028-11.33 11.33-29.7 11.33-41.028 0-11.33-11.33-11.33-29.7 0-41.028z" stroke-width="2.374"/><path d="M548.7 181.664l-2.7-2.7M553.306 174.874l-3.306-1.91M556.687 166.953l-3.687-.988M558 158.965h-4M557.346 149.965L535 155.953M553.306 141.965l-3.306 1.91M548.7 135.965l-2.7 2.7M541.91 129.965L540 133.27M533.988 126.965l-.988 3.687M525 125.965v4M517 126.965l.988 3.687M509 129.965l1.91 3.306M502 135.965l16.195 16.195M497 141.965l3.306 1.91M493 149.965l3.687.988M492 158.965h4M493 166.953l3.687-.988M497 174.874l3.306-1.91M502 181.664l2.7-2.7M509 187.27l1.91-3.305M517 190.457l5.76-21.492M525 191.965v-4M541.91 187.27l-1.91-3.305M533.988 190.652l-.988-3.687M533.988 190.652l-.988-3.687" stroke-width="2"/><path d="M517.907 151.872c3.876-3.876 10.16-3.876 14.036 0 3.876 3.876 3.876 10.16 0 14.036-3.876 3.876-10.16 3.876-14.036 0-3.876-3.876-3.876-10.16 0-14.036z" stroke-width="2.374"/><path d="M517.907 151.872c3.876-3.876 10.16-3.876 14.036 0 3.876 3.876 3.876 10.16 0 14.036-3.876 3.876-10.16 3.876-14.036 0-3.876-3.876-3.876-10.16 0-14.036zM568.237 179.49c-6.983-6.982-6.983-18.305 0-25.288 6.983-6.983 18.306-6.983 25.29 0 6.982 6.983 6.982 18.306 0 25.29-6.984 6.982-18.307 6.982-25.29 0z" stroke-width="2.374"/><path d="M600.703 171.637L587 167.965M600.56 160.965l-2.56.686M595.162 151.965L593 154.127M586.736 146.965l-.736 2.748M576 146.965l3.67 13.7M566 151.965l1.622 1.622M561 160.965l2.51.673M561 171.766l2.99-.8M566 181.236l10.27-10.27M576 186.624l.712-2.66M586.76 186.804l-.76-2.84M595.622 181.587L594 179.965" stroke-width="2"/><path d="M576.792 171.41c-2.39-2.39-2.39-6.263 0-8.653 2.39-2.39 6.263-2.39 8.652 0 2.39 2.39 2.39 6.263 0 8.652-2.39 2.388-6.263 2.388-8.652 0z" stroke-width="2.374"/><path d="M576.792 171.41c-2.39-2.39-2.39-6.263 0-8.653 2.39-2.39 6.263-2.39 8.652 0 2.39 2.39 2.39 6.263 0 8.652-2.39 2.388-6.263 2.388-8.652 0zM556 129.96c0-6.073 4.922-10.995 10.994-10.995s10.995 4.922 10.995 10.994c0 6.07-4.924 10.993-10.996 10.993S556 136.03 556 129.96z" stroke-width="2.374"/><path d="M579.598 122.965l-2.598 1.5M574.087 117.965l-5.087 8.81M567 115.965v3M560 117.965l1.5 2.598M555 122.965l2.598 1.5M553 129.965h10M555 136.465l2.598-1.5M560 141.563l1.5-2.598M567 143.965v-3M574.087 141.776l-5.087-8.81M579.548 136.436l-2.548-1.47M581 129.965h-3" stroke-width="2"/><path d="M563 129.726c0-2.077 1.684-3.76 3.76-3.76 2.08 0 3.762 1.683 3.762 3.76s-1.683 3.76-3.76 3.76c-2.078 0-3.762-1.683-3.762-3.76z" stroke-width="2.374"/><path d="M563 129.726c0-2.077 1.684-3.76 3.76-3.76 2.08 0 3.762 1.683 3.762 3.76s-1.683 3.76-3.76 3.76c-2.078 0-3.762-1.683-3.762-3.76z" stroke-width="2.374"/><path d="M599 115.965h30M389 28.965h30M411 34.965h26M635 115.965h9M625 107.965h31M458 113.965v109M466 123.965h20M466 129.965h13M466 135.965h24M466 147.965h18M466 153.965h14M466 159.965h16M466 171.965h13M466 177.965h19M466 183.965h16M344 128.798v-5.833h42.97v8H349.3M359.302 152.965H344v-10h7.16M361 139.965h43.86v8H366.92M361.932 169.965H344v-11h16.34M370 156.965h19.1v8h-18.19M396 164.965h43.97v-8H396zM684.97 252.965H564v-19c0-1.105.895-2 2-2h116.97c1.105 0 2 .895 2 2v19zM682.97 226.965H566c-1.105 0-2-.895-2-2v-17c0-1.105.895-2 2-2h116.97c1.105 0 2 .895 2 2v17c0 1.105-.895 2-2 2zM601.67 179.965h81.3c1.105 0 2 .895 2 2v17c0 1.105-.895 2-2 2H566c-1.104 0-2-.895-2-2v-13.2" stroke-width="2"/><path stroke-width="2" d="M593.763 186.965H658v6.885h-84M574 219.85h84v-6.885h-84zM574 245.85h84v-6.885h-84zM411 147.965h31v-8h-31zM393 130.965h18v-8h-18zM352.247 186.965H344v-11h16.11M370.28 173.965h34.436v8H367M361.297 190.965h63.843v8H351M344 215.965h50.97v-8H344zM327 215.965h10v-8h-10zM324 186.965h13v-11h-13zM324 169.965h13v-11h-13zM324 152.965h13v-10h-13zM327 128.298v-5.333h10v5.166M517.94 206.936c0 2.745-2.224 4.97-4.97 4.97-2.745 0-4.97-2.225-4.97-4.97 0-2.745 2.225-4.97 4.97-4.97 2.746 0 4.97 2.225 4.97 4.97zM675 216.465c0 1.933-1.567 3.5-3.5 3.5s-3.5-1.567-3.5-3.5 1.567-3.5 3.5-3.5 3.5 1.567 3.5 3.5zM675 190.465c0 1.933-1.567 3.5-3.5 3.5s-3.5-1.567-3.5-3.5 1.567-3.5 3.5-3.5 3.5 1.567 3.5 3.5zM675 242.465c0 1.933-1.567 3.5-3.5 3.5s-3.5-1.567-3.5-3.5 1.567-3.5 3.5-3.5 3.5 1.567 3.5 3.5zM552 215.965c0 7.732-6.268 14-14 14s-14-6.268-14-14 6.268-14 14-14 14 6.268 14 14z"/><path stroke-width="2" d="M535 221.965v-12l9 6zM695.454 252.965h-639L24 285.42"/><path stroke-width="2" d="M96.25 262.965h-35L15 309.215"/><path stroke-width="2" d="M78.797 273.965h-13l-25 25.38v11.62L5 346.762"/><path d="M24 287.965c0 1.657-1.343 3-3 3s-3-1.343-3-3 1.343-3 3-3 3 1.343 3 3zM16 310.965c0 1.657-1.343 3-3 3s-3-1.343-3-3 1.343-3 3-3 3 1.343 3 3zM6 348.965c0 1.657-1.343 3-3 3s-3-1.343-3-3 1.343-3 3-3 3 1.343 3 3z" stroke-width="2.374"/><path d="M126 66.965H97M111 74.965H68M75 82.965H59M290 218.965v15M202 252.965v-118h69l19 20.32v41.68" stroke-width="2"/><path stroke-width="2" d="M97 253.068V96.965h103.942l20 21v16.34"/><path stroke-width="2" d="M201 96.965v21h20M271 134.965v20h19M258.498 235.36c-3.564 1.217-7.386 1.878-11.362 1.878-19.405 0-35.136-15.73-35.136-35.137 0-19.404 15.73-35.135 35.136-35.135 19.405 0 35.137 15.73 35.137 35.136 0 .758-.024 1.51-.072 2.253"/><path stroke-width="2" d="M227 229.363l20.736-27.565-4.73-34.833M275.472 210.912L247 201.965M245 183.158l14.193-14.193M244 174.062l7.097-7.097M246 191.306l19.34-19.34M247 199.898l23.933-23.933M254 203.67l21.706-21.705M262 205.915l17.95-17.95M269 208.558l12.593-12.593M226 179.965h2M235 179.965h2M221 191.965h2M231 191.965h2M239 191.965h2M216 203.965h2M226 203.965h2M236 203.965h2M221 215.965h2M230 215.965h2M111 239.965h76M119 238.965v-31h13v31M142 238.965v-63h13v63M165 238.965v-84h13v84M128 120.965h50M138 126.965h30M121 202.965h9M135 246.965h9M147 246.965h9M159 246.965h9M144 170.965h9M167 149.965h9M302 66.743h30.944c8.438 0 17.556-7.145 17.556-15.583s-6.84-15.417-15.278-15.417H334v-4.11C334 14.662 320.33.964 303.36.964c-16.966 0-30.638 13.778-30.638 30.778h-13.166c-9.696 0-17.556 7.804-17.556 17.5s7.86 17.5 17.556 17.5H277"/><path d="M243.998 41.516c-3.95-4.652-9.904-7.55-16.614-7.55-12.022 0-21.616 9.206-21.616 22.206h-9.33c-6.87 0-12.438 5.13-12.438 12s5.57 12 12.44 12H207M228 79.96h20.438c5.98 0 12.44-5.08 12.44-11.058 0-.66-.06-1.307-.173-1.937M290 71.965v-19M284 65.965l6 6 6-6M271 91.965v-19M265 85.965l6 6 6-6M217 90.965v-19M211 84.965l6 6 6-6" stroke-width="2"/></g></g></svg>