<svg width="579" height="352" viewBox="0 0 579 352" xmlns="http://www.w3.org/2000/svg"><title>secured_illustr</title><g transform="translate(2)" fill="none" fill-rule="evenodd"><ellipse fill="#1CBC79" cx="139" cy="179" rx="57" ry="57"/><ellipse fill="#1CBC79" cx="464" cy="140" rx="37" ry="37"/><circle fill="#1CBC79" cx="322" cy="231" r="17"/><g stroke="#485F76"><path d="M175 195.89V129c0-3.314 2.686-6 6-6h225c3.314 0 6 2.686 6 6v15M412 236v40H175v-17.11M411.5 276.056l19.488-.056c2.214-.007 4.012 1.786 4.012 4v16.988H152v-16.874c0-2.204 1.783-3.993 3.988-4l19.012-.058" stroke-width="2"/><path d="M328 276l-4.813 7.22c-.74 1.112-1.99 1.78-3.328 1.78h-49.72c-1.337 0-2.586-.668-3.327-1.78L262 276M289 131h11M388 287h14M190 254v10h207v-9M397 153.1V139l-207 .1v63" stroke-width="2"/><path d="M156.85 243.93c-9.134-9.134-9.134-23.944 0-33.08 9.136-9.134 23.946-9.134 33.08 0 9.136 9.136 9.136 23.946 0 33.08-9.134 9.136-23.944 9.136-33.08 0z" stroke-width="2.374"/><path d="M198.924 233.803L181 229M199.348 220l-3.348.897M191.828 208L189 210.828M179.963 201l-.963 3.594M166 201l4.802 17.923M154 208l2.12 2.12M147 220l3.284.88M147 234.048l3.912-1.048M154 246.435L167.435 233M166 253.478l.932-3.478M179.995 252.714L179 249M192.12 246.12L190 244" stroke-width="2"/><path d="M167.344 232.66c-3.125-3.124-3.125-8.19 0-11.316 3.125-3.125 8.192-3.125 11.317 0 3.126 3.125 3.126 8.192 0 11.317-3.124 3.126-8.19 3.126-11.316 0z" stroke-width="2.374"/><path d="M167.344 232.66c-3.125-3.124-3.125-8.19 0-11.316 3.125-3.125 8.192-3.125 11.317 0 3.126 3.125 3.126 8.192 0 11.317-3.124 3.126-8.19 3.126-11.316 0zM380 236.994c0-6.072 4.922-10.994 10.994-10.994s10.995 4.922 10.995 10.994-4.924 10.994-10.996 10.994S380 243.066 380 236.994z" stroke-width="2.374"/><path d="M403.598 230L401 231.5M398.087 225L393 233.81M391 223v3M384 225l1.5 2.598M379 230l2.598 1.5M377 237h10M379 243.5l2.598-1.5M384 248.598l1.5-2.598M391 251v-3M398.087 248.81L393 240M403.548 243.47L401 242M405 237h-3" stroke-width="2"/><path d="M387 236.76c0-2.076 1.684-3.76 3.76-3.76 2.08 0 3.762 1.684 3.762 3.76 0 2.078-1.683 3.762-3.76 3.762-2.078 0-3.762-1.684-3.762-3.76z" stroke-width="2.374"/><path d="M387 236.76c0-2.076 1.684-3.76 3.76-3.76 2.08 0 3.762 1.684 3.762 3.76 0 2.078-1.683 3.762-3.76 3.762-2.078 0-3.762-1.684-3.762-3.76zM403.43 216.15c-14.443-15.225-13.808-39.277 1.42-53.72 15.225-14.443 39.277-13.808 53.72 1.418 14.443 15.227 13.808 39.28-1.42 53.722-15.225 14.443-39.277 13.807-53.72-1.42z" stroke-width="2.374"/><path d="M462.628 160L459 163.44M453.613 153L451 157.263M443.42 149l-1.42 4.794M432.132 147l-.132 4.998M421 148l7.067 29.466M411 152l2.385 4.395M402 159l3.44 3.628M395 167l4.263 2.613M390 178l4.794 1.42M388 189l4.998.132M389 200.166l4.862-1.166M393 210.385l4.395-2.385M400 219.646L421.766 199M409 226.263l2.613-4.263M419 230.794l1.42-4.794M430 232.998l.132-4.998M441.166 231.862L440 227M451.385 227.395L449 223M460.44 221.628L457 218M468.263 212.613L464 210M471.942 202.283L444 194M473.998 191.132L469 191M469.395 169L465 171.385M472.862 180L468 181.166M472.862 180L468 181.166" stroke-width="2"/><path d="M421.568 198.946c-4.94-5.21-4.724-13.437.485-18.378 5.21-4.94 13.438-4.724 18.38.485 4.94 5.21 4.722 13.437-.487 18.378-5.21 4.942-13.437 4.725-18.378-.484z" stroke-width="2.374"/><path d="M421.568 198.946c-4.94-5.21-4.724-13.437.485-18.378 5.21-4.94 13.438-4.724 18.38.485 4.94 5.21 4.722 13.437-.487 18.378-5.21 4.942-13.437 4.725-18.378-.484z" stroke-width="2.374"/><path stroke-width="2" d="M310.77 185l-21.213 21.213-9.9-9.9-5.657 5.658 15.557 15.557 26.87-26.87z"/><path d="M290 251.45s-45-5.946-45-86l45-7.45 45 7.45c.053 80.054-45 86-45 86zM260.59 212.736C256.064 200.728 253 184.886 253 164M265.435 222.055c-.84-1.593-1.654-3.277-2.435-5.055M224 176l6.835 1.118M228 214.882l6.835-1.882M245 245.882l5.835-4.882M356.835 176L350 177.118M352.835 214.882L346 213M335.835 245.882L330 241M142.624 200.48l-8.808-8.81H79.67L52 164M139.37 214.226L127.147 202H63M85.25 180.25L71 166M349 123.038l28.993-28.887V37" stroke-width="2"/><path stroke-width="2" d="M367 122.752l22.706-22.756V45.954L408.66 27M387 123.186l15.273-15.144V72"/><path d="M72 164c0 1.657-1.343 3-3 3s-3-1.343-3-3 1.343-3 3-3 3 1.343 3 3zM381 34c0 1.657-1.343 3-3 3s-3-1.343-3-3 1.343-3 3-3 3 1.343 3 3zM405 69c0 1.657-1.343 3-3 3s-3-1.343-3-3 1.343-3 3-3 3 1.343 3 3zM414 25c0 1.657-1.343 3-3 3s-3-1.343-3-3 1.343-3 3-3 3 1.343 3 3zM52 162c0 1.657-1.343 3-3 3s-3-1.343-3-3 1.343-3 3-3 3 1.343 3 3zM93 308c0 1.657-1.343 3-3 3s-3-1.343-3-3 1.343-3 3-3 3 1.343 3 3zM541 297c0 1.657-1.343 3-3 3s-3-1.343-3-3 1.343-3 3-3 3 1.343 3 3zM575 277c0 1.657-1.343 3-3 3s-3-1.343-3-3 1.343-3 3-3 3 1.343 3 3zM575 324c0 1.657-1.343 3-3 3s-3-1.343-3-3 1.343-3 3-3 3 1.343 3 3zM64 202c0 1.657-1.343 3-3 3s-3-1.343-3-3 1.343-3 3-3 3 1.343 3 3z" stroke-width="2.374"/><path stroke-width="2" d="M159.025 297h-86l-15 15L22 311.975M53.362 322h-25L5 345.362M156 308H93"/><path d="M22 312c0 1.657-1.343 3-3 3s-3-1.343-3-3 1.343-3 3-3 3 1.343 3 3zM6 347c0 1.657-1.343 3-3 3s-3-1.343-3-3 1.343-3 3-3 3 1.343 3 3z" stroke-width="2.374"/><path stroke-width="2" d="M483 286h35l9.45-9H570M484 297h51M494 308h62l13.302 13.302M507.29 297H426M414 76c58.74 37.112 97.75 102.62 97.75 177.238 0 8.996-.566 17.86-1.666 26.557M104 186.39C131.68 103.082 210.25 43 302.853 43c22.2 0 43.592 3.453 63.67 9.85M97.638 297.152C94.598 282.95 93 268.215 93 253.106c0-15.485 1.68-30.578 4.868-45.106"/><path d="M493 196c5.734 18.572 8.822 38.306 8.822 58.76 0 7.576-.424 15.052-1.248 22.408M489 185c.49 1.317.966 2.64 1.43 3.972M418 93c29.125 20.896 52.374 49.463 66.79 82.747M335 58c4.58.758 9.108 1.673 13.576 2.738M288 56.5c4.69-.332 9.428-.5 14.203-.5 7.96 0 15.813.467 23.53 1.377M149 127.42C180.37 89.58 225.487 63.555 276.694 57M143 136.503c.623-.84 1.253-1.674 1.89-2.503M117 182.097c5.855-15.003 13.478-29.12 22.615-42.097M108.404 296.302C105.52 282.818 104 268.826 104 254.48c0-15.29 1.725-30.18 4.992-44.48M301 0v22M295 16l6 6 6-6M140 59l14.14 16.853M146 75.713l8.453.74.74-8.453M549.666 206L528 209.82M532.867 203L528 209.95l6.95 4.868M463.14 58L449 74.853M448 66l.74 8.453 8.453-.74M290 235v16M290 225v6M290 157v27" stroke-width="2"/></g></g></svg>