<?xml version="1.0" ?>
<svg height="28px" style="shape-rendering:geometricPrecision; text-rendering:geometricPrecision; image-rendering:optimizeQuality; fill-rule:evenodd; clip-rule:evenodd" viewBox="0 0 2048 2048" width="28px" xml:space="preserve" xmlns="http://www.w3.org/2000/svg" xmlns:xlink="http://www.w3.org/1999/xlink"><defs>
<style type="text/css"><![CDATA[.fil2 {fill:none} .fil0 {fill:#E42B26} .fil1 {fill:#FFFFFE}]]></style>
</defs><g><path class="fil0" d="M1688.02 565.913c-30.3756,-27.574 -68.8453,-45.6579 -110.919,-50.3067 -91.4469,-10.2354 -183.723,-15.3874 -276.305,-17.9705 -91.9879,-2.56536 -184.37,-2.56536 -276.547,-2.51221 -92.1639,-0.0531496 -184.54,-0.0531496 -276.54,2.51221 -92.5926,2.58307 -184.896,7.73505 -276.395,17.9705 -42.0331,4.65118 -80.4863,22.7433 -110.834,50.3292 -30.1547,27.4087 -52.3099,64.2189 -62.002,106.533 -13.0843,56.7201 -19.7032,115.899 -23.0469,175.445 -3.3567,59.7981 -3.44055,118.839 -3.44055,176.156 0,57.241 0.0011811,116.205 3.27874,176.039 3.26221,59.5193 9.80079,118.696 22.8921,175.426 9.75001,42.3319 31.9158,79.1528 62.0682,106.56 30.3296,27.5705 68.7449,45.652 110.766,50.3032 91.5107,10.2343 183.814,15.3862 276.407,17.9681 91.9985,2.56536 184.375,2.56536 276.552,2.51221 92.2182,0.0531496 184.593,0.0531496 276.579,-2.51221 92.5796,-2.58189 184.856,-7.73386 276.356,-17.9681 42.013,-4.65118 80.4201,-22.7268 110.763,-50.289 30.1677,-27.4051 52.3642,-64.2296 62.178,-106.574 13.0335,-56.7319 19.5732,-115.909 22.8473,-175.426 3.23032,-58.6926 3.25748,-118.234 3.25276,-176.039l0.0625985 0 0 -2.90197 -0.0625985 0c0.00236221,-114.85 0.00236221,-236.492 -25.7823,-348.698 -9.75001,-42.3331 -31.9406,-79.1505 -62.1284,-106.556z"/><path class="fil1" d="M1309.36 995.76c-85.6855,-44.7485 -170.795,-89.1603 -255.803,-133.518 -70.663,-36.8729 -141.262,-73.7127 -212.066,-110.68l-23.3752 -12.2043 0 26.3292 0 486.747 0 26.263 23.3126 -12.0756c78.202,-40.5083 156.07,-80.8666 233.935,-121.236l233.934 -121.313 27.2303 -14.1236 -27.1677 -14.1886z"/></g><rect class="fil2" height="50" width="50"/></svg>