<svg width="375" height="290" viewBox="0 0 375 290" xmlns="http://www.w3.org/2000/svg"><title>flexible_illustr</title><g transform="translate(1 1)" fill="none" fill-rule="evenodd"><ellipse fill="#1CBC79" cx="49" cy="94" rx="42" ry="42"/><circle fill="#1CBC79" cx="240" cy="50" r="17"/><ellipse fill="#1CBC79" cx="323" cy="184" rx="27" ry="27"/><g stroke="#485F76"><path d="M240 168h11c1.105 0 2 .895 2 2v9H130M122 168h-5" stroke-width="2"/><path stroke-width="2" d="M167 168l3 5h29l3-5M187 99h-8M123 111V98c0-1.657 1.343-3 3-3h111c1.657 0 3 1.343 3 3v35"/><path stroke-width="2" d="M240 145v23H123v-48"/><path stroke-width="2" d="M131 161h101v-58H131z"/><path d="M194 117c0 3.866-3.134 7-7 7s-7-3.134-7-7 3.134-7 7-7 7 3.134 7 7zM194 146c0 3.866-3.134 7-7 7s-7-3.134-7-7 3.134-7 7-7 7 3.134 7 7zM172 131c0 3.866-3.134 7-7 7s-7-3.134-7-7 3.134-7 7-7 7 3.134 7 7zM170.143 126.948l10.896-7.172M182.04 142.948l-10.897-7.172M223 150.5c0 1.933-1.567 3.5-3.5 3.5s-3.5-1.567-3.5-3.5 1.567-3.5 3.5-3.5 3.5 1.567 3.5 3.5zM246 138.5c0 3.038-2.462 5.5-5.5 5.5s-5.5-2.462-5.5-5.5 2.462-5.5 5.5-5.5 5.5 2.462 5.5 5.5zM296 121c0 11.046-8.954 20-20 20s-20-8.954-20-20 8.954-20 20-20 20 8.954 20 20zM137 127.5c0 1.933 1.567 3.5 3.5 3.5s3.5-1.567 3.5-3.5-1.567-3.5-3.5-3.5-3.5 1.567-3.5 3.5zM114 115.5c0 3.038 2.462 5.5 5.5 5.5s5.5-2.462 5.5-5.5-2.462-5.5-5.5-5.5-5.5 2.462-5.5 5.5zM63.5 97.376c0 11.046 8.954 20 20 20s20-8.954 20-20-8.954-20-20-20-20 8.954-20 20z" stroke-width="2"/><path d="M55 146v19" stroke-width="2" stroke-linecap="round"/><path stroke-width="2" stroke-linecap="round" stroke-linejoin="round" d="M49 152l6-6 6 6"/><path d="M225 248v19" stroke-width="2" stroke-linecap="round"/><path stroke-width="2" stroke-linecap="round" stroke-linejoin="round" d="M219 254l6-6 6 6"/><path d="M262 189v19" stroke-width="2" stroke-linecap="round"/><path stroke-width="2" stroke-linecap="round" stroke-linejoin="round" d="M256 195l6-6 6 6"/><path d="M101 209v19" stroke-width="2" stroke-linecap="round"/><path stroke-width="2" stroke-linecap="round" stroke-linejoin="round" d="M95 215l6-6 6 6M66.895 86.768L71 88v13l-7.08-2.124"/><g stroke-width="2" stroke-linecap="round" stroke-linejoin="round"><path d="M71 101l10-3V85l-10 3zM81 85l-10-3"/></g><path d="M294 62h-27c-9.94 0-18-8.06-18-18s8.06-18 18-18c7.066 0 13.182 4.072 16 10M326 37c2.566-3.07 6.557-5 11-5 8.284 0 15 6.716 15 15 0 8.284-6.716 15-15 15h-22M275.603 27.5C276.873 12.1 289.773 0 305.5 0c16.57 0 30 13.43 30 30 0 .503-.012 1.003-.037 1.5M215 262h-35c-7.18 0-13-5.82-13-13s5.82-13 13-13c2.163 0 4.203.528 6 1M275 247c1.738-2.564 4.452-4 8-4 4.747 0 9 4.254 9 10 0 4.747-4.253 9-9 9h-48M182.85 235.5c-.23-.965-.35-1.97-.35-3.006 0-7.18 5.82-13 13-13 4.63 0 8.697 2.422 11 6.068M249.5 233.12c2.797-5.135 8.24-8.62 14.5-8.62 9.113 0 16.5 7.388 16.5 16.5 0 .506-.023 1.006-.067 1.5M238.82 202.468c8.717 4.478 14.68 13.56 14.68 24.033 0 .336-.006.67-.02 1M200.416 219.5c2.66-9.942 10.856-17.622 21.08-19.537M126 187c2.89-2.493 6.654-4 10.77-4 9.113 0 16.5 7.388 16.5 16.5 0 .168-.002.335-.007.5M91 221H67c-9.613 0-17-7.387-17-16 0-9.613 7.387-17 17-17 5.502 0 10.756 3.205 14 8M148 205c1.824-2.43 4.73-4 8-4 5.523 0 10 4.477 10 10s-4.477 10-10 10h-45" stroke-width="2" stroke-linecap="round" stroke-linejoin="round"/><path d="M76 191c1.5-14.607 13.825-26 28.807-26 12.485 0 23.126 7.913 27.193 19.004M45 158H8c-4.378 0-8-3.582-8-8s3.622-8 8-8c3.085 0 5.7 1.61 7 4M84 133c2.102-2.48 5.623-4 9-4 8.508 0 15 6.492 15 15 0 7.508-6.492 14-15 14H65M11.5 141.5c0-9.94 8.06-18 18-18 2.104 0 4.124.36 6 1.025M89.5 117.26c1.71 3.413 2.753 7.216 2.96 11.24M35.5 130c0-15.57 12.487-28.226 27.994-28.496M117 62H93c-6.075 0-11-4.925-11-11s4.925-11 11-11c4.275 0 7.98 2.438 10 6M141 33c3.604-4.833 9.182-8 16-8 9.717 0 18 8.283 18 19 0 9.717-8.283 18-18 18h-19M96 40c-1.286-3.082-2-6.464-2-10 0-14.365 11.68-26 26-26 13.475 0 24.508 10.05 26 23M190.5 81.5c0-3.866 3.134-7 7-7 2.792 0 5.202 1.634 6.326 4" stroke-width="2" stroke-linecap="round" stroke-linejoin="round"/><path d="M201.52 75.5c.525-13.343 11.508-24 24.98-24 12.095 0 22.183 8.588 24.5 20M179.44 94.506c-.602-1.206-.94-2.567-.94-4.006 0-4.97 4.03-9 9-9 2.145 0 4.115.75 5.66 2.004M245 77c2.842-3.057 6.693-5 11-5 7.73 0 14 6.268 14 14s-6.27 14-14 14h-16" stroke-width="2" stroke-linecap="round" stroke-linejoin="round"/><path stroke-width="2" d="M80 228v22l-10 10M72 234v9l-24 24v14M58.5 243.5L38 264"/><path d="M51 284c0 1.657-1.343 3-3 3s-3-1.343-3-3 1.343-3 3-3 3 1.343 3 3zM71 262c0 1.657-1.343 3-3 3s-3-1.343-3-3 1.343-3 3-3 3 1.343 3 3zM346 229c0 1.657-1.343 3-3 3s-3-1.343-3-3 1.343-3 3-3 3 1.343 3 3zM372 259c0 1.657-1.343 3-3 3s-3-1.343-3-3 1.343-3 3-3 3 1.343 3 3zM362 219c0 1.657-1.343 3-3 3s-3-1.343-3-3 1.343-3 3-3 3 1.343 3 3zM353 115c0 1.657-1.343 3-3 3s-3-1.343-3-3 1.343-3 3-3 3 1.343 3 3zM333 109c0 1.657-1.343 3-3 3s-3-1.343-3-3 1.343-3 3-3 3 1.343 3 3zM310 95c0 1.657-1.343 3-3 3s-3-1.343-3-3 1.343-3 3-3 3 1.343 3 3zM39 265c0 1.657-1.343 3-3 3s-3-1.343-3-3 1.343-3 3-3 3 1.343 3 3z" stroke-width="2.374"/><path d="M322 219h34M295 212l17.5 17H340M322 238h25.714L367 257" stroke-width="2"/><path d="M252 202h-23c-7.404 0-13-5.72-13-13 0-3.958 1.964-7.67 5-10M287 182c2.117-5.188 7.363-9 13-9 8.508 0 15 6.492 15 15 0 7.508-6.492 14-15 14h-28M239.787 158.5c5.364-5.55 12.885-9 21.213-9 15.45 0 28.126 11.878 29.395 27M295 153c2.26-10.298 11.353-18 22-18 10.48 0 19.15 6.85 22 16M335 157c2.294-4.185 6.818-7 12-7 7.732 0 14 6.268 14 14s-6.268 14-14 14h-34" stroke-width="2" stroke-linecap="round" stroke-linejoin="round"/><path d="M282 158c2.336-2.46 5.672-4 9-4 2.395 0 4.303.457 6 1M316 71v14.65L310 92M323 75v26.57l4 4.43M332 97l15.556 15.556" stroke-width="2" stroke-linecap="round" stroke-linejoin="round"/><path d="M304 49v19" stroke-width="2" stroke-linecap="round"/><path stroke-width="2" stroke-linecap="round" stroke-linejoin="round" d="M298 55l6-6 6 6"/><path d="M127 50v19" stroke-width="2" stroke-linecap="round"/><path stroke-width="2" stroke-linecap="round" stroke-linejoin="round" d="M121 56l6-6 6 6"/><path stroke-width="2" d="M287 137l-21-5v-22l22-5M267 121h29M279 106v28"/><path stroke-width="2" stroke-linecap="round" stroke-linejoin="round" d="M73 114v-9l10 3v9M93 115v-10l-10 3M73 105l10-3 10 3M95 101l-10-3V85l10 3zM100.252 86.425L95 88v13l8.11-2.433M85 85l11-3"/></g></g></svg>