<svg width="89" height="89" viewBox="0 0 89 89" xmlns="http://www.w3.org/2000/svg"><g stroke="#485F76" stroke-width="2" fill="none" fill-rule="evenodd"><path d="M88 44.5C88 68.524 68.524 88 44.5 88S1 68.524 1 44.5 20.476 1 44.5 1 88 20.476 88 44.5z"/><path d="M14.188 45.362C14.064 44.235 14 43.09 14 41.93 14 24.848 27.848 11 44.93 11s30.93 13.848 30.93 30.93c0 1.073-.054 2.133-.16 3.178M44 7v4M36 8l1.053 3.93M27 11l2.035 3.525M20 17l2.828 2.828M14 24l20.76 11.986M11 33l3.93 1.053M10 43h4M80 43h-4M78.93 33L75 34.053M75.544 24L55 35.86M69.828 17L67 19.828M54.053 8L53 11.93M62.035 11L60 14.525M62.035 11L60 14.525" stroke-linecap="round"/><path d="M44.58 52.163c-5.843 0-10.58-4.737-10.58-10.58C34 35.737 38.737 31 44.58 31c5.845 0 10.582 4.738 10.582 10.582s-4.737 10.58-10.58 10.58zM54.357 85.64c-4.25-8.724-2.752-19.542 4.494-26.79 7.435-7.433 18.63-8.817 27.463-4.15M82.88 50L82 53.284M69 50l.903 3.372M57 57l13.435 13.435M50 69l3.478.932M50 82.822L53.07 82M69.485 80.647c-2.233-3.126-1.947-7.497.86-10.304 2.734-2.734 6.955-3.076 10.06-1.025" stroke-linecap="round"/><path d="M69.367 80.478c-2.105-3.113-1.78-7.378.977-10.134 2.734-2.735 6.955-3.076 10.06-1.026M4 54.79c8.86-4.775 20.15-3.42 27.63 4.06 7.386 7.386 8.8 18.48 4.244 27.287M41.284 82.88L38 82M41.372 69L38 69.903M33.435 57L20 70.435M21.932 50L21 53.478M8 50l.873 3.256" stroke-linecap="round"/><path d="M10 69.6c3.135-2.358 7.607-2.11 10.46.743 2.845 2.845 3.1 7.298.766 10.432" stroke-linecap="round"/><path d="M10 69.467c3.124-2.214 7.48-1.922 10.28.877 2.733 2.734 3.075 6.955 1.024 10.06" stroke-linecap="round"/></g></svg>