<?xml version="1.0" encoding="UTF-8"?>
<svg width="410px" height="383px" viewBox="0 0 410 383" version="1.1" xmlns="http://www.w3.org/2000/svg" xmlns:xlink="http://www.w3.org/1999/xlink">
    <!-- Generator: Sketch 42 (36781) - http://www.bohemiancoding.com/sketch -->
    <title>collaborative_illustr</title>
    <desc>Created with Sketch.</desc>
    <defs></defs>
    <g id="Page-1" stroke="none" stroke-width="1" fill="none" fill-rule="evenodd">
        <g id="desktop-1" transform="translate(-98.000000, -2563.000000)">
            <g id="Our-Solutions" transform="translate(-10.000000, 1426.000000)">
                <g id="3" transform="translate(109.000000, 1138.000000)">
                    <g id="collaborative_illustr">
                        <ellipse id="Oval-5" fill="#1CBC79" cx="306" cy="163" rx="47" ry="47"></ellipse>
                        <circle id="Oval-5" fill="#1CBC79" cx="216" cy="223" r="17"></circle>
                        <ellipse id="Oval-5" fill="#1CBC79" cx="85" cy="65" rx="57" ry="57"></ellipse>
                        <g id="Page-1" stroke="#485F76">
                            <path d="M120,194.67 L120,140 C120,137.791 121.791,136 124,136 L284,136 C286.209,136 288,137.791 288,140 L288,244 L120,244 L120,214.928432" id="Stroke-1" stroke-width="2"></path>
                            <path d="M288,244 L300,244 C302.209,244 304,245.791 304,248 L304,259 L104,259 L104,248 C104,245.791 105.791,244 108,244 L120,244" id="Stroke-3" stroke-width="2"></path>
                            <polyline id="Stroke-5" stroke-width="2" points="229 244 224 251 186 251 181 244"></polyline>
                            <path d="M200,142 L210,142" id="Stroke-7" stroke-width="2"></path>
                            <path d="M272,252 L281,252" id="Stroke-9" stroke-width="2"></path>
                            <polygon id="Stroke-11" stroke-width="2" points="132 235 276 235 276 148 132 148"></polygon>
                            <path d="M364,159 L289,159" id="Stroke-13" stroke-width="2"></path>
                            <path d="M288,239 L396,239 L396,161 C396,159.895 395.105,159 394,159 L388.002,159" id="Stroke-14" stroke-width="2"></path>
                            <path d="M396,239 L406,239 C407.105,239 408,239.895 408,241 L408,250 L304,250" id="Stroke-15" stroke-width="2"></path>
                            <polyline id="Stroke-16" stroke-width="2" points="352 239 349 244 320 244 317 239"></polyline>
                            <path d="M331,163 L339,163" id="Stroke-17" stroke-width="2"></path>
                            <path d="M385,244 L391,244" id="Stroke-18" stroke-width="2"></path>
                            <polyline id="Stroke-19" stroke-width="2" points="289 167 388 167 388 232 288 232"></polyline>
                            <path d="M120,239 L12,239 L12,161 C12,159.895 12.895,159 14,159 L119,159" id="Stroke-20" stroke-width="2"></path>
                            <path d="M12,239 L2,239 C0.895,239 0,239.895 0,241 L0,250 L104,250" id="Stroke-21" stroke-width="2"></path>
                            <polyline id="Stroke-22" stroke-width="2" points="56 239 59 244 88 244 91 239"></polyline>
                            <path d="M77,163 L69,163" id="Stroke-23" stroke-width="2"></path>
                            <polyline id="Stroke-24" stroke-width="2" points="119 167 20 167 20 232 120 232"></polyline>
                            <path d="M83.618,334.251 C64.031,316.593 48.342,294.694 38,270" id="Stroke-25" stroke-width="2"></path>
                            <path d="M313.105,344 C282.888,366.954 245.196,380.578 204.323,380.578 C184.652,380.578 165.718,377.422 148,371.59" id="Stroke-26" stroke-width="2"></path>
                            <path d="M374.071,260 C369.895,271.987 364.488,283.396 358,294.077" id="Stroke-27" stroke-width="2"></path>
                            <path d="M321,63 C337.842,77.244 352.033,94.526 362.724,114.001" id="Stroke-28" stroke-width="2"></path>
                            <path d="M225,22 C245.779,24.37 265.485,30.277 283.498,39.106" id="Stroke-29" stroke-width="2"></path>
                            <path d="M70,80.148 C95.037,52.159 128.701,32.05 166.813,24" id="Stroke-30" stroke-width="2"></path>
                            <path d="M32,147.405 C33.402,142.857 34.979,138.386 36.724,134" id="Stroke-31" stroke-width="2"></path>
                            <path d="M166.893,325.147 C138.144,316.519 113.584,298.207 97,274" id="Stroke-32" stroke-width="2"></path>
                            <path d="M319.367,262 C305.508,287.889 283.14,308.538 256,320.211" id="Stroke-33" stroke-width="2"></path>
                            <path d="M282,96 C298.974,108.583 312.775,125.202 321.984,144.44" id="Stroke-34" stroke-width="2"></path>
                            <path d="M147,84.498 C164.397,75.858 184.004,71 204.746,71 C210.375,71 215.92,71.358 221.361,72.052" id="Stroke-35" stroke-width="2"></path>
                            <path d="M87,145.597 C90.588,137.963 94.897,130.735 99.838,124" id="Stroke-36" stroke-width="2"></path>
                            <path d="M273,80 C273,91.598 263.598,101 252,101 C240.402,101 231,91.598 231,80 C231,68.402 240.402,59 252,59 C263.598,59 273,68.402 273,80 Z" id="Stroke-37" stroke-width="2"></path>
                            <path d="M143,99 C143,110.598 133.598,120 122,120 C110.402,120 101,110.598 101,99 C101,87.402 110.402,78 122,78 C133.598,78 143,87.402 143,99 Z" id="Stroke-38" stroke-width="2"></path>
                            <path d="M142,215 C142,216.657 140.657,218 139,218 C137.343,218 136,216.657 136,215 C136,213.343 137.343,212 139,212 C140.657,212 142,213.343 142,215 Z" id="Stroke-39" stroke-width="2"></path>
                            <path d="M128,205 C128,207.761 125.761,210 123,210 C120.239,210 118,207.761 118,205 C118,202.239 120.239,200 123,200 C125.761,200 128,202.239 128,205 Z" id="Stroke-40" stroke-width="2"></path>
                            <path d="M114,190 C114,198.284 107.284,205 99,205 C90.716,205 84,198.284 84,190 C84,181.716 90.716,175 99,175 C107.284,175 114,181.716 114,190 Z" id="Stroke-41" stroke-width="2"></path>
                            <path d="M351,201 C351,208.732 344.732,215 337,215 C329.268,215 323,208.732 323,201 C323,193.268 329.268,187 337,187 C344.732,187 351,193.268 351,201 Z" id="Stroke-42" stroke-width="2"></path>
                            <path d="M133,353 C133,364.598 123.598,374 112,374 C100.402,374 91,364.598 91,353 C91,341.402 100.402,332 112,332 C123.598,332 133,341.402 133,353 Z" id="Stroke-43" stroke-width="2"></path>
                            <path d="M223,330 C223,341.598 213.598,351 202,351 C190.402,351 181,341.598 181,330 C181,318.402 190.402,309 202,309 C213.598,309 223,318.402 223,330 Z" id="Stroke-44" stroke-width="2"></path>
                            <path d="M358,322 C358,333.598 348.598,343 337,343 C325.402,343 316,333.598 316,322 C316,310.402 325.402,301 337,301 C348.598,301 358,310.402 358,322 Z" id="Stroke-45" stroke-width="2"></path>
                            <path d="M397,142 C397,153.598 387.598,163 376,163 C364.402,163 355,153.598 355,142 C355,130.402 364.402,121 376,121 C387.598,121 397,130.402 397,142 Z" id="Stroke-46" stroke-width="2"></path>
                            <path d="M217,21 C217,32.598 207.598,42 196,42 C184.402,42 175,32.598 175,21 C175,9.402 184.402,0 196,0 C207.598,0 217,9.402 217,21 Z" id="Stroke-47" stroke-width="2"></path>
                            <path d="M317,54 C317,58.418 313.418,62 309,62 C304.582,62 301,58.418 301,54 C301,49.582 304.582,46 309,46 C313.418,46 317,49.582 317,54 Z" id="Stroke-48" stroke-width="2"></path>
                            <path d="M298,45 C298,47.209 296.209,49 294,49 C291.791,49 290,47.209 290,45 C290,42.791 291.791,41 294,41 C296.209,41 298,42.791 298,45 Z" id="Stroke-49" stroke-width="2"></path>
                            <path d="M247,326 C247,329.314 244.314,332 241,332 C237.686,332 235,329.314 235,326 C235,322.686 237.686,320 241,320 C244.314,320 247,322.686 247,326 Z" id="Stroke-50" stroke-width="2"></path>
                            <path d="M71,108 C71,119.598 61.598,129 50,129 C38.402,129 29,119.598 29,108 C29,96.402 38.402,87 50,87 C61.598,87 71,96.402 71,108 Z" id="Stroke-51" stroke-width="2"></path>
                            <polygon id="Stroke-52" stroke-width="2" points="91 195 107 195 107 185 91 185"></polygon>
                            <polyline id="Stroke-53" stroke-width="2" points="91 185 99 191 107 185"></polyline>
                            <polygon id="Stroke-54" stroke-width="2" points="29 183 64 183 64 178 29 178"></polygon>
                            <polyline id="Stroke-55" stroke-width="2" points="160 223 160 189 170 189 170 223"></polyline>
                            <polyline id="Stroke-56" stroke-width="2" points="176 223 176 176 186 176 186 223"></polyline>
                            <polyline id="Stroke-57" stroke-width="2" points="192 223 192 184 202 184 202 223"></polyline>
                            <polyline id="Stroke-58" stroke-width="2" points="208 223 208 168 218 168 218 223"></polyline>
                            <polygon id="Stroke-59" stroke-width="2" points="29 197 43 197 43 192 29 192"></polygon>
                            <polygon id="Stroke-60" stroke-width="2" points="48 197 72 197 72 192 48 192"></polygon>
                            <polygon id="Stroke-61" stroke-width="2" points="29 211 54 211 54 206 29 206"></polygon>
                            <polygon id="Stroke-62" stroke-width="2" points="59 211 70 211 70 206 59 206"></polygon>
                            <path d="M154,223 L224,223" id="Stroke-63" stroke-width="2"></path>
                            <path d="M236,183 L253,183" id="Stroke-64" stroke-width="2"></path>
                            <path d="M236,190 L257,190" id="Stroke-65" stroke-width="2"></path>
                            <path d="M236,197 L255,197" id="Stroke-66" stroke-width="2"></path>
                            <path d="M236,204 L259,204" id="Stroke-67" stroke-width="2"></path>
                            <path d="M236,211 L255,211" id="Stroke-68" stroke-width="2"></path>
                            <path d="M298,195 L313,195" id="Stroke-69" stroke-width="2"></path>
                            <path d="M293,224 L308,224" id="Stroke-70" stroke-width="2"></path>
                            <path d="M363,219 L378,219" id="Stroke-71" stroke-width="2"></path>
                            <path d="M362,185 L380,185" id="Stroke-72" stroke-width="2"></path>
                            <path d="M358,214 L366,214" id="Stroke-73" stroke-width="2"></path>
                            <path d="M306,201 L317,201" id="Stroke-74" stroke-width="2"></path>
                            <path d="M161,185 L169,185" id="Stroke-75" stroke-width="2"></path>
                            <path d="M177,172 L185,172" id="Stroke-76" stroke-width="2"></path>
                            <path d="M193,180 L201,180" id="Stroke-77" stroke-width="2"></path>
                            <path d="M209,164 L217,164" id="Stroke-78" stroke-width="2"></path>
                            <polygon id="Stroke-79" stroke-width="2" points="334 207 334 195 343 201"></polygon>
                            <path d="M120,216 L120,244.33" id="Stroke-80" stroke-width="2"></path>
                            <polygon id="Stroke-81" stroke-width="2" points="103 363.992 121 363.992 121 350 103 350"></polygon>
                            <path d="M107,349 L107,346 C107,343.239 109.239,341 112,341 C114.761,341 117,343.239 117,346 L117,349" id="Stroke-82" stroke-width="2"></path>
                            <path d="M112,354 L112,358" id="Stroke-83" stroke-width="2"></path>
                            <path d="M114,359 L110,359" id="Stroke-84" stroke-width="2"></path>
                            <path d="M323,330 L351,330" id="Stroke-85" stroke-width="2"></path>
                            <polyline id="Stroke-86" stroke-width="2" points="327 330 327 318 331 318 331 330"></polyline>
                            <polyline id="Stroke-87" stroke-width="2" points="335 330 335 321 339 321 339 330"></polyline>
                            <polyline id="Stroke-88" stroke-width="2" points="343 330 343 313 347 313 347 330"></polyline>
                            <path d="M201,339 L204,322" id="Stroke-89" stroke-width="2"></path>
                            <polyline id="Stroke-90" stroke-width="2" points="209 323 216.778 330.778 209 338.556"></polyline>
                            <polyline id="Stroke-91" stroke-width="2" points="196.778 323 189 330.778 196.778 338.556"></polyline>
                            <polyline id="Stroke-92" stroke-width="2" points="388 139 380 147 377 144 369 152"></polyline>
                            <path d="M363,146.5 L372.5,137" id="Stroke-93" stroke-width="2"></path>
                            <polyline id="Stroke-94" stroke-width="2" points="367 136 373 136 373 142"></polyline>
                            <polyline id="Stroke-95" stroke-width="2" points="383 138 389 138 389 144"></polyline>
                            <polyline id="Stroke-96" stroke-width="2" points="48 100 48 96 57 96 62 101 61.936 114 55 114"></polyline>
                            <polyline id="Stroke-97" stroke-width="2" points="56 96 56 102 62 102"></polyline>
                            <polygon id="Stroke-98" stroke-width="2" points="55.055 119 41 119 41 101 50.119 101 55.119 106"></polygon>
                            <polyline id="Stroke-99" stroke-width="2" points="49 101 49 107 55 107"></polyline>
                            <path d="M111,98.994 C111,92.922 115.922,88 121.994,88 C128.066,88 132.989,92.922 132.989,98.994 C132.989,105.066 128.066,109.988 121.994,109.988 C115.922,109.988 111,105.066 111,98.994 Z" id="Stroke-100" stroke-width="2.374"></path>
                            <path d="M134.598,92 L132,93.5" id="Stroke-101" stroke-width="2"></path>
                            <path d="M129.087,87 L124,95.811" id="Stroke-102" stroke-width="2"></path>
                            <path d="M122,85 L122,88" id="Stroke-103" stroke-width="2"></path>
                            <path d="M115,87 L116.5,89.598" id="Stroke-104" stroke-width="2"></path>
                            <path d="M110,92 L112.598,93.5" id="Stroke-105" stroke-width="2"></path>
                            <path d="M108,99 L118,99" id="Stroke-106" stroke-width="2"></path>
                            <path d="M110,106.5 L112.598,105" id="Stroke-107" stroke-width="2"></path>
                            <path d="M115,111.598 L116.5,109" id="Stroke-108" stroke-width="2"></path>
                            <path d="M122,113 L122,110" id="Stroke-109" stroke-width="2"></path>
                            <path d="M129.087,110.811 L124,102" id="Stroke-110" stroke-width="2"></path>
                            <path d="M134.548,106.471 L132,105" id="Stroke-111" stroke-width="2"></path>
                            <path d="M136,99 L133,99" id="Stroke-112" stroke-width="2"></path>
                            <path d="M118,98.761 C118,96.684 119.684,95 121.761,95 C123.839,95 125.522,96.684 125.522,98.761 C125.522,100.838 123.839,102.522 121.761,102.522 C119.684,102.522 118,100.838 118,98.761 Z" id="Stroke-113" stroke-width="2.374"></path>
                            <path d="M118,98.761 C118,96.684 119.684,95 121.761,95 C123.839,95 125.522,96.684 125.522,98.761 C125.522,100.838 123.839,102.522 121.761,102.522 C119.684,102.522 118,100.838 118,98.761 Z" id="Stroke-114" stroke-width="2.374"></path>
                            <polyline id="Stroke-115" stroke-width="2" points="191 28 191 13 204 10 204 25"></polyline>
                            <polygon id="Stroke-116" stroke-width="2" points="185 31 191 31 191 27 185 27"></polygon>
                            <polygon id="Stroke-117" stroke-width="2" points="198 29 204.124 29 204.124 25 198 25"></polygon>
                            <path d="M260,79.526 L260,78 C260,74.134 256.866,71 253,71 C249.134,71 246,74.134 246,78 L243,78 C240.791,78 239,79.791 239,82 C239,84.209 240.791,86 243,86 L247,86" id="Stroke-118" stroke-width="2"></path>
                            <path d="M259,86 L261,86 C262.923,86 265,84.404 265,82.481 C265,80.559 263.441,79 261.519,79 L259,79" id="Stroke-119" stroke-width="2"></path>
                            <path d="M253,87 L253,80" id="Stroke-120" stroke-width="2"></path>
                            <polyline id="Stroke-121" stroke-width="2" points="249 83 253 79 257 83"></polyline>
                            <polyline id="Stroke-122" stroke-width="2" points="162 20 167.693 24.193 163.5 29.887"></polyline>
                            <polyline id="Stroke-123" stroke-width="2" points="217.054 66 221.499 71.499 216 75.944"></polyline>
                            <polyline id="Stroke-124" stroke-width="2" points="280.937 32 283.565 38.565 277 41.192"></polyline>
                            <polyline id="Stroke-125" stroke-width="2" points="363.588 107 361.855 113.855 355 112.122"></polyline>
                            <polyline id="Stroke-126" stroke-width="2" points="323.929 138 321.715 144.716 315 142.502"></polyline>
                            <polyline id="Stroke-127" stroke-width="2" points="262.676 322.006 256 319.676 258.33 313"></polyline>
                            <polyline id="Stroke-128" stroke-width="2" points="151.293 377.551 148 371.294 154.257 368"></polyline>
                            <polyline id="Stroke-129" stroke-width="2" points="96 280.979 97.136 274 104.115 275.135"></polyline>
                            <polyline id="Stroke-130" stroke-width="2" points="36 276.545 38.677 270 45.222 272.677"></polyline>
                            <polyline id="Stroke-131" stroke-width="2" points="365.364 292.482 358.441 293.923 357 287"></polyline>
                        </g>
                    </g>
                </g>
            </g>
        </g>
    </g>
</svg>