<svg width="91" height="33" viewBox="0 0 91 33" xmlns="http://www.w3.org/2000/svg" xmlns:xlink="http://www.w3.org/1999/xlink"><title>epam_logo</title><defs><path id="a" d="M.058 32.267h12.36V.335H.058v31.932z"/></defs><g fill="none" fill-rule="evenodd"><path d="M17.13 11.22h5.02V5.893c0-1.487-.745-2.23-2.23-2.23h-.56c-1.486 0-2.23.743-2.23 2.23v5.33zm-.01 3.4l.01 5.862c0 1.487.744 2.23 2.23 2.23h.65c1.488 0 2.232-.743 2.232-2.23v-2.88h3.438v2.74c0 3.764-1.905 5.67-5.67 5.67h-.742c-3.764 0-5.67-1.906-5.67-5.23V6.473c0-4.204 1.906-6.11 5.67-6.11h.743c3.765 0 5.67 1.906 5.67 5.67l-.01 8.59h-8.55z" fill="#FFF"/><g transform="translate(27.916 .027)"><mask id="b" fill="#fff"><use xlink:href="#a"/></mask><path d="M3.59 21.338c.975.836 2.09 1.3 3.252 1.3 1.3 0 2.045-.603 2.045-2.044V5.724c0-1.44-.744-2.043-2.045-2.043-1.16 0-2.277.466-3.252 1.302v16.356zM.058.614H3.59V2.24C4.426 1.36 5.866.336 7.91.336c3.02 0 4.508 1.998 4.508 4.972v15.706c0 2.973-1.487 4.97-4.507 4.97-2.044 0-3.484-.974-4.32-1.81v8.094H.058V.614z" fill="#FFF" mask="url(#b)"/></g><path d="M50.923 21.504v-8.276l-3.206 1.214c-1.302.51-1.72 1.16-1.72 2.602v3.81c0 1.208.604 1.812 1.72 1.812 1.068 0 2.044-.372 3.206-1.162zm-8.457-4.507c0-3.113 1.022-4.368 3.717-5.297l4.74-1.626V5.892c0-1.487-.744-2.277-2.23-2.277h-.576c-1.487 0-2.23.79-2.23 2.277v3.554h-3.44V6.03c0-3.762 1.906-5.667 5.67-5.667h.668c3.764 0 5.67 1.905 5.67 5.668v19.703h-3.532v-1.58c-.976.93-2.277 1.86-4.322 1.86-2.833 0-4.134-1.628-4.134-4.416v-4.6zM68.737 25.733h-3.532V5.52c0-1.254-.604-1.812-1.673-1.812-.976 0-1.998.372-3.252 1.255v20.77h-3.532V.64h3.532V2.27C61.302 1.292 62.65.363 64.6.363c1.813 0 3.02.743 3.672 2.044 1.255-1.07 2.74-2.044 4.786-2.044 2.74 0 4.135 1.672 4.135 4.414v20.956h-3.53V5.52c0-1.254-.605-1.812-1.674-1.812-.977 0-2 .372-3.253 1.255v20.77zM9.073 2.952v4.614L3.13 13.23l5.943 5.56v4.716L0 14.976v-3.393M90.747 11.583v3.394l-9.073 8.53V18.79l5.943-5.56-5.943-5.664V2.952" fill="#FFF"/></g></svg>