<?xml version="1.0" encoding="UTF-8"?>
<svg width="698px" height="355px" viewBox="0 0 698 355" version="1.1" xmlns="http://www.w3.org/2000/svg" xmlns:xlink="http://www.w3.org/1999/xlink">
    <!-- Generator: Sketch 42 (36781) - http://www.bohemiancoding.com/sketch -->
    <title>exploratory_illustr</title>
    <desc>Created with Sketch.</desc>
    <defs></defs>
    <g id="Page-1" stroke="none" stroke-width="1" fill="none" fill-rule="evenodd">
        <g id="desktop-1" transform="translate(-503.000000, -3083.000000)">
            <g id="Our-Solutions" transform="translate(-10.000000, 1426.000000)">
                <g id="4" transform="translate(162.000000, 1658.000000)">
                    <g id="exploratory_illustr" transform="translate(353.000000, 0.000000)">
                        <ellipse id="Oval-5" fill="#1CBC79" cx="362" cy="206" rx="37" ry="37"></ellipse>
                        <ellipse id="Oval-5" fill="#1CBC79" cx="136" cy="132" rx="22" ry="22"></ellipse>
                        <ellipse id="Oval-5" fill="#1CBC79" cx="570" cy="127" rx="52" ry="52"></ellipse>
                        <g id="Page-1" stroke="#485F76">
                            <path d="M302,208 L302,234.128" id="Stroke-1" stroke-width="2"></path>
                            <g id="Group-282" transform="translate(0.000000, 0.965000)">
                                <path d="M302,141.872 L302,104 C302,100.686 304.686,98 308,98 L458.304,98 L458.304,98" id="Stroke-2" stroke-width="2"></path>
                                <path d="M512.647,124.83 L512.647,104 C512.647,100.686 509.961,98 506.647,98 L465,98" id="Stroke-4" stroke-width="2"></path>
                                <path d="M512,201.264 L512,192" id="Stroke-6" stroke-width="2"></path>
                                <path d="M512,233.234 L512,211" id="Stroke-8" stroke-width="2"></path>
                                <path d="M282,237 L282,252.123 L532,252.123 L532,237 C532,234.791 530.215,233 528.006,233 L285.998,233 C283.789,233 282,234.791 282,237 Z" id="Stroke-10" stroke-width="2"></path>
                                <polyline id="Stroke-12" stroke-width="2" points="439 233 434 241 383 241 378 233"></polyline>
                                <path d="M402,106 L415,106" id="Stroke-14" stroke-width="2"></path>
                                <path d="M493,243 L504,243" id="Stroke-16" stroke-width="2"></path>
                                <polyline id="Stroke-18" stroke-width="2" points="498 182 498 222 316 222 316 198"></polyline>
                                <polyline id="Stroke-20" stroke-width="2" points="316 131 316 113 498 113 498 135"></polyline>
                                <path d="M359.87,137.13 C374.71,151.97 374.71,176.03 359.87,190.87 C345.03,205.71 320.97,205.71 306.13,190.87 C291.29,176.03 291.29,151.97 306.13,137.13 C320.97,122.29 345.03,122.29 359.87,137.13 Z" id="Stroke-22" stroke-width="2"></path>
                                <path d="M353.50575,143.49375 C364.83075,154.81875 364.83075,173.18075 353.50575,184.50575 C342.18075,195.83075 323.81875,195.83075 312.49375,184.50575 C301.16875,173.18075 301.16875,154.81875 312.49375,143.49375 C323.81875,132.16875 342.18075,132.16875 353.50575,143.49375 Z" id="Stroke-24" stroke-width="2"></path>
                                <path d="M267.89975,240.25475 L303.25475,204.89975 C304.03575,204.11875 304.03575,202.85175 303.25475,202.07075 L294.76975,193.58575 C293.98875,192.80475 292.72275,192.80475 291.94175,193.58575 L256.58575,228.94075 C255.80475,229.72175 255.80475,230.98875 256.58575,231.76975 L265.07175,240.25475 C265.85275,241.03575 267.11875,241.03575 267.89975,240.25475 Z" id="Stroke-26" stroke-width="2"></path>
                                <path d="M302.913,188 L296,194.913" id="Stroke-28" stroke-width="2"></path>
                                <path d="M302,200.983 L308.983,194" id="Stroke-30" stroke-width="2"></path>
                                <path d="M458,105 L458,50 C458,47.791 459.791,46 462,46 L546,46 C548.209,46 550,47.791 550,50 L550,87 C550,89.209 548.209,91 546,91 L471,91 L458,105 Z" id="Stroke-32" stroke-width="2"></path>
                                <polyline id="Stroke-34" stroke-width="2" points="470 61 470 61 472.85 61"></polyline>
                                <polyline id="Stroke-36" stroke-width="2" points="476 61 476 61 520.85 61"></polyline>
                                <polyline id="Stroke-38" stroke-width="2" points="470 69 470 69 472.85 69"></polyline>
                                <polyline id="Stroke-40" stroke-width="2" points="476 69 476 69 528.85 69"></polyline>
                                <polyline id="Stroke-42" stroke-width="2" points="470 77 470 77 472.85 77"></polyline>
                                <polyline id="Stroke-44" stroke-width="2" points="476 77 476 77 515.85 77"></polyline>
                                <path d="M504.49675,137.49675 C515.82575,126.16775 534.19475,126.16775 545.52475,137.49675 C556.85375,148.82575 556.85375,167.19475 545.52475,178.52475 C534.19475,189.85375 515.82575,189.85375 504.49675,178.52475 C493.16775,167.19475 493.16775,148.82575 504.49675,137.49675 Z" id="Stroke-46" stroke-width="2.374"></path>
                                <path d="M548.699,180.699 L546,178" id="Stroke-48" stroke-width="2"></path>
                                <path d="M553.306,173.909 L550,172" id="Stroke-50" stroke-width="2"></path>
                                <path d="M556.687,165.988 L553,165" id="Stroke-52" stroke-width="2"></path>
                                <path d="M558,158 L554,158" id="Stroke-54" stroke-width="2"></path>
                                <path d="M557.346,149 L535,154.988" id="Stroke-56" stroke-width="2"></path>
                                <path d="M553.306,141 L550,142.909" id="Stroke-58" stroke-width="2"></path>
                                <path d="M548.699,135 L546,137.699" id="Stroke-60" stroke-width="2"></path>
                                <path d="M541.909,129 L540,132.306" id="Stroke-62" stroke-width="2"></path>
                                <path d="M533.988,126 L533,129.687" id="Stroke-64" stroke-width="2"></path>
                                <path d="M525,125 L525,129" id="Stroke-66" stroke-width="2"></path>
                                <path d="M517,126 L517.988,129.687" id="Stroke-68" stroke-width="2"></path>
                                <path d="M509,129 L510.909,132.306" id="Stroke-70" stroke-width="2"></path>
                                <path d="M502,135 L518.195,151.195" id="Stroke-72" stroke-width="2"></path>
                                <path d="M497,141 L500.306,142.909" id="Stroke-74" stroke-width="2"></path>
                                <path d="M493,149 L496.687,149.988" id="Stroke-76" stroke-width="2"></path>
                                <path d="M492,158 L496,158" id="Stroke-78" stroke-width="2"></path>
                                <path d="M493,165.988 L496.687,165" id="Stroke-80" stroke-width="2"></path>
                                <path d="M497,173.909 L500.306,172" id="Stroke-82" stroke-width="2"></path>
                                <path d="M502,180.699 L504.699,178" id="Stroke-84" stroke-width="2"></path>
                                <path d="M509,186.306 L510.909,183" id="Stroke-86" stroke-width="2"></path>
                                <path d="M517,189.492 L522.759,168" id="Stroke-88" stroke-width="2"></path>
                                <path d="M525,191 L525,187" id="Stroke-90" stroke-width="2"></path>
                                <path d="M541.909,186.306 L540,183" id="Stroke-92" stroke-width="2"></path>
                                <path d="M533.988,189.687 L533,186" id="Stroke-94" stroke-width="2"></path>
                                <path d="M533.988,189.687 L533,186" id="Stroke-96" stroke-width="2"></path>
                                <path d="M517.907,150.907 C521.783,147.031 528.067,147.031 531.943,150.907 C535.819,154.783 535.819,161.067 531.943,164.943 C528.067,168.819 521.783,168.819 517.907,164.943 C514.031,161.067 514.031,154.783 517.907,150.907 Z" id="Stroke-98" stroke-width="2.374"></path>
                                <path d="M517.907,150.907 C521.783,147.031 528.067,147.031 531.943,150.907 C535.819,154.783 535.819,161.067 531.943,164.943 C528.067,168.819 521.783,168.819 517.907,164.943 C514.031,161.067 514.031,154.783 517.907,150.907 Z" id="Stroke-100" stroke-width="2.374"></path>
                                <path d="M568.23725,178.52625 C561.25425,171.54325 561.25425,160.22025 568.23725,153.23725 C575.22025,146.25425 586.54325,146.25425 593.52625,153.23725 C600.50925,160.22025 600.50925,171.54325 593.52625,178.52625 C586.54325,185.50925 575.22025,185.50925 568.23725,178.52625 Z" id="Stroke-102" stroke-width="2.374"></path>
                                <path d="M600.703,170.672 L587,167" id="Stroke-104" stroke-width="2"></path>
                                <path d="M600.56,160 L598,160.686" id="Stroke-106" stroke-width="2"></path>
                                <path d="M595.162,151 L593,153.162" id="Stroke-108" stroke-width="2"></path>
                                <path d="M586.736,146 L586,148.748" id="Stroke-110" stroke-width="2"></path>
                                <path d="M576,146 L579.671,159.701" id="Stroke-112" stroke-width="2"></path>
                                <path d="M566,151 L567.622,152.622" id="Stroke-114" stroke-width="2"></path>
                                <path d="M561,160 L563.51,160.673" id="Stroke-116" stroke-width="2"></path>
                                <path d="M561,170.801 L563.991,170" id="Stroke-118" stroke-width="2"></path>
                                <path d="M566,180.271 L576.271,170" id="Stroke-120" stroke-width="2"></path>
                                <path d="M576,185.659 L576.712,183" id="Stroke-122" stroke-width="2"></path>
                                <path d="M586.761,185.839 L586,183" id="Stroke-124" stroke-width="2"></path>
                                <path d="M595.622,180.622 L594,179" id="Stroke-126" stroke-width="2"></path>
                                <path d="M576.79175,170.44375 C574.40275,168.05475 574.40275,164.18175 576.79175,161.79175 C579.18075,159.40275 583.05475,159.40275 585.44375,161.79175 C587.83275,164.18175 587.83275,168.05475 585.44375,170.44375 C583.05475,172.83275 579.18075,172.83275 576.79175,170.44375 Z" id="Stroke-128" stroke-width="2.374"></path>
                                <path d="M576.79175,170.44375 C574.40275,168.05475 574.40275,164.18175 576.79175,161.79175 C579.18075,159.40275 583.05475,159.40275 585.44375,161.79175 C587.83275,164.18175 587.83275,168.05475 585.44375,170.44375 C583.05475,172.83275 579.18075,172.83275 576.79175,170.44375 Z" id="Stroke-130" stroke-width="2.374"></path>
                                <path d="M556,128.994 C556,122.922 560.922,118 566.994,118 C573.066,118 577.989,122.922 577.989,128.994 C577.989,135.066 573.066,139.988 566.994,139.988 C560.922,139.988 556,135.066 556,128.994 Z" id="Stroke-132" stroke-width="2.374"></path>
                                <path d="M579.598,122 L577,123.5" id="Stroke-134" stroke-width="2"></path>
                                <path d="M574.087,117 L569,125.811" id="Stroke-136" stroke-width="2"></path>
                                <path d="M567,115 L567,118" id="Stroke-138" stroke-width="2"></path>
                                <path d="M560,117 L561.5,119.598" id="Stroke-140" stroke-width="2"></path>
                                <path d="M555,122 L557.598,123.5" id="Stroke-142" stroke-width="2"></path>
                                <path d="M553,129 L563,129" id="Stroke-144" stroke-width="2"></path>
                                <path d="M555,135.5 L557.598,134" id="Stroke-146" stroke-width="2"></path>
                                <path d="M560,140.598 L561.5,138" id="Stroke-148" stroke-width="2"></path>
                                <path d="M567,143 L567,140" id="Stroke-150" stroke-width="2"></path>
                                <path d="M574.087,140.811 L569,132" id="Stroke-152" stroke-width="2"></path>
                                <path d="M579.548,135.471 L577,134" id="Stroke-154" stroke-width="2"></path>
                                <path d="M581,129 L578,129" id="Stroke-156" stroke-width="2"></path>
                                <path d="M563,128.761 C563,126.684 564.684,125 566.761,125 C568.839,125 570.522,126.684 570.522,128.761 C570.522,130.838 568.839,132.522 566.761,132.522 C564.684,132.522 563,130.838 563,128.761 Z" id="Stroke-158" stroke-width="2.374"></path>
                                <path d="M563,128.761 C563,126.684 564.684,125 566.761,125 C568.839,125 570.522,126.684 570.522,128.761 C570.522,130.838 568.839,132.522 566.761,132.522 C564.684,132.522 563,130.838 563,128.761 Z" id="Stroke-160" stroke-width="2.374"></path>
                                <path d="M599,115 L629,115" id="Stroke-162" stroke-width="2"></path>
                                <path d="M389,28 L419,28" id="Stroke-164" stroke-width="2"></path>
                                <path d="M411,34 L437,34" id="Stroke-166" stroke-width="2"></path>
                                <path d="M635,115 L644,115" id="Stroke-168" stroke-width="2"></path>
                                <path d="M625,107 L656,107" id="Stroke-170" stroke-width="2"></path>
                                <path d="M458,113 L458,222" id="Stroke-172" stroke-width="2"></path>
                                <path d="M466,123 L486,123" id="Stroke-174" stroke-width="2"></path>
                                <path d="M466,129 L479,129" id="Stroke-176" stroke-width="2"></path>
                                <path d="M466,135 L490,135" id="Stroke-178" stroke-width="2"></path>
                                <path d="M466,147 L484,147" id="Stroke-180" stroke-width="2"></path>
                                <path d="M466,153 L480,153" id="Stroke-182" stroke-width="2"></path>
                                <path d="M466,159 L482,159" id="Stroke-184" stroke-width="2"></path>
                                <path d="M466,171 L479,171" id="Stroke-186" stroke-width="2"></path>
                                <path d="M466,177 L485,177" id="Stroke-188" stroke-width="2"></path>
                                <path d="M466,183 L482,183" id="Stroke-190" stroke-width="2"></path>
                                <polyline id="Stroke-192" stroke-width="2" points="344 127.833 344 122 386.97 122 386.97 130 349.299 130"></polyline>
                                <polyline id="Stroke-194" stroke-width="2" points="359.302 152 344 152 344 142 351.161 142"></polyline>
                                <polyline id="Stroke-196" stroke-width="2" points="361 139 404.859 139 404.859 147 366.922 147"></polyline>
                                <polyline id="Stroke-198" stroke-width="2" points="361.932 169 344 169 344 158 360.34 158"></polyline>
                                <polyline id="Stroke-200" stroke-width="2" points="370 156 389.1 156 389.1 164 370.911 164"></polyline>
                                <polygon id="Stroke-202" stroke-width="2" points="396 164 439.97 164 439.97 156 396 156"></polygon>
                                <path d="M684.97,252 L564,252 L564,233 C564,231.895 564.895,231 566,231 L682.97,231 C684.075,231 684.97,231.895 684.97,233 L684.97,252 Z" id="Stroke-204" stroke-width="2"></path>
                                <path d="M682.97,226 L566,226 C564.895,226 564,225.105 564,224 L564,207 C564,205.895 564.895,205 566,205 L682.97,205 C684.075,205 684.97,205.895 684.97,207 L684.97,224 C684.97,225.105 684.075,226 682.97,226 Z" id="Stroke-205" stroke-width="2"></path>
                                <path d="M601.671,179 L682.97,179 C684.075,179 684.97,179.895 684.97,181 L684.97,198 C684.97,199.105 684.075,200 682.97,200 L566,200 C564.896,200 564,199.105 564,198 L564,184.8" id="Stroke-206" stroke-width="2"></path>
                                <polyline id="Stroke-207" stroke-width="2" points="593.763 186 658 186 658 192.885 574 192.885"></polyline>
                                <polygon id="Stroke-208" stroke-width="2" points="574 218.885 658 218.885 658 212 574 212"></polygon>
                                <polygon id="Stroke-209" stroke-width="2" points="574 244.885 658 244.885 658 238 574 238"></polygon>
                                <polygon id="Stroke-210" stroke-width="2" points="411 147 442 147 442 139 411 139"></polygon>
                                <polygon id="Stroke-211" stroke-width="2" points="393 130 411 130 411 122 393 122"></polygon>
                                <polyline id="Stroke-212" stroke-width="2" points="352.247 186 344 186 344 175 360.109 175"></polyline>
                                <polyline id="Stroke-213" stroke-width="2" points="370.28 173 404.716 173 404.716 181 367 181"></polyline>
                                <polyline id="Stroke-214" stroke-width="2" points="361.297 190 425.14 190 425.14 198 351 198"></polyline>
                                <polygon id="Stroke-215" stroke-width="2" points="344 215 394.97 215 394.97 207 344 207"></polygon>
                                <polygon id="Stroke-216" stroke-width="2" points="327 215 337 215 337 207 327 207"></polygon>
                                <polygon id="Stroke-217" stroke-width="2" points="324 186 337 186 337 175 324 175"></polygon>
                                <polygon id="Stroke-218" stroke-width="2" points="324 169 337 169 337 158 324 158"></polygon>
                                <polygon id="Stroke-219" stroke-width="2" points="324 152 337 152 337 142 324 142"></polygon>
                                <polyline id="Stroke-220" stroke-width="2" points="327 127.333 327 122 337 122 337 127.166"></polyline>
                                <path d="M517.941,205.971 C517.941,208.716 515.716,210.942 512.97,210.942 C510.225,210.942 508,208.716 508,205.971 C508,203.226 510.225,201 512.97,201 C515.716,201 517.941,203.226 517.941,205.971 Z" id="Stroke-221" stroke-width="2"></path>
                                <path d="M675,215.5 C675,217.433 673.433,219 671.5,219 C669.567,219 668,217.433 668,215.5 C668,213.567 669.567,212 671.5,212 C673.433,212 675,213.567 675,215.5 Z" id="Stroke-222" stroke-width="2"></path>
                                <path d="M675,189.5 C675,191.433 673.433,193 671.5,193 C669.567,193 668,191.433 668,189.5 C668,187.567 669.567,186 671.5,186 C673.433,186 675,187.567 675,189.5 Z" id="Stroke-223" stroke-width="2"></path>
                                <path d="M675,241.5 C675,243.433 673.433,245 671.5,245 C669.567,245 668,243.433 668,241.5 C668,239.567 669.567,238 671.5,238 C673.433,238 675,239.567 675,241.5 Z" id="Stroke-224" stroke-width="2"></path>
                                <path d="M552,215 C552,222.732 545.732,229 538,229 C530.268,229 524,222.732 524,215 C524,207.268 530.268,201 538,201 C545.732,201 552,207.268 552,215 Z" id="Stroke-225" stroke-width="2"></path>
                                <polygon id="Stroke-226" stroke-width="2" points="535 221 535 209 544 215"></polygon>
                                <polyline id="Stroke-227" stroke-width="2" points="695.454 252 56.454 252 24 284.454"></polyline>
                                <polyline id="Stroke-228" stroke-width="2" points="96.249 262 61.249 262 15 308.249"></polyline>
                                <polyline id="Stroke-229" stroke-width="2" points="78.797 273 65.797 273 40.797 298.38 40.797 310 5 345.797"></polyline>
                                <path d="M24,287 C24,288.657 22.657,290 21,290 C19.343,290 18,288.657 18,287 C18,285.343 19.343,284 21,284 C22.657,284 24,285.343 24,287 Z" id="Stroke-230" stroke-width="2.374"></path>
                                <path d="M16,310 C16,311.657 14.657,313 13,313 C11.343,313 10,311.657 10,310 C10,308.343 11.343,307 13,307 C14.657,307 16,308.343 16,310 Z" id="Stroke-231" stroke-width="2.374"></path>
                                <path d="M6,348 C6,349.657 4.657,351 3,351 C1.343,351 0,349.657 0,348 C0,346.343 1.343,345 3,345 C4.657,345 6,346.343 6,348 Z" id="Stroke-232" stroke-width="2.374"></path>
                                <path d="M126,66 L97,66" id="Stroke-233" stroke-width="2"></path>
                                <path d="M111,74 L68,74" id="Stroke-234" stroke-width="2"></path>
                                <path d="M75,82 L59,82" id="Stroke-235" stroke-width="2"></path>
                                <path d="M290,218 L290,233" id="Stroke-236" stroke-width="2"></path>
                                <polyline id="Stroke-237" stroke-width="2" points="202 252 202 134 271 134 290 154.319 290 196"></polyline>
                                <polyline id="Stroke-238" stroke-width="2" points="97 252.103 97 96 200.942 96 220.942 117 220.942 133.339"></polyline>
                                <polyline id="Stroke-239" stroke-width="2" points="201 96 201 117 221 117"></polyline>
                                <polyline id="Stroke-240" stroke-width="2" points="271 134 271 154 290 154"></polyline>
                                <path d="M258.498,234.395 C254.934,235.612 251.112,236.273 247.136,236.273 C227.731,236.273 212,220.542 212,201.136 C212,181.731 227.731,166 247.136,166 C266.541,166 282.273,181.731 282.273,201.136 C282.273,201.893 282.249,202.644 282.201,203.388" id="Stroke-241" stroke-width="2"></path>
                                <polyline id="Stroke-242" stroke-width="2" points="227 228.398 247.736 200.833 243.005 166"></polyline>
                                <path d="M275.472,209.947 L247,201" id="Stroke-243" stroke-width="2"></path>
                                <path d="M245,182.193 L259.193,168" id="Stroke-244" stroke-width="2"></path>
                                <path d="M244,173.097 L251.097,166" id="Stroke-245" stroke-width="2"></path>
                                <path d="M246,190.341 L265.341,171" id="Stroke-246" stroke-width="2"></path>
                                <path d="M247,198.933 L270.933,175" id="Stroke-247" stroke-width="2"></path>
                                <path d="M254,202.706 L275.706,181" id="Stroke-248" stroke-width="2"></path>
                                <path d="M262,204.95 L279.95,187" id="Stroke-249" stroke-width="2"></path>
                                <path d="M269,207.593 L281.593,195" id="Stroke-250" stroke-width="2"></path>
                                <path d="M226,179 L228,179" id="Stroke-251" stroke-width="2"></path>
                                <path d="M235,179 L237,179" id="Stroke-252" stroke-width="2"></path>
                                <path d="M221,191 L223,191" id="Stroke-253" stroke-width="2"></path>
                                <path d="M231,191 L233,191" id="Stroke-254" stroke-width="2"></path>
                                <path d="M239,191 L241,191" id="Stroke-255" stroke-width="2"></path>
                                <path d="M216,203 L218,203" id="Stroke-256" stroke-width="2"></path>
                                <path d="M226,203 L228,203" id="Stroke-257" stroke-width="2"></path>
                                <path d="M236,203 L238,203" id="Stroke-258" stroke-width="2"></path>
                                <path d="M221,215 L223,215" id="Stroke-259" stroke-width="2"></path>
                                <path d="M230,215 L232,215" id="Stroke-260" stroke-width="2"></path>
                                <path d="M111,239 L187,239" id="Stroke-261" stroke-width="2"></path>
                                <polyline id="Stroke-262" stroke-width="2" points="119 238 119 207 132 207 132 238"></polyline>
                                <polyline id="Stroke-263" stroke-width="2" points="142 238 142 175 155 175 155 238"></polyline>
                                <polyline id="Stroke-264" stroke-width="2" points="165 238 165 154 178 154 178 238"></polyline>
                                <path d="M128,120 L178,120" id="Stroke-265" stroke-width="2"></path>
                                <path d="M138,126 L168,126" id="Stroke-266" stroke-width="2"></path>
                                <path d="M121,202 L130,202" id="Stroke-267" stroke-width="2"></path>
                                <path d="M135,246 L144,246" id="Stroke-268" stroke-width="2"></path>
                                <path d="M147,246 L156,246" id="Stroke-269" stroke-width="2"></path>
                                <path d="M159,246 L168,246" id="Stroke-270" stroke-width="2"></path>
                                <path d="M144,170 L153,170" id="Stroke-271" stroke-width="2"></path>
                                <path d="M167,149 L176,149" id="Stroke-272" stroke-width="2"></path>
                                <path d="M302,65.778 L332.944,65.778 C341.382,65.778 350.5,58.633 350.5,50.195 C350.5,41.757 343.66,34.778 335.222,34.778 L334,34.778 L334,30.667 C334,13.699 320.329,0 303.361,0 C286.394,0 272.722,13.778 272.722,30.778 L259.556,30.778 C249.86,30.778 242,38.582 242,48.278 C242,57.974 249.86,65.778 259.556,65.778 L277,65.778" id="Stroke-273" stroke-width="2"></path>
                                <path d="M243.998,40.551 C240.047,35.899 234.094,33 227.384,33 C215.362,33 205.768,42.207 205.768,55.207 L196.439,55.207 C189.569,55.207 184,60.337 184,67.207 C184,74.077 189.569,79.207 196.439,79.207 L207,79.207" id="Stroke-274" stroke-width="2"></path>
                                <path d="M228,78.996 L248.438,78.996 C254.417,78.996 260.877,73.916 260.877,67.937 C260.877,67.277 260.818,66.63 260.705,66" id="Stroke-275" stroke-width="2"></path>
                                <path d="M290,71 L290,52" id="Stroke-276" stroke-width="2"></path>
                                <polyline id="Stroke-277" stroke-width="2" points="284 65 290 71 296 65"></polyline>
                                <path d="M271,91 L271,72" id="Stroke-278" stroke-width="2"></path>
                                <polyline id="Stroke-279" stroke-width="2" points="265 85 271 91 277 85"></polyline>
                                <path d="M217,90 L217,71" id="Stroke-280" stroke-width="2"></path>
                                <polyline id="Stroke-281" stroke-width="2" points="211 84 217 90 223 84"></polyline>
                            </g>
                        </g>
                    </g>
                </g>
            </g>
        </g>
    </g>
</svg>