<?xml version="1.0" encoding="UTF-8"?>
<svg width="375px" height="290px" viewBox="0 0 375 290" version="1.1" xmlns="http://www.w3.org/2000/svg" xmlns:xlink="http://www.w3.org/1999/xlink">
    <!-- Generator: Sketch 42 (36781) - http://www.bohemiancoding.com/sketch -->
    <title>flexible_illustr</title>
    <desc>Created with Sketch.</desc>
    <defs></defs>
    <g id="Page-1" stroke="none" stroke-width="1" fill="none" fill-rule="evenodd">
        <g id="desktop-1" transform="translate(-116.000000, -3545.000000)">
            <g id="Our-Solutions" transform="translate(-10.000000, 1426.000000)">
                <g id="5" transform="translate(127.000000, 2120.000000)">
                    <g id="flexible_illustr">
                        <ellipse id="Oval-5" fill="#1CBC79" cx="49" cy="94" rx="42" ry="42"></ellipse>
                        <circle id="Oval-5" fill="#1CBC79" cx="240" cy="50" r="17"></circle>
                        <ellipse id="Oval-5" fill="#1CBC79" cx="323" cy="184" rx="27" ry="27"></ellipse>
                        <g id="Page-1" stroke="#485F76">
                            <path d="M240,168 L251,168 C252.105,168 253,168.895 253,170 L253,179 L130,179 L130,179" id="Stroke-1" stroke-width="2"></path>
                            <path d="M122,168 L117,168" id="Stroke-3" stroke-width="2"></path>
                            <polyline id="Stroke-5" stroke-width="2" points="167 168 170 173 199 173 202 168"></polyline>
                            <path d="M187,99 L179,99" id="Stroke-7" stroke-width="2"></path>
                            <path d="M123,111 L123,98 C123,96.343 124.343,95 126,95 L237,95 C238.657,95 240,96.343 240,98 L240,133" id="Stroke-9" stroke-width="2"></path>
                            <polyline id="Stroke-11" stroke-width="2" points="240 145 240 168 123 168 123 120"></polyline>
                            <polygon id="Stroke-13" stroke-width="2" points="131 161 232 161 232 103 131 103"></polygon>
                            <path d="M194,117 C194,120.866 190.866,124 187,124 C183.134,124 180,120.866 180,117 C180,113.134 183.134,110 187,110 C190.866,110 194,113.134 194,117 Z" id="Stroke-15" stroke-width="2"></path>
                            <path d="M194,146 C194,149.866 190.866,153 187,153 C183.134,153 180,149.866 180,146 C180,142.134 183.134,139 187,139 C190.866,139 194,142.134 194,146 Z" id="Stroke-16" stroke-width="2"></path>
                            <path d="M172,131 C172,134.866 168.866,138 165,138 C161.134,138 158,134.866 158,131 C158,127.134 161.134,124 165,124 C168.866,124 172,127.134 172,131 Z" id="Stroke-17" stroke-width="2"></path>
                            <path d="M170.1429,126.9483 L181.0389,119.7763" id="Stroke-18" stroke-width="2"></path>
                            <path d="M182.0389,142.9483 L171.1429,135.7763" id="Stroke-19" stroke-width="2"></path>
                            <path d="M223,150.5002 C223,152.4332 221.433,154.0002 219.5,154.0002 C217.567,154.0002 216,152.4332 216,150.5002 C216,148.5672 217.567,147.0002 219.5,147.0002 C221.433,147.0002 223,148.5672 223,150.5002 Z" id="Stroke-20" stroke-width="2"></path>
                            <path d="M246,138.5002 C246,141.5382 243.538,144.0002 240.5,144.0002 C237.462,144.0002 235,141.5382 235,138.5002 C235,135.4622 237.462,133.0002 240.5,133.0002 C243.538,133.0002 246,135.4622 246,138.5002 Z" id="Stroke-21" stroke-width="2"></path>
                            <path d="M296,121 C296,132.046 287.046,141 276,141 C264.954,141 256,132.046 256,121 C256,109.954 264.954,101 276,101 C287.046,101 296,109.954 296,121 Z" id="Stroke-22" stroke-width="2"></path>
                            <path d="M137,127.5 C137,129.433 138.567,131 140.5,131 C142.433,131 144,129.433 144,127.5 C144,125.567 142.433,124 140.5,124 C138.567,124 137,125.567 137,127.5 Z" id="Stroke-23" stroke-width="2"></path>
                            <path d="M114,115.5 C114,118.538 116.462,121 119.5,121 C122.538,121 125,118.538 125,115.5 C125,112.462 122.538,110 119.5,110 C116.462,110 114,112.462 114,115.5 Z" id="Stroke-24" stroke-width="2"></path>
                            <path d="M63.5,97.376 C63.5,108.422 72.454,117.376 83.5,117.376 C94.546,117.376 103.5,108.422 103.5,97.376 C103.5,86.33 94.546,77.376 83.5,77.376 C72.454,77.376 63.5,86.33 63.5,97.376 Z" id="Stroke-25" stroke-width="2"></path>
                            <path d="M55,146 L55,165" id="Stroke-85" stroke-width="2" stroke-linecap="round"></path>
                            <polyline id="Stroke-86" stroke-width="2" stroke-linecap="round" stroke-linejoin="round" points="49 152 55 146 61 152"></polyline>
                            <path d="M225,248 L225,267" id="Stroke-85" stroke-width="2" stroke-linecap="round"></path>
                            <polyline id="Stroke-86" stroke-width="2" stroke-linecap="round" stroke-linejoin="round" points="219 254 225 248 231 254"></polyline>
                            <path d="M262,189 L262,208" id="Stroke-85" stroke-width="2" stroke-linecap="round"></path>
                            <polyline id="Stroke-86" stroke-width="2" stroke-linecap="round" stroke-linejoin="round" points="256 195 262 189 268 195"></polyline>
                            <path d="M101,209 L101,228" id="Stroke-85" stroke-width="2" stroke-linecap="round"></path>
                            <polyline id="Stroke-86" stroke-width="2" stroke-linecap="round" stroke-linejoin="round" points="95 215 101 209 107 215"></polyline>
                            <polyline id="Stroke-96" stroke-width="2" stroke-linecap="round" stroke-linejoin="round" points="66.8946787 86.7684036 71 88 71 101 63.9214574 98.8764372"></polyline>
                            <g id="Group-18" transform="translate(76.000000, 91.500000) scale(-1, 1) translate(-76.000000, -91.500000) translate(71.000000, 82.000000)" stroke-width="2" stroke-linecap="round" stroke-linejoin="round">
                                <polygon id="Stroke-96" points="10 19 0 16 0 3 10 6"></polygon>
                                <path d="M0,3 L10,0" id="Stroke-98"></path>
                            </g>
                            <path d="M294,62 L267,62 C257.059,62 249,53.941 249,44 C249,34.059 257.059,26 267,26 C274.066,26 280.182,30.072 283,36" id="Stroke-26" stroke-width="2" stroke-linecap="round" stroke-linejoin="round"></path>
                            <path d="M326,37 C328.566,33.931 332.557,32 337,32 C345.284,32 352,38.716 352,47 C352,55.284 345.284,62 337,62 L315,62" id="Stroke-27" stroke-width="2" stroke-linecap="round" stroke-linejoin="round"></path>
                            <path d="M275.6027,27.5002 C276.8727,12.1012 289.7737,0.0002 305.4997,0.0002 C322.0687,0.0002 335.4997,13.4312 335.4997,30.0002 C335.4997,30.5032 335.4877,31.0032 335.4627,31.5002" id="Stroke-28" stroke-width="2" stroke-linecap="round" stroke-linejoin="round"></path>
                            <path d="M215,262 L180,262 C172.82,262 167,256.18 167,249 C167,241.82 172.82,236 180,236 C182.163,236 184.203,236.528 186,237" id="Stroke-29" stroke-width="2" stroke-linecap="round" stroke-linejoin="round"></path>
                            <path d="M275,247 C276.738,244.436 279.452,243 283,243 C287.747,243 292,247.254 292,253 C292,257.747 287.747,262 283,262 L235,262" id="Stroke-30" stroke-width="2" stroke-linecap="round" stroke-linejoin="round"></path>
                            <path d="M182.849,235.4994 C182.621,234.5354 182.5,233.5294 182.5,232.4944 C182.5,225.3154 188.32,219.4944 195.5,219.4944 C200.131,219.4944 204.197,221.9164 206.499,225.5624" id="Stroke-31" stroke-width="2" stroke-linecap="round" stroke-linejoin="round"></path>
                            <path d="M249.4998,233.12 C252.2968,227.985 257.7408,224.5 263.9998,224.5 C273.1128,224.5 280.4998,231.888 280.4998,241 C280.4998,241.506 280.4768,242.006 280.4328,242.5" id="Stroke-32" stroke-width="2" stroke-linecap="round" stroke-linejoin="round"></path>
                            <path d="M238.819977,202.468486 C247.536623,206.946266 253.5004,216.026742 253.5004,226.5006 C253.5004,226.8356 253.4944,227.1686 253.4814,227.5006" id="Stroke-33" stroke-width="2" stroke-linecap="round" stroke-linejoin="round"></path>
                            <path d="M200.4162,219.5002 C203.0772,209.5582 211.2722,201.8782 221.4972,199.9632" id="Stroke-34" stroke-width="2" stroke-linecap="round" stroke-linejoin="round"></path>
                            <path d="M126,187 C128.89,184.507 132.654,183 136.771,183 C145.883,183 153.271,190.388 153.271,199.5 C153.271,199.668 153.268,199.835 153.263,200.001" id="Stroke-35" stroke-width="2" stroke-linecap="round" stroke-linejoin="round"></path>
                            <path d="M91,221 L67,221 C57.387,221 50,213.613 50,205 C50,195.387 57.387,188 67,188 C72.502,188 77.756,191.205 81,196" id="Stroke-36" stroke-width="2" stroke-linecap="round" stroke-linejoin="round"></path>
                            <path d="M148,205 C149.824,202.571 152.729,201 156,201 C161.523,201 166,205.477 166,211 C166,216.523 161.523,221 156,221 L111,221" id="Stroke-37" stroke-width="2" stroke-linecap="round" stroke-linejoin="round"></path>
                            <path d="M76,190.999 C77.4999108,176.393 89.8247441,165 104.806876,165 C117.292485,165 127.932665,172.913 132,184.004" id="Stroke-38" stroke-width="2" stroke-linecap="round" stroke-linejoin="round"></path>
                            <path d="M45,158 L8,158 C3.62224719,158 0,154.418 0,150 C0,145.582 3.62224719,142 8,142 C11.0851685,142 13.7002247,143.61 15,146" id="Stroke-39" stroke-width="2" stroke-linecap="round" stroke-linejoin="round"></path>
                            <path d="M84,133 C86.102,130.521 89.623,129 93,129 C101.508,129 108,135.492 108,144 C108,151.508 101.508,158 93,158 L65,158" id="Stroke-40" stroke-width="2" stroke-linecap="round" stroke-linejoin="round"></path>
                            <path d="M11.5,141.5002 C11.5,131.5592 19.559,123.5002 29.5,123.5002 C31.604,123.5002 33.624,123.8612 35.501,124.5252" id="Stroke-41" stroke-width="2" stroke-linecap="round" stroke-linejoin="round"></path>
                            <path d="M89.5008,117.2599 C91.2088,120.6729 92.2528,124.4759 92.4608,128.4999" id="Stroke-42" stroke-width="2" stroke-linecap="round" stroke-linejoin="round"></path>
                            <path d="M35.5,130.0002 C35.5,114.4292 47.987,101.7742 63.494,101.5042" id="Stroke-43" stroke-width="2" stroke-linecap="round" stroke-linejoin="round"></path>
                            <path d="M117,62 L93,62 C86.925,62 82,57.075 82,51 C82,44.925 86.925,40 93,40 C97.275,40 100.98,42.438 103,46" id="Stroke-44" stroke-width="2" stroke-linecap="round" stroke-linejoin="round"></path>
                            <path d="M141,33 C144.604,28.167 150.182,25 157,25 C166.717,25 175,33.283 175,44 C175,53.717 166.717,62 157,62 L138,62" id="Stroke-45" stroke-width="2" stroke-linecap="round" stroke-linejoin="round"></path>
                            <path d="M96,40 C94.7143491,36.9184552 94,33.5360524 94,30 C94,15.6345059 105.679407,4 120,4 C133.474811,4 144.508094,14.0492545 146,27" id="Stroke-46" stroke-width="2" stroke-linecap="round" stroke-linejoin="round"></path>
                            <path d="M190.5,81.5002 C190.5,77.6342 193.634,74.5002 197.5,74.5002 C200.292,74.5002 202.702,76.1342 203.826,78.4992" id="Stroke-47" stroke-width="2" stroke-linecap="round" stroke-linejoin="round"></path>
                            <path d="M201.5196,75.5 C202.0446,62.157 213.0276,51.5 226.4996,51.5 C238.5946,51.5 248.6826,60.088 250.9996,71.499" id="Stroke-48" stroke-width="2" stroke-linecap="round" stroke-linejoin="round"></path>
                            <path d="M179.4385,94.5062 C178.8375,93.3002 178.4995,91.9392 178.4995,90.5002 C178.4995,85.5292 182.5295,81.5002 187.4995,81.5002 C189.6455,81.5002 191.6155,82.2512 193.1615,83.5042" id="Stroke-49" stroke-width="2" stroke-linecap="round" stroke-linejoin="round"></path>
                            <path d="M245,77 C247.841784,73.943 251.693169,72 256,72 C263.731373,72 270,78.268 270,86 C270,93.732 263.731373,100 256,100 L240,100" id="Stroke-50" stroke-width="2" stroke-linecap="round" stroke-linejoin="round"></path>
                            <polyline id="Stroke-51" stroke-width="2" points="80 228 80 250 70 260"></polyline>
                            <polyline id="Stroke-52" stroke-width="2" points="72 234 72 243 48 267 48 281"></polyline>
                            <path d="M58.5,243.5002 L38,264.0002" id="Stroke-53" stroke-width="2"></path>
                            <path d="M51,284 C51,285.657 49.657,287 48,287 C46.343,287 45,285.657 45,284 C45,282.343 46.343,281 48,281 C49.657,281 51,282.343 51,284 Z" id="Stroke-54" stroke-width="2.374"></path>
                            <path d="M71,262 C71,263.657 69.657,265 68,265 C66.343,265 65,263.657 65,262 C65,260.343 66.343,259 68,259 C69.657,259 71,260.343 71,262 Z" id="Stroke-55" stroke-width="2.374"></path>
                            <path d="M346,229 C346,230.657 344.657,232 343,232 C341.343,232 340,230.657 340,229 C340,227.343 341.343,226 343,226 C344.657,226 346,227.343 346,229 Z" id="Stroke-56" stroke-width="2.374"></path>
                            <path d="M372,259 C372,260.657 370.657,262 369,262 C367.343,262 366,260.657 366,259 C366,257.343 367.343,256 369,256 C370.657,256 372,257.343 372,259 Z" id="Stroke-57" stroke-width="2.374"></path>
                            <path d="M362,219 C362,220.657 360.657,222 359,222 C357.343,222 356,220.657 356,219 C356,217.343 357.343,216 359,216 C360.657,216 362,217.343 362,219 Z" id="Stroke-58" stroke-width="2.374"></path>
                            <path d="M353,115 C353,116.657 351.657,118 350,118 C348.343,118 347,116.657 347,115 C347,113.343 348.343,112 350,112 C351.657,112 353,113.343 353,115 Z" id="Stroke-59" stroke-width="2.374"></path>
                            <path d="M333,109 C333,110.657 331.657,112 330,112 C328.343,112 327,110.657 327,109 C327,107.343 328.343,106 330,106 C331.657,106 333,107.343 333,109 Z" id="Stroke-60" stroke-width="2.374"></path>
                            <path d="M310,95 C310,96.657 308.657,98 307,98 C305.343,98 304,96.657 304,95 C304,93.343 305.343,92 307,92 C308.657,92 310,93.343 310,95 Z" id="Stroke-61" stroke-width="2.374"></path>
                            <path d="M39,265 C39,266.657 37.657,268 36,268 C34.343,268 33,266.657 33,265 C33,263.343 34.343,262 36,262 C37.657,262 39,263.343 39,265 Z" id="Stroke-62" stroke-width="2.374"></path>
                            <path d="M322,219 L356,219" id="Stroke-63" stroke-width="2"></path>
                            <polyline id="Stroke-64" stroke-width="2" points="295 212 312.5 229 340 229"></polyline>
                            <polyline id="Stroke-65" stroke-width="2" points="322 238 347.714286 238 367 257"></polyline>
                            <path d="M252,202 L229,202 C221.596,202 216,196.279899 216,189 C216,185.042087 217.964,181.330563 221,179" id="Stroke-66" stroke-width="2" stroke-linecap="round" stroke-linejoin="round"></path>
                            <path d="M287,182 C289.117,176.812 294.363,173 300,173 C308.508,173 315,179.492 315,188 C315,195.508 308.508,202 300,202 L272,202" id="Stroke-67" stroke-width="2" stroke-linecap="round" stroke-linejoin="round"></path>
                            <path d="M239.7871,158.4999 C245.1511,152.9509 252.6721,149.4999 261.0001,149.4999 C276.4501,149.4999 289.1261,161.3779 290.3951,176.4999" id="Stroke-68" stroke-width="2" stroke-linecap="round" stroke-linejoin="round"></path>
                            <path d="M295,153 C297.259633,142.702 306.352604,135 317,135 C327.480126,135 336.151457,141.851 339,151" id="Stroke-69" stroke-width="2" stroke-linecap="round" stroke-linejoin="round"></path>
                            <path d="M335,157 C337.294,152.815 341.818,150 347,150 C354.732,150 361,156.268 361,164 C361,171.732 354.732,178 347,178 L313,178" id="Stroke-70" stroke-width="2" stroke-linecap="round" stroke-linejoin="round"></path>
                            <path d="M282,158 C284.335789,155.54 287.672192,154 291,154 C293.394516,154 295.30264,154.457 297,155" id="Stroke-71" stroke-width="2" stroke-linecap="round" stroke-linejoin="round"></path>
                            <polyline id="Stroke-72" stroke-width="2" stroke-linecap="round" stroke-linejoin="round" points="316 71 316 85.6511628 310 92"></polyline>
                            <polyline id="Stroke-73" stroke-width="2" stroke-linecap="round" stroke-linejoin="round" points="323 75 323 101.571429 327 106"></polyline>
                            <path d="M332,97 L347.556349,112.556349" id="Stroke-74" stroke-width="2" stroke-linecap="round" stroke-linejoin="round"></path>
                            <path d="M304,49 L304,68" id="Stroke-75" stroke-width="2" stroke-linecap="round"></path>
                            <polyline id="Stroke-76" stroke-width="2" stroke-linecap="round" stroke-linejoin="round" points="298 55 304 49 310 55"></polyline>
                            <path d="M127,50 L127,69" id="Stroke-85" stroke-width="2" stroke-linecap="round"></path>
                            <polyline id="Stroke-86" stroke-width="2" stroke-linecap="round" stroke-linejoin="round" points="121 56 127 50 133 56"></polyline>
                            <polyline id="Stroke-87" stroke-width="2" points="287 137 266 132 266 110 288 105"></polyline>
                            <path d="M267,121 L296,121" id="Stroke-88" stroke-width="2"></path>
                            <path d="M279,106 L279,134" id="Stroke-89" stroke-width="2"></path>
                            <polyline id="Stroke-90" stroke-width="2" stroke-linecap="round" stroke-linejoin="round" points="73 114 73 105 83 108 83 117"></polyline>
                            <polyline id="Stroke-91" stroke-width="2" stroke-linecap="round" stroke-linejoin="round" points="93 115 93 105 83 108"></polyline>
                            <polyline id="Stroke-92" stroke-width="2" stroke-linecap="round" stroke-linejoin="round" points="73 105 83 102 93 105"></polyline>
                            <polygon id="Stroke-96" stroke-width="2" stroke-linecap="round" stroke-linejoin="round" points="95 101 85 98 85 85 95 88"></polygon>
                            <polyline id="Stroke-96" stroke-width="2" stroke-linecap="round" stroke-linejoin="round" transform="translate(99.054623, 93.712273) scale(-1, 1) translate(-99.054623, -93.712273) " points="97.8577341 86.4245465 103.109246 88 103.109246 101 95 98.5672262"></polyline>
                            <path d="M85,85 L96,82" id="Stroke-98" stroke-width="2" stroke-linecap="round" stroke-linejoin="round"></path>
                        </g>
                    </g>
                </g>
            </g>
        </g>
    </g>
</svg>