<svg width="89px" height="89px" viewBox="0 0 89 89" version="1.1" xmlns="http://www.w3.org/2000/svg" xmlns:xlink="http://www.w3.org/1999/xlink">
    <g stroke="none" stroke-width="1" fill="none" fill-rule="evenodd">
        <g transform="translate(-446.000000, -968.000000)" stroke="#485F76" stroke-width="2">
            <g transform="translate(67.000000, 817.000000)">
                <g transform="translate(294.000000, 123.000000)">
                    <g transform="translate(86.000000, 29.000000)">
                        <path d="M87,43.5 C87,67.524 67.524,87 43.5,87 C19.476,87 0,67.524 0,43.5 C0,19.476 19.476,0 43.5,0 C67.524,0 87,19.476 87,43.5 Z"></path>
                        <path d="M13.188,44.362 C13.064,43.235 13,42.09 13,40.93 C13,23.848 26.848,10 43.93,10 C61.012,10 74.86,23.848 74.86,40.93 C74.86,42.003 74.806,43.063 74.699,44.108" stroke-linecap="round"></path>
                        <path d="M43,6 L43,10" stroke-linecap="round"></path>
                        <path d="M35,7 L36.053,10.931" stroke-linecap="round"></path>
                        <path d="M26,10 L28.035,13.525" stroke-linecap="round"></path>
                        <path d="M19,16 L21.828,18.828" stroke-linecap="round"></path>
                        <path d="M13,23 L33.761,34.986" stroke-linecap="round"></path>
                        <path d="M10,32 L13.931,33.053" stroke-linecap="round"></path>
                        <path d="M9,42 L13,42" stroke-linecap="round"></path>
                        <path d="M79,42 L75,42" stroke-linecap="round"></path>
                        <path d="M77.931,32 L74,33.053" stroke-linecap="round"></path>
                        <path d="M74.544,23 L54,34.861" stroke-linecap="round"></path>
                        <path d="M68.828,16 L66,18.828" stroke-linecap="round"></path>
                        <path d="M53.053,7 L52,10.931" stroke-linecap="round"></path>
                        <path d="M61.035,10 L59,13.525" stroke-linecap="round"></path>
                        <path d="M61.035,10 L59,13.525" stroke-linecap="round"></path>
                        <path d="M43.581,51.163 C37.737,51.163 33,46.426 33,40.582 C33,34.738 37.737,30 43.581,30 C49.425,30 54.162,34.738 54.162,40.582 C54.162,46.426 49.425,51.163 43.581,51.163 Z" stroke-linecap="round"></path>
                        <path d="M53.356798,84.6389532 C49.106798,75.9159532 50.604798,65.0979532 57.850798,57.8509532 C65.284798,50.4169532 76.478798,49.0329532 85.312798,53.6989532" stroke-linecap="round"></path>
                        <path d="M81.88,49 L81,52.284" stroke-linecap="round"></path>
                        <path d="M68,49 L68.903,52.372" stroke-linecap="round"></path>
                        <path d="M56,56 L69.435,69.435" stroke-linecap="round"></path>
                        <path d="M49,68 L52.478,68.932" stroke-linecap="round"></path>
                        <path d="M49,81.822 L52.069,81" stroke-linecap="round"></path>
                        <path d="M68.4845166,79.6474869 C66.2515166,76.5214869 66.5375166,72.1504869 69.3435166,69.3434869 C72.0785166,66.6094869 76.2995166,66.2674869 79.4055166,68.3184869" stroke-linecap="round"></path>
                        <path d="M68.3671189,79.4779883 C66.2621189,76.3649883 66.5881189,72.0999883 69.3441189,69.3439883 C72.0781189,66.6089883 76.2991189,66.2679883 79.4051189,68.3179883" stroke-linecap="round"></path>
                        <path d="M3,53.7893778 C11.86,49.0153778 23.149,50.3693778 30.631,57.8513778 C38.016,65.2363778 39.43,76.3313778 34.874,85.1373778" stroke-linecap="round"></path>
                        <path d="M40.284,81.88 L37,81" stroke-linecap="round"></path>
                        <path d="M40.372,68 L37,68.903" stroke-linecap="round"></path>
                        <path d="M32.435,56 L19,69.435" stroke-linecap="round"></path>
                        <path d="M20.932,49 L20,52.478" stroke-linecap="round"></path>
                        <path d="M7,49 L7.873,52.256" stroke-linecap="round"></path>
                        <path d="M9,68.5994575 C12.135,66.2424575 16.607,66.4904575 19.461,69.3434575 C22.305,72.1884575 22.56,76.6414575 20.226,79.7754575" stroke-linecap="round"></path>
                        <path d="M9,68.4669318 C12.124,66.2529318 16.48,66.5449318 19.279,69.3439318 C22.013,72.0779318 22.355,76.2989318 20.304,79.4049318" stroke-linecap="round"></path>
                    </g>
                </g>
            </g>
        </g>
    </g>
</svg>