<svg width="89px" height="89px" viewBox="0 0 89 89" version="1.1" xmlns="http://www.w3.org/2000/svg" xmlns:xlink="http://www.w3.org/1999/xlink">
    <g stroke="none" stroke-width="1" fill="none" fill-rule="evenodd" stroke-linecap="round" stroke-linejoin="round">
        <g transform="translate(-738.000000, -968.000000)" stroke="#485F76" stroke-width="2">
            <g transform="translate(67.000000, 817.000000)">
                <g transform="translate(586.000000, 123.000000)">
                    <g transform="translate(86.000000, 29.000000)">
                        <g transform="translate(6.000000, 36.000000)">
                            <path d="M31,21.826 L31,5 C31,3.896 30.105,3 29,3 L2,3 C0.895,3 0,3.896 0,5 L0,16 C0,17.105 0.895,18 2,18 L24,18 L29.349,22.585 C29.998,23.141 31,22.68 31,21.826 Z"></path>
                            <path d="M7,8 L25,8"></path>
                            <path d="M7,13 L19,13"></path>
                            <path d="M77,28.172 L77,31 C77,32.105 76.105,33 75,33 L53,33 L47.651,37.585 C47.002,38.141 46,37.68 46,36.826 L46,20 C46,18.896 46.895,18 48,18 L75,18 C76.105,18 77,18.896 77,20 L77,28.172"></path>
                            <path d="M71,23 L53,23"></path>
                            <path d="M65,28 L53,28"></path>
                            <path d="M23,28 L34,28"></path>
                            <path d="M42,43 L53,43"></path>
                            <path d="M39,4 L51,4"></path>
                            <path d="M39,0 L47,0"></path>
                        </g>
                        <g>
                            <path d="M78.842,68.867 C70.946,79.848 58.058,87 43.5,87 C19.476,87 0,67.524 0,43.5 C0,19.475 19.476,0 43.5,0 C67.525,0 87,19.475 87,43.5 C87,50.315 85.433,56.764 82.639,62.507"></path>
                            <path d="M71,70 L71,76.932"></path>
                            <path d="M18,38.096 L18,23 C18,21.343 19.343,20 21,20 L68,20 C69.657,20 71,21.343 71,23 L71,54.068"></path>
                            <path d="M18,77.904 L18,54"></path>
                            <path d="M66,70 L66,80.932"></path>
                            <polyline points="23 38.178 23 28 66 28 66 54.068"></polyline>
                            <path d="M23,81.822 L23,55"></path>
                            <path d="M41,24 L48,24"></path>
                        </g>
                    </g>
                </g>
            </g>
        </g>
    </g>
</svg>