<svg width="89px" height="89px" viewBox="0 0 89 89" version="1.1" xmlns="http://www.w3.org/2000/svg" xmlns:xlink="http://www.w3.org/1999/xlink">
    <g stroke="none" stroke-width="1" fill="none" fill-rule="evenodd" stroke-linecap="round" stroke-linejoin="round">
        <g id="desktop-1" transform="translate(-153.000000, -968.000000)" stroke="#485F76" stroke-width="2">
            <g id="Problems-we-solve" transform="translate(67.000000, 817.000000)">
                <g id="1" transform="translate(0.000000, 123.000000)">
                    <g id="ps_icon_1" transform="translate(87.000000, 29.000000)">
                        <path d="M87,43.5 C87,67.524 67.524,87 43.5,87 C19.476,87 0,67.524 0,43.5 C0,19.476 19.476,0 43.5,0 C67.524,0 87,19.476 87,43.5 Z" id="Stroke-1"></path>
                        <path d="M9,69 L9,33 C9,31.895 9.895,31 11,31 L25,31 C26.105,31 27,31.895 27,33 L27,36 L77,36 C78.105,36 79,36.895 79,38 L79,69" id="Stroke-3"></path>
                        <path d="M17,30 L17,27 C17,25.895 17.895,25 19,25 L73,25 C74.105,25 75,25.895 75,27 L75,36" id="Stroke-5"></path>
                        <path d="M48.915,57.0671349 C49.278,59.0751349 48.441,60.9181349 47,62.0001349 L47,66.0011349 C47,67.6571349 45.657,69.0001349 44,69.0001349 L44,69.0001349 C42.343,69.0001349 41,67.6571349 41.001,65.9991349 L41.002,62.0021349 C39.786,61.0901349 39,59.6371349 39,58.0001349 C39,54.8871349 41.844,52.4391349 45.075,53.1121349 C47.015,53.5171349 48.563,55.1171349 48.915,57.0671349 Z" id="Stroke-7"></path>
                        <path d="M43.963,76.977 C43.963,76.977 30,74.167 30,63 L30,45 C30,45 32.99,47 37,47 C40.966,47 44.001,45 44.001,45 L45,45 C45,45 48.015,47 52,47 C55.942,47 58.928,45 58.928,45 L58.928,63 C58.928,75.084 43.963,76.977 43.963,76.977 Z" id="Stroke-9"></path>
                    </g>
                </g>
            </g>
        </g>
    </g>
</svg>