<svg width="89px" height="89px" viewBox="0 0 89 89" version="1.1" xmlns="http://www.w3.org/2000/svg" xmlns:xlink="http://www.w3.org/1999/xlink">
    <g stroke="none" stroke-width="1" fill="none" fill-rule="evenodd" stroke-linecap="round">
        <g transform="translate(-1032.000000, -968.000000)" stroke="#485F76" stroke-width="2">
            <g transform="translate(67.000000, 817.000000)">
                <g transform="translate(880.000000, 123.000000)">
                    <g transform="translate(86.000000, 29.000000)">
                        <path d="M87,43.5 C87,67.524 67.524,87 43.5,87 C19.476,87 0,67.524 0,43.5 C0,19.476 19.476,0 43.5,0 C67.524,0 87,19.476 87,43.5 Z"></path>
                        <path d="M73,40 C73.066,40.815 73.1,41.639 73.1,42.472 L73.1,58.567"></path>
                        <path d="M27,17.955 C31.738,14.823 37.417,13 43.521,13 C56.548,13 67.636,21.303 71.781,32.906"></path>
                        <path d="M14,60.402 L14,42.755 C14,35.189 16.801,28.277 21.423,23"></path>
                        <path d="M62,29 C65.007,32.891 66.821,37.719 66.821,42.865 L66.821,67.008"></path>
                        <path d="M21,47.37 L21,43 C21,30.573 31.574,20 44,20 C48.514,20 52.784,21.395 56.391,23.768"></path>
                        <path d="M21,68.249 L21,53"></path>
                        <path d="M59,53 L59,75.011"></path>
                        <path d="M37,29.447 C38.95,28.519 41.132,28 43.436,28 C51.72,28 58.436,34.716 58.436,43 L58.436,47.37"></path>
                        <path d="M29,74.318 L29,42.655 C29,38.977 30.323,35.609 32.52,33"></path>
                        <path d="M51,67 L51,77.239"></path>
                        <path d="M37,50.245 L37,43.5 C37,39.358 39.858,36 44,36 C48.142,36 51,39.358 51,43.5 L51,62.261"></path>
                        <path d="M37,77.255 L37,55"></path>
                        <path d="M44,76 L44,81"></path>
                        <path d="M44,51 L44,71"></path>
                        <path d="M44,44 L44,46"></path>
                    </g>
                </g>
            </g>
        </g>
    </g>
</svg>