<svg width="89" height="89" viewBox="0 0 89 89" xmlns="http://www.w3.org/2000/svg"><g stroke="#485F76" stroke-width="2" fill="none" fill-rule="evenodd" stroke-linecap="round"><path d="M88 44.5C88 68.524 68.524 88 44.5 88S1 68.524 1 44.5 20.476 1 44.5 1 88 20.476 88 44.5z"/><path d="M74 41c.066.815.1 1.64.1 2.472v16.095M28 18.955C32.738 15.823 38.417 14 44.52 14c13.028 0 24.116 8.303 28.26 19.906M15 61.402V43.755C15 36.19 17.8 29.277 22.423 24"/><path d="M63 30c3.007 3.89 4.82 8.72 4.82 13.865v24.143M22 48.37V44c0-12.427 10.574-23 23-23 4.514 0 8.784 1.395 12.39 3.768M22 69.25V54M60 54v22.01"/><path d="M38 30.447C39.95 29.52 42.132 29 44.436 29c8.284 0 15 6.716 15 15v4.37M30 75.318V43.655c0-3.678 1.323-7.046 3.52-9.655M52 68v10.24"/><path d="M38 51.245V44.5c0-4.142 2.858-7.5 7-7.5 4.142 0 7 3.358 7 7.5v18.76M38 78.255V56M45 77v5M45 52v20M45 45v2"/></g></svg>