<svg width="89" height="89" viewBox="0 0 89 89" xmlns="http://www.w3.org/2000/svg"><g stroke="#485F76" stroke-width="2" fill="none" fill-rule="evenodd" stroke-linecap="round" stroke-linejoin="round"><path d="M38 58.826V42c0-1.104-.895-2-2-2H9c-1.105 0-2 .896-2 2v11c0 1.105.895 2 2 2h22l5.35 4.585c.648.556 1.65.095 1.65-.76zM14 45h18M14 50h12M84 65.172V68c0 1.105-.895 2-2 2H60l-5.35 4.585c-.648.556-1.65.095-1.65-.76V57c0-1.104.895-2 2-2h27c1.105 0 2 .896 2 2v8.172M78 60H60M72 65H60M30 65h11M49 80h11M46 41h12M46 37h8"/><g><path d="M79.842 69.867C71.946 80.847 59.058 88 44.5 88 20.476 88 1 68.524 1 44.5 1 20.475 20.476 1 44.5 1 68.525 1 88 20.475 88 44.5c0 6.815-1.567 13.264-4.36 19.007M72 71v6.932"/><path d="M19 39.096V24c0-1.657 1.343-3 3-3h47c1.657 0 3 1.343 3 3v31.068M19 78.904V55M67 71v10.932"/><path d="M24 39.178V29h43v26.068M24 82.822V56M42 25h7"/></g></g></svg>