<?xml version="1.0" encoding="UTF-8"?>
<svg width="579px" height="352px" viewBox="0 0 579 352" version="1.1" xmlns="http://www.w3.org/2000/svg" xmlns:xlink="http://www.w3.org/1999/xlink">
    <!-- Generator: Sketch 42 (36781) - http://www.bohemiancoding.com/sketch -->
    <title>secured_illustr</title>
    <desc>Created with Sketch.</desc>
    <defs></defs>
    <g id="Page-1" stroke="none" stroke-width="1" fill="none" fill-rule="evenodd">
        <g id="desktop-1" transform="translate(-642.000000, -2076.000000)">
            <g id="Our-Solutions" transform="translate(-10.000000, 1426.000000)">
                <g id="2" transform="translate(192.000000, 650.000000)">
                    <g id="secured_illustr" transform="translate(462.000000, 0.000000)">
                        <ellipse id="Oval-5" fill="#1CBC79" cx="139" cy="179" rx="57" ry="57"></ellipse>
                        <ellipse id="Oval-5" fill="#1CBC79" cx="464" cy="140" rx="37" ry="37"></ellipse>
                        <circle id="Oval-5" fill="#1CBC79" cx="322" cy="231" r="17"></circle>
                        <g id="Page-1" stroke="#485F76">
                            <path d="M175,195.889 L175,129 C175,125.686 177.686,123 181,123 L406,123 C409.314,123 412,125.686 412,129 L412,144" id="Stroke-1" stroke-width="2"></path>
                            <polyline id="Stroke-3" stroke-width="2" points="412 236 412 276 175 276 175 258.889"></polyline>
                            <path d="M411.5,276.05602 L430.988,276.00002 C433.202,275.99302 435,277.78602 435,280.00002 L435,296.98802 L152,296.98802 L152,280.11402 C152,277.91002 153.783,276.12102 155.988,276.11402 L175,276.05602" id="Stroke-5" stroke-width="2"></path>
                            <path d="M328,276 L323.187,283.219 C322.446,284.332 321.197,285 319.859,285 L270.141,285 C268.803,285 267.554,284.332 266.813,283.219 L262,276" id="Stroke-7" stroke-width="2"></path>
                            <path d="M289,131 L300,131" id="Stroke-9" stroke-width="2"></path>
                            <path d="M388,287 L402,287" id="Stroke-11" stroke-width="2"></path>
                            <polyline id="Stroke-13" stroke-width="2" points="190 254 190 264 397 264 397 255"></polyline>
                            <polyline id="Stroke-15" stroke-width="2" points="397 153.101 397 139 190 139.101 190 202.101"></polyline>
                            <path d="M156.85125,243.93125 C147.71625,234.79625 147.71625,219.98625 156.85125,210.85125 C165.98625,201.71625 180.79625,201.71625 189.93125,210.85125 C199.06625,219.98625 199.06625,234.79625 189.93125,243.93125 C180.79625,253.06625 165.98625,253.06625 156.85125,243.93125 Z" id="Stroke-17" stroke-width="2.374"></path>
                            <path d="M198.924,233.803 L181,229" id="Stroke-19" stroke-width="2"></path>
                            <path d="M199.348,220 L196,220.897" id="Stroke-21" stroke-width="2"></path>
                            <path d="M191.828,208 L189,210.828" id="Stroke-23" stroke-width="2"></path>
                            <path d="M179.963,201 L179,204.594" id="Stroke-25" stroke-width="2"></path>
                            <path d="M166,201 L170.802,218.923" id="Stroke-27" stroke-width="2"></path>
                            <path d="M154,208 L156.121,210.121" id="Stroke-29" stroke-width="2"></path>
                            <path d="M147,220 L150.284,220.88" id="Stroke-31" stroke-width="2"></path>
                            <path d="M147,234.048 L150.912,233" id="Stroke-33" stroke-width="2"></path>
                            <path d="M154,246.435 L167.435,233" id="Stroke-35" stroke-width="2"></path>
                            <path d="M166,253.478 L166.932,250" id="Stroke-37" stroke-width="2"></path>
                            <path d="M179.995,252.714 L179,249" id="Stroke-39" stroke-width="2"></path>
                            <path d="M192.121,246.121 L190,244" id="Stroke-41" stroke-width="2"></path>
                            <path d="M167.34375,232.66075 C164.21875,229.53575 164.21875,224.46875 167.34375,221.34375 C170.46875,218.21875 175.53575,218.21875 178.66075,221.34375 C181.78575,224.46875 181.78575,229.53575 178.66075,232.66075 C175.53575,235.78575 170.46875,235.78575 167.34375,232.66075 Z" id="Stroke-43" stroke-width="2.374"></path>
                            <path d="M167.34375,232.66075 C164.21875,229.53575 164.21875,224.46875 167.34375,221.34375 C170.46875,218.21875 175.53575,218.21875 178.66075,221.34375 C181.78575,224.46875 181.78575,229.53575 178.66075,232.66075 C175.53575,235.78575 170.46875,235.78575 167.34375,232.66075 Z" id="Stroke-45" stroke-width="2.374"></path>
                            <path d="M380,236.994 C380,230.922 384.922,226 390.994,226 C397.066,226 401.989,230.922 401.989,236.994 C401.989,243.066 397.066,247.988 390.994,247.988 C384.922,247.988 380,243.066 380,236.994 Z" id="Stroke-47" stroke-width="2.374"></path>
                            <path d="M403.598,230 L401,231.5" id="Stroke-49" stroke-width="2"></path>
                            <path d="M398.087,225 L393,233.811" id="Stroke-51" stroke-width="2"></path>
                            <path d="M391,223 L391,226" id="Stroke-53" stroke-width="2"></path>
                            <path d="M384,225 L385.5,227.598" id="Stroke-55" stroke-width="2"></path>
                            <path d="M379,230 L381.598,231.5" id="Stroke-57" stroke-width="2"></path>
                            <path d="M377,237 L387,237" id="Stroke-59" stroke-width="2"></path>
                            <path d="M379,243.5 L381.598,242" id="Stroke-61" stroke-width="2"></path>
                            <path d="M384,248.598 L385.5,246" id="Stroke-63" stroke-width="2"></path>
                            <path d="M391,251 L391,248" id="Stroke-65" stroke-width="2"></path>
                            <path d="M398.087,248.811 L393,240" id="Stroke-67" stroke-width="2"></path>
                            <path d="M403.548,243.471 L401,242" id="Stroke-69" stroke-width="2"></path>
                            <path d="M405,237 L402,237" id="Stroke-71" stroke-width="2"></path>
                            <path d="M387,236.761 C387,234.684 388.684,233 390.761,233 C392.839,233 394.522,234.684 394.522,236.761 C394.522,238.838 392.839,240.522 390.761,240.522 C388.684,240.522 387,238.838 387,236.761 Z" id="Stroke-73" stroke-width="2.374"></path>
                            <path d="M387,236.761 C387,234.684 388.684,233 390.761,233 C392.839,233 394.522,234.684 394.522,236.761 C394.522,238.838 392.839,240.522 390.761,240.522 C388.684,240.522 387,238.838 387,236.761 Z" id="Stroke-75" stroke-width="2.374"></path>
                            <path d="M403.430078,216.151191 C388.987078,200.925191 389.622078,176.873191 404.849078,162.430191 C420.075078,147.987191 444.127078,148.622191 458.570078,163.848191 C473.013078,179.075191 472.378078,203.127191 457.151078,217.570191 C441.925078,232.013191 417.873078,231.377191 403.430078,216.151191 Z" id="Stroke-77" stroke-width="2.374"></path>
                            <path d="M462.628,160 L459,163.441" id="Stroke-79" stroke-width="2"></path>
                            <path d="M453.613,153 L451,157.263" id="Stroke-81" stroke-width="2"></path>
                            <path d="M443.421,149 L442,153.794" id="Stroke-83" stroke-width="2"></path>
                            <path d="M432.132,147 L432,151.998" id="Stroke-85" stroke-width="2"></path>
                            <path d="M421,148 L428.067,177.466" id="Stroke-87" stroke-width="2"></path>
                            <path d="M411,152 L413.385,156.395" id="Stroke-89" stroke-width="2"></path>
                            <path d="M402,159 L405.441,162.628" id="Stroke-91" stroke-width="2"></path>
                            <path d="M395,167 L399.263,169.613" id="Stroke-93" stroke-width="2"></path>
                            <path d="M390,178 L394.794,179.421" id="Stroke-95" stroke-width="2"></path>
                            <path d="M388,189 L392.998,189.132" id="Stroke-97" stroke-width="2"></path>
                            <path d="M389,200.166 L393.862,199" id="Stroke-99" stroke-width="2"></path>
                            <path d="M393,210.385 L397.395,208" id="Stroke-101" stroke-width="2"></path>
                            <path d="M400,219.646 L421.766,199" id="Stroke-103" stroke-width="2"></path>
                            <path d="M409,226.263 L411.613,222" id="Stroke-105" stroke-width="2"></path>
                            <path d="M419,230.794 L420.421,226" id="Stroke-107" stroke-width="2"></path>
                            <path d="M430,232.998 L430.132,228" id="Stroke-109" stroke-width="2"></path>
                            <path d="M441.166,231.862 L440,227" id="Stroke-111" stroke-width="2"></path>
                            <path d="M451.385,227.395 L449,223" id="Stroke-113" stroke-width="2"></path>
                            <path d="M460.441,221.628 L457,218" id="Stroke-115" stroke-width="2"></path>
                            <path d="M468.263,212.613 L464,210" id="Stroke-117" stroke-width="2"></path>
                            <path d="M471.942,202.283 L444,194" id="Stroke-119" stroke-width="2"></path>
                            <path d="M473.998,191.132 L469,191" id="Stroke-121" stroke-width="2"></path>
                            <path d="M469.395,169 L465,171.385" id="Stroke-123" stroke-width="2"></path>
                            <path d="M472.862,180 L468,181.166" id="Stroke-125" stroke-width="2"></path>
                            <path d="M472.862,180 L468,181.166" id="Stroke-127" stroke-width="2"></path>
                            <path d="M421.568301,198.946301 C416.627301,193.737301 416.844301,185.509301 422.053301,180.568301 C427.262301,175.627301 435.491301,175.844301 440.432301,181.053301 C445.373301,186.262301 445.155301,194.490301 439.946301,199.431301 C434.737301,204.372301 426.509301,204.155301 421.568301,198.946301 Z" id="Stroke-129" stroke-width="2.374"></path>
                            <path d="M421.568301,198.946301 C416.627301,193.737301 416.844301,185.509301 422.053301,180.568301 C427.262301,175.627301 435.491301,175.844301 440.432301,181.053301 C445.373301,186.262301 445.155301,194.490301 439.946301,199.431301 C434.737301,204.372301 426.509301,204.155301 421.568301,198.946301 Z" id="Stroke-131" stroke-width="2.374"></path>
                            <polygon id="Stroke-133" stroke-width="2" points="310.77 185 289.557 206.213 279.657 196.314 274 201.971 289.557 217.527 316.427 190.657"></polygon>
                            <path d="M290,251.451 C290,251.451 245,245.504 245,165.451 L290,158 L335,165.451 C335.053,245.504 290,251.451 290,251.451 Z" id="Stroke-135" stroke-width="2"></path>
                            <path d="M260.591,212.736 C256.063,200.728 253,184.886 253,164" id="Stroke-137" stroke-width="2"></path>
                            <path d="M265.435,222.055 C264.595,220.462 263.781,218.778 263,217" id="Stroke-139" stroke-width="2"></path>
                            <path d="M224,176 L230.835,177.118" id="Stroke-141" stroke-width="2"></path>
                            <path d="M228,214.882 L234.835,213" id="Stroke-143" stroke-width="2"></path>
                            <path d="M245,245.882 L250.835,241" id="Stroke-145" stroke-width="2"></path>
                            <path d="M356.835,176 L350,177.118" id="Stroke-147" stroke-width="2"></path>
                            <path d="M352.835,214.882 L346,213" id="Stroke-149" stroke-width="2"></path>
                            <path d="M335.835,245.882 L330,241" id="Stroke-151" stroke-width="2"></path>
                            <polyline id="Stroke-153" stroke-width="2" points="142.624 200.479 133.816 191.67 79.67 191.67 52 164"></polyline>
                            <polyline id="Stroke-155" stroke-width="2" points="139.371 214.226 127.146 202 63 202"></polyline>
                            <path d="M85.25,180.25 L71,166" id="Stroke-157" stroke-width="2"></path>
                            <polyline id="Stroke-159" stroke-width="2" points="349 123.038 377.993 94.151 377.993 37"></polyline>
                            <polyline id="Stroke-161" stroke-width="2" points="367 122.752 389.706 99.996 389.706 45.954 408.659 27"></polyline>
                            <polyline id="Stroke-163" stroke-width="2" points="387 123.186 402.273 108.042 402.273 72"></polyline>
                            <path d="M72,164 C72,165.657 70.657,167 69,167 C67.343,167 66,165.657 66,164 C66,162.343 67.343,161 69,161 C70.657,161 72,162.343 72,164 Z" id="Stroke-165" stroke-width="2.374"></path>
                            <path d="M381,34 C381,35.657 379.657,37 378,37 C376.343,37 375,35.657 375,34 C375,32.343 376.343,31 378,31 C379.657,31 381,32.343 381,34 Z" id="Stroke-167" stroke-width="2.374"></path>
                            <path d="M405,69 C405,70.657 403.657,72 402,72 C400.343,72 399,70.657 399,69 C399,67.343 400.343,66 402,66 C403.657,66 405,67.343 405,69 Z" id="Stroke-169" stroke-width="2.374"></path>
                            <path d="M414,25 C414,26.657 412.657,28 411,28 C409.343,28 408,26.657 408,25 C408,23.343 409.343,22 411,22 C412.657,22 414,23.343 414,25 Z" id="Stroke-171" stroke-width="2.374"></path>
                            <path d="M52,162 C52,163.657 50.657,165 49,165 C47.343,165 46,163.657 46,162 C46,160.343 47.343,159 49,159 C50.657,159 52,160.343 52,162 Z" id="Stroke-173" stroke-width="2.374"></path>
                            <path d="M93,308 C93,309.657 91.657,311 90,311 C88.343,311 87,309.657 87,308 C87,306.343 88.343,305 90,305 C91.657,305 93,306.343 93,308 Z" id="Stroke-175" stroke-width="2.374"></path>
                            <path d="M541,297 C541,298.657 539.657,300 538,300 C536.343,300 535,298.657 535,297 C535,295.343 536.343,294 538,294 C539.657,294 541,295.343 541,297 Z" id="Stroke-177" stroke-width="2.374"></path>
                            <path d="M575,277 C575,278.657 573.657,280 572,280 C570.343,280 569,278.657 569,277 C569,275.343 570.343,274 572,274 C573.657,274 575,275.343 575,277 Z" id="Stroke-179" stroke-width="2.374"></path>
                            <path d="M575,324 C575,325.657 573.657,327 572,327 C570.343,327 569,325.657 569,324 C569,322.343 570.343,321 572,321 C573.657,321 575,322.343 575,324 Z" id="Stroke-181" stroke-width="2.374"></path>
                            <path d="M64,202 C64,203.657 62.657,205 61,205 C59.343,205 58,203.657 58,202 C58,200.343 59.343,199 61,199 C62.657,199 64,200.343 64,202 Z" id="Stroke-183" stroke-width="2.374"></path>
                            <polyline id="Stroke-185" stroke-width="2" points="159.025 297 73.025 297 58.025 312 22 311.975"></polyline>
                            <polyline id="Stroke-187" stroke-width="2" points="53.362 322 28.362 322 5 345.362"></polyline>
                            <path d="M156,308 L93,308" id="Stroke-189" stroke-width="2"></path>
                            <path d="M22,312 C22,313.657 20.657,315 19,315 C17.343,315 16,313.657 16,312 C16,310.343 17.343,309 19,309 C20.657,309 22,310.343 22,312 Z" id="Stroke-191" stroke-width="2.374"></path>
                            <path d="M6,347 C6,348.657 4.657,350 3,350 C1.343,350 0,348.657 0,347 C0,345.343 1.343,344 3,344 C4.657,344 6,345.343 6,347 Z" id="Stroke-193" stroke-width="2.374"></path>
                            <polyline id="Stroke-195" stroke-width="2" points="483 286 518 286 527.451 277 570 277"></polyline>
                            <path d="M484,297 L535,297" id="Stroke-197" stroke-width="2"></path>
                            <polyline id="Stroke-199" stroke-width="2" points="494 308 556 308 569.302 321.302"></polyline>
                            <path d="M507.29,297 L426,297" id="Stroke-201" stroke-width="2"></path>
                            <path d="M414,76 C472.74,113.112 511.751,178.619 511.751,253.238 C511.751,262.234 511.184,271.097 510.084,279.795" id="Stroke-203" stroke-width="2"></path>
                            <path d="M104,186.39 C131.681,103.082 210.251,43 302.853,43 C325.052,43 346.445,46.453 366.523,52.85" id="Stroke-205" stroke-width="2"></path>
                            <path d="M97.638,297.152 C94.599,282.95 93,268.215 93,253.106 C93,237.621 94.68,222.528 97.868,208" id="Stroke-207" stroke-width="2"></path>
                            <path d="M493,196 C498.734,214.572 501.822,234.306 501.822,254.761 C501.822,262.336 501.398,269.812 500.574,277.168" id="Stroke-209" stroke-width="2"></path>
                            <path d="M489,185 C489.49,186.317 489.966,187.641 490.429,188.972" id="Stroke-211" stroke-width="2"></path>
                            <path d="M418,93 C447.125,113.896 470.374,142.463 484.79,175.747" id="Stroke-213" stroke-width="2"></path>
                            <path d="M335,58 C339.58,58.758 344.108,59.673 348.576,60.738" id="Stroke-215" stroke-width="2"></path>
                            <path d="M288,56.499 C292.691,56.168 297.428,56 302.203,56 C310.164,56 318.016,56.467 325.732,57.377" id="Stroke-217" stroke-width="2"></path>
                            <path d="M149,127.419 C180.369,89.582 225.487,63.556 276.694,57" id="Stroke-219" stroke-width="2"></path>
                            <path d="M143,136.503 C143.623,135.664 144.253,134.829 144.889,134" id="Stroke-221" stroke-width="2"></path>
                            <path d="M117,182.097 C122.855,167.094 130.478,152.976 139.615,140" id="Stroke-223" stroke-width="2"></path>
                            <path d="M108.404,296.302 C105.519,282.818 104,268.826 104,254.48 C104,239.189 105.725,224.301 108.992,210" id="Stroke-225" stroke-width="2"></path>
                            <path d="M301,0 L301,22" id="Stroke-227" stroke-width="2"></path>
                            <polyline id="Stroke-229" stroke-width="2" points="295 16 301 22 307 16"></polyline>
                            <path d="M140,59 L154.141,75.853" id="Stroke-231" stroke-width="2"></path>
                            <polyline id="Stroke-233" stroke-width="2" points="146 75.713 154.453 76.453 155.193 68"></polyline>
                            <path d="M549.666,206 L528,209.82" id="Stroke-235" stroke-width="2"></path>
                            <polyline id="Stroke-237" stroke-width="2" points="532.867 203 528 209.951 534.951 214.818"></polyline>
                            <path d="M463.141,58 L449,74.853" id="Stroke-239" stroke-width="2"></path>
                            <polyline id="Stroke-241" stroke-width="2" points="448 66 448.74 74.453 457.193 73.713"></polyline>
                            <path d="M290,235 L290,251" id="Stroke-243" stroke-width="2"></path>
                            <path d="M290,225 L290,231" id="Stroke-245" stroke-width="2"></path>
                            <path d="M290,157 L290,184" id="Stroke-247" stroke-width="2"></path>
                        </g>
                    </g>
                </g>
            </g>
        </g>
    </g>
</svg>