<svg width="388" height="409" viewBox="0 0 388 409" xmlns="http://www.w3.org/2000/svg"><title>self_service_illustr</title><g transform="translate(2)" fill="none" fill-rule="evenodd"><circle fill="#1CBC79" cx="299" cy="332" r="42"/><ellipse fill="#1CBC79" cx="121" cy="262" rx="27" ry="27"/><ellipse fill="#1CBC79" cx="69" cy="57" rx="57" ry="57"/><g stroke="#485F76"><path d="M274.016 312H143M85 234.106V121.374c0-3.314 2.686-6.374 6-6.374h217c3.314 0 6 3.06 6 6.374V253.06M85 139h229" stroke-width="2"/><path d="M127 127c0 1.657-1.343 3-3 3s-3-1.343-3-3 1.343-3 3-3 3 1.343 3 3zM114 127c0 1.657-1.343 3-3 3s-3-1.343-3-3 1.343-3 3-3 3 1.343 3 3zM101 127c0 1.657-1.343 3-3 3s-3-1.343-3-3 1.343-3 3-3 3 1.343 3 3z" stroke-width="2.374"/><path d="M45 257.49V90.375C45 87.06 47.686 84 51 84h217c3.314 0 6 3.06 6 6.374v24.116M45 108h229" stroke-width="2"/><path d="M87 96c0 1.657-1.343 3-3 3s-3-1.343-3-3 1.343-3 3-3 3 1.343 3 3zM74 96c0 1.657-1.343 3-3 3s-3-1.343-3-3 1.343-3 3-3 3 1.343 3 3zM61 96c0 1.657-1.343 3-3 3s-3-1.343-3-3 1.343-3 3-3 3 1.343 3 3zM42 20.374c0 1.657-1.343 3-3 3s-3-1.343-3-3 1.343-3 3-3 3 1.343 3 3zM6 52.374c0 1.657-1.343 3-3 3s-3-1.343-3-3 1.343-3 3-3 3 1.343 3 3zM16 95.374c0 1.657-1.343 3-3 3s-3-1.343-3-3 1.343-3 3-3 3 1.343 3 3zM138 347c0 1.657-1.343 3-3 3s-3-1.343-3-3 1.343-3 3-3 3 1.343 3 3zM189 381c0 1.657-1.343 3-3 3s-3-1.343-3-3 1.343-3 3-3 3 1.343 3 3zM213 390c0 1.657-1.343 3-3 3s-3-1.343-3-3 1.343-3 3-3 3 1.343 3 3zM296 339.374c0 1.657-1.343 3-3 3s-3-1.343-3-3 1.343-3 3-3 3 1.343 3 3zM332 401c0 1.657-1.343 3-3 3s-3-1.343-3-3 1.343-3 3-3 3 1.343 3 3zM350 404c0 1.657-1.343 3-3 3s-3-1.343-3-3 1.343-3 3-3 3 1.343 3 3z" stroke-width="2.374"/><path stroke-width="2" d="M99 168h32v-10H99zM99 189h60v-10H99zM99 210h42v-10H99zM99 231h59.38v-10H99zM166 231h37.92v-10H166zM132 242h59.293v10H140M149 210h39v-10h-39zM167 189h61v-10h-61zM139 168h70v-10h-70zM241 140.374v171M270 160h32M251 160h13M288 177h14M251 177h31M264 194h38M251 194h7M297 211h5M251 211h40"/><path d="M270 160.374c0 1.657-1.343 3-3 3s-3-1.343-3-3 1.343-3 3-3 3 1.343 3 3zM288 177.374c0 1.657-1.343 3-3 3s-3-1.343-3-3 1.343-3 3-3 3 1.343 3 3zM264 194.374c0 1.657-1.343 3-3 3s-3-1.343-3-3 1.343-3 3-3 3 1.343 3 3zM297 211.374c0 1.657-1.343 3-3 3s-3-1.343-3-3 1.343-3 3-3 3 1.343 3 3z" stroke-width="2.374"/><path d="M61 210h19M61 216h19M61 222h19M86.274 191.322c-1.612.37-3.29.568-5.016.568-6.147 0-11.71-2.492-15.74-6.52-4.027-4.028-6.518-9.592-6.518-15.738 0-12.293 9.965-22.258 22.258-22.258 1.41 0 2.79.13 4.126.38" stroke-width="2"/><path stroke-width="2" d="M63 155.374l15.34 14.918-14.74 15.74M71 143h4M74 198h4M50 169h4M30 136.374v-77l9-8.932V23.374"/><path stroke-width="2" d="M35 163l-13.057-13.022V70.884L5 54"/><path stroke-width="2" d="M33.375 176.9L13 156.365v-57.99"/><path d="M74.13 255.504c14.84-14.84 38.9-14.84 53.74 0 14.84 14.84 14.84 38.9 0 53.74-14.84 14.84-38.9 14.84-53.74 0-14.84-14.84-14.84-38.9 0-53.74z" stroke-width="2.374"/><path d="M131.536 312.91L128 309.374M138.33 303.874l-4.33-2.5M142.83 293.668l-4.83-1.294M144 282.374h-5M142.27 271.374L113 279.217M138.33 260.374l-4.33 2.5M131.536 251.374L128 254.91M122.5 245.374l-2.5 4.33M112.294 240.374l-1.294 4.83M101 239.374v5M90 240.374l1.294 4.83M80 245.374l2.5 4.33M71 251.374l21.213 21.213M64 260.374l4.33 2.5M60 271.374l4.83 1.294M58 282.374h5M60 293.668l4.83-1.294M64 303.874l4.33-2.5M71 312.91l3.536-3.536M80 319.704l2.5-4.33M90 323.525l7.543-28.15M101 325.374v-5M112.294 323.204l-1.294-4.83M112.294 323.204l-1.294-4.83" stroke-width="2"/><path d="M91.808 273.182c5.077-5.077 13.308-5.077 18.385 0 5.077 5.077 5.077 13.308 0 18.385-5.077 5.077-13.308 5.077-18.385 0-5.077-5.077-5.077-13.308 0-18.385z" stroke-width="2.374"/><path d="M91.808 273.182c5.077-5.077 13.308-5.077 18.385 0 5.077 5.077 5.077 13.308 0 18.385-5.077 5.077-13.308 5.077-18.385 0-5.077-5.077-5.077-13.308 0-18.385zM21.85 342.305c-9.134-9.135-9.134-23.945 0-33.08 9.136-9.135 23.946-9.135 33.08 0 9.136 9.135 9.136 23.945 0 33.08-9.134 9.135-23.944 9.135-33.08 0z" stroke-width="2.374"/><path d="M63.924 333.177L46 328.374M64.348 319.374L61 320.27M56.828 307.374L54 310.202M44.963 300.374L44 303.968M31 300.374l4.802 17.923M19 307.374l2.12 2.12M12 319.374l3.284.88M12 333.422l3.912-1.048M19 344.81l13.435-13.436M31 351.852l.932-3.478M44.995 352.088L44 348.374M57.12 345.495l-2.12-2.12" stroke-width="2"/><path d="M32.344 332.035c-3.125-3.125-3.125-8.192 0-11.317s8.192-3.125 11.317 0c3.126 3.125 3.126 8.192 0 11.317-3.124 3.125-8.19 3.125-11.316 0z" stroke-width="2.374"/><path d="M32.344 332.035c-3.125-3.125-3.125-8.192 0-11.317s8.192-3.125 11.317 0c3.126 3.125 3.126 8.192 0 11.317-3.124 3.125-8.19 3.125-11.316 0zM25 278.368c0-6.072 4.922-10.994 10.994-10.994s10.995 4.922 10.995 10.994-4.924 10.994-10.996 10.994S25 284.44 25 278.368z" stroke-width="2.374"/><path d="M48.598 271.374l-2.598 1.5M43.087 266.374L38 275.184M36 264.374v3M29 266.374l1.5 2.598M24 271.374l2.598 1.5M22 278.374h10M24 284.874l2.598-1.5M29 289.972l1.5-2.598M36 292.374v-3M43.087 290.185L38 281.375M48.548 284.845L46 283.375M50 278.374h-3" stroke-width="2"/><path d="M32 278.135c0-2.077 1.684-3.76 3.76-3.76 2.08 0 3.762 1.683 3.762 3.76s-1.683 3.76-3.76 3.76c-2.078 0-3.762-1.683-3.762-3.76z" stroke-width="2.374"/><path d="M32 278.135c0-2.077 1.684-3.76 3.76-3.76 2.08 0 3.762 1.683 3.762 3.76s-1.683 3.76-3.76 3.76c-2.078 0-3.762-1.683-3.762-3.76z" stroke-width="2.374"/><path d="M372.04 120.582v32.375c0 2.234-1.79 4.043-4 4.043H325c-2.21 0-4-1.81-4-4.043V103M321 87.59V76.004c0-2.21 1.79-4.004 3.997-4.004h43.006c2.207 0 3.997 1.793 3.997 4.004V105" stroke-width="2"/><path stroke-width="2" d="M367 122.164V143h-41v-40M326 88.724V77h41v29"/><path d="M351 150c0 1.657-1.343 3-3 3s-3-1.343-3-3 1.343-3 3-3 3 1.343 3 3z" stroke-width="2.374"/><path d="M354 127v-19c0-1.105.895-2 2-2h27c1.105 0 2 .895 2 2v11c0 1.105-.895 2-2 2h-22l-7 6zM337 109V90c0-1.105-.895-2-2-2h-27c-1.105 0-2 .895-2 2v11c0 1.105.895 2 2 2h22l7 6zM334 115h12M362 114h2M366 114h2M370 114h2M374 114h2M312 93h19M312 98h13M350 91h11M350 133h10M79 335l12.093 12H132M104 357h58.2l21.8 22M185 364.374l23.71 23.71M183 318l6 6h90l13 13" stroke-width="2"/><path stroke-width="2" d="M274 333.374l27.284 27.105v12.298l25.576 25.577M313 370.374l32.156 32.156M286.115 248.885l3.885 14.5L279.386 274l-14.5-3.886-3.886-14.5L271.615 245z"/><path d="M280 259.374c0 2.21-1.79 4-4 4s-4-1.79-4-4 1.79-4 4-4 4 1.79 4 4zM373.83 353.172c1.56 1.562 1.56 4.094 0 5.656-1.563 1.563-4.096 1.563-5.66 0-1.56-1.56-1.56-4.094 0-5.656 1.563-1.563 4.096-1.563 5.66 0z" stroke-width="2"/><path d="M322.264 324.608l40.305 40.305c4.685 4.686 12.283 4.686 16.97 0 4.686-4.686 4.686-12.284 0-16.97l-43.31-43.31c5.297-12.087 3-26.7-6.895-36.594-9.068-9.068-22.1-11.756-33.517-8.063l15.84 15.84c5.857 5.858 5.857 15.356 0 21.214-5.86 5.858-15.356 5.858-21.214 0l-15.84-15.84c-3.694 11.418-1.006 24.45 8.062 33.518 9.893 9.893 24.504 12.192 36.59 6.896l3.008 3.004z" stroke-width="2"/></g></g></svg>