<?xml version="1.0" encoding="UTF-8"?>
<svg width="388px" height="409px" viewBox="0 0 388 409" version="1.1" xmlns="http://www.w3.org/2000/svg" xmlns:xlink="http://www.w3.org/1999/xlink">
    <!-- Generator: Sketch 42 (36781) - http://www.bohemiancoding.com/sketch -->
    <title>self_service_illustr</title>
    <desc>Created with Sketch.</desc>
    <defs></defs>
    <g id="Page-1" stroke="none" stroke-width="1" fill="none" fill-rule="evenodd">
        <g id="desktop-1" transform="translate(-107.000000, -1588.000000)">
            <g id="Our-Solutions" transform="translate(-10.000000, 1426.000000)">
                <g id="1" transform="translate(119.000000, 162.000000)">
                    <g id="self_service_illustr">
                        <circle id="Oval-5" fill="#1CBC79" cx="299" cy="332" r="42"></circle>
                        <ellipse id="Oval-5" fill="#1CBC79" cx="121" cy="262" rx="27" ry="27"></ellipse>
                        <ellipse id="Oval-5" fill="#1CBC79" cx="69" cy="57" rx="57" ry="57"></ellipse>
                        <g id="Page-1" transform="translate(0.000000, 17.000000)" stroke="#485F76">
                            <path d="M274.016,295 L143,295" id="Stroke-1" stroke-width="2"></path>
                            <g id="Group-157" transform="translate(0.000000, 0.374000)">
                                <path d="M85,216.732 L85,104 C85,100.686 87.686,97.626 91,97.626 L308,97.626 C311.314,97.626 314,100.686 314,104 L314,235.685" id="Stroke-2" stroke-width="2"></path>
                                <path d="M85,121.626 L314,121.626" id="Stroke-4" stroke-width="2"></path>
                                <path d="M127,109.626 C127,111.283 125.657,112.626 124,112.626 C122.343,112.626 121,111.283 121,109.626 C121,107.969 122.343,106.626 124,106.626 C125.657,106.626 127,107.969 127,109.626 Z" id="Stroke-6" stroke-width="2.374"></path>
                                <path d="M114,109.626 C114,111.283 112.657,112.626 111,112.626 C109.343,112.626 108,111.283 108,109.626 C108,107.969 109.343,106.626 111,106.626 C112.657,106.626 114,107.969 114,109.626 Z" id="Stroke-8" stroke-width="2.374"></path>
                                <path d="M101,109.626 C101,111.283 99.657,112.626 98,112.626 C96.343,112.626 95,111.283 95,109.626 C95,107.969 96.343,106.626 98,106.626 C99.657,106.626 101,107.969 101,109.626 Z" id="Stroke-10" stroke-width="2.374"></path>
                                <path d="M45,240.117 L45,73 C45,69.686 47.686,66.626 51,66.626 L268,66.626 C271.314,66.626 274,69.686 274,73 L274,97.116" id="Stroke-12" stroke-width="2"></path>
                                <path d="M45,90.626 L274,90.626" id="Stroke-14" stroke-width="2"></path>
                                <path d="M87,78.626 C87,80.283 85.657,81.626 84,81.626 C82.343,81.626 81,80.283 81,78.626 C81,76.969 82.343,75.626 84,75.626 C85.657,75.626 87,76.969 87,78.626 Z" id="Stroke-16" stroke-width="2.374"></path>
                                <path d="M74,78.626 C74,80.283 72.657,81.626 71,81.626 C69.343,81.626 68,80.283 68,78.626 C68,76.969 69.343,75.626 71,75.626 C72.657,75.626 74,76.969 74,78.626 Z" id="Stroke-18" stroke-width="2.374"></path>
                                <path d="M61,78.626 C61,80.283 59.657,81.626 58,81.626 C56.343,81.626 55,80.283 55,78.626 C55,76.969 56.343,75.626 58,75.626 C59.657,75.626 61,76.969 61,78.626 Z" id="Stroke-20" stroke-width="2.374"></path>
                                <path d="M42,3 C42,4.657 40.657,6 39,6 C37.343,6 36,4.657 36,3 C36,1.343 37.343,0 39,0 C40.657,0 42,1.343 42,3 Z" id="Stroke-22" stroke-width="2.374"></path>
                                <path d="M6,35 C6,36.657 4.657,38 3,38 C1.343,38 0,36.657 0,35 C0,33.343 1.343,32 3,32 C4.657,32 6,33.343 6,35 Z" id="Stroke-24" stroke-width="2.374"></path>
                                <path d="M16,78 C16,79.657 14.657,81 13,81 C11.343,81 10,79.657 10,78 C10,76.343 11.343,75 13,75 C14.657,75 16,76.343 16,78 Z" id="Stroke-26" stroke-width="2.374"></path>
                                <path d="M138,329.626 C138,331.283 136.657,332.626 135,332.626 C133.343,332.626 132,331.283 132,329.626 C132,327.969 133.343,326.626 135,326.626 C136.657,326.626 138,327.969 138,329.626 Z" id="Stroke-28" stroke-width="2.374"></path>
                                <path d="M189,363.626 C189,365.283 187.657,366.626 186,366.626 C184.343,366.626 183,365.283 183,363.626 C183,361.969 184.343,360.626 186,360.626 C187.657,360.626 189,361.969 189,363.626 Z" id="Stroke-30" stroke-width="2.374"></path>
                                <path d="M213,372.626 C213,374.283 211.657,375.626 210,375.626 C208.343,375.626 207,374.283 207,372.626 C207,370.969 208.343,369.626 210,369.626 C211.657,369.626 213,370.969 213,372.626 Z" id="Stroke-32" stroke-width="2.374"></path>
                                <path d="M296,322 C296,323.657 294.657,325 293,325 C291.343,325 290,323.657 290,322 C290,320.343 291.343,319 293,319 C294.657,319 296,320.343 296,322 Z" id="Stroke-34" stroke-width="2.374"></path>
                                <path d="M332,383.626 C332,385.283 330.657,386.626 329,386.626 C327.343,386.626 326,385.283 326,383.626 C326,381.969 327.343,380.626 329,380.626 C330.657,380.626 332,381.969 332,383.626 Z" id="Stroke-36" stroke-width="2.374"></path>
                                <path d="M350,386.626 C350,388.283 348.657,389.626 347,389.626 C345.343,389.626 344,388.283 344,386.626 C344,384.969 345.343,383.626 347,383.626 C348.657,383.626 350,384.969 350,386.626 Z" id="Stroke-38" stroke-width="2.374"></path>
                                <polygon id="Stroke-40" stroke-width="2" points="99 150.626 131 150.626 131 140.626 99 140.626"></polygon>
                                <polygon id="Stroke-42" stroke-width="2" points="99 171.626 159 171.626 159 161.626 99 161.626"></polygon>
                                <polygon id="Stroke-43" stroke-width="2" points="99 192.626 141 192.626 141 182.626 99 182.626"></polygon>
                                <polygon id="Stroke-44" stroke-width="2" points="99 213.626 158.379 213.626 158.379 203.626 99 203.626"></polygon>
                                <polygon id="Stroke-45" stroke-width="2" points="166 213.626 203.92 213.626 203.92 203.626 166 203.626"></polygon>
                                <polyline id="Stroke-46" stroke-width="2" points="132 224.626 191.293 224.626 191.293 234.626 140 234.626"></polyline>
                                <polygon id="Stroke-47" stroke-width="2" points="149 192.626 188 192.626 188 182.626 149 182.626"></polygon>
                                <polygon id="Stroke-48" stroke-width="2" points="167 171.626 228 171.626 228 161.626 167 161.626"></polygon>
                                <polygon id="Stroke-49" stroke-width="2" points="139 150.626 209 150.626 209 140.626 139 140.626"></polygon>
                                <path d="M241,123 L241,294" id="Stroke-50" stroke-width="2"></path>
                                <path d="M270,142.626 L302,142.626" id="Stroke-51" stroke-width="2"></path>
                                <path d="M251,142.626 L264,142.626" id="Stroke-52" stroke-width="2"></path>
                                <path d="M288,159.626 L302,159.626" id="Stroke-53" stroke-width="2"></path>
                                <path d="M251,159.626 L282,159.626" id="Stroke-54" stroke-width="2"></path>
                                <path d="M264,176.626 L302,176.626" id="Stroke-55" stroke-width="2"></path>
                                <path d="M251,176.626 L258,176.626" id="Stroke-56" stroke-width="2"></path>
                                <path d="M297,193.626 L302,193.626" id="Stroke-57" stroke-width="2"></path>
                                <path d="M251,193.626 L291,193.626" id="Stroke-58" stroke-width="2"></path>
                                <path d="M270,143 C270,144.657 268.657,146 267,146 C265.343,146 264,144.657 264,143 C264,141.343 265.343,140 267,140 C268.657,140 270,141.343 270,143 Z" id="Stroke-59" stroke-width="2.374"></path>
                                <path d="M288,160 C288,161.657 286.657,163 285,163 C283.343,163 282,161.657 282,160 C282,158.343 283.343,157 285,157 C286.657,157 288,158.343 288,160 Z" id="Stroke-60" stroke-width="2.374"></path>
                                <path d="M264,177 C264,178.657 262.657,180 261,180 C259.343,180 258,178.657 258,177 C258,175.343 259.343,174 261,174 C262.657,174 264,175.343 264,177 Z" id="Stroke-61" stroke-width="2.374"></path>
                                <path d="M297,194 C297,195.657 295.657,197 294,197 C292.343,197 291,195.657 291,194 C291,192.343 292.343,191 294,191 C295.657,191 297,192.343 297,194 Z" id="Stroke-62" stroke-width="2.374"></path>
                                <path d="M61,192.626 L80,192.626" id="Stroke-63" stroke-width="2"></path>
                                <path d="M61,198.626 L80,198.626" id="Stroke-64" stroke-width="2"></path>
                                <path d="M61,204.626 L80,204.626" id="Stroke-65" stroke-width="2"></path>
                                <path d="M86.274,173.948 C84.662,174.319 82.983,174.516 81.258,174.516 C75.111,174.516 69.547,172.024 65.519,167.996 C61.491,163.968 59,158.404 59,152.258 C59,139.965 68.965,130 81.258,130 C82.668,130 84.047,130.131 85.384,130.381" id="Stroke-66" stroke-width="2"></path>
                                <polyline id="Stroke-67" stroke-width="2" points="63 138 78.339 152.918 63.6 168.657"></polyline>
                                <path d="M71,125.626 L75,125.626" id="Stroke-68" stroke-width="2"></path>
                                <path d="M74,180.626 L78,180.626" id="Stroke-69" stroke-width="2"></path>
                                <path d="M50,151.626 L54,151.626" id="Stroke-70" stroke-width="2"></path>
                                <polyline id="Stroke-71" stroke-width="2" points="30 119 30 42 39 33.068 39 6"></polyline>
                                <polyline id="Stroke-72" stroke-width="2" points="35 145.626 21.9432446 132.604456 21.9432446 53.5102647 5 36.626"></polyline>
                                <polyline id="Stroke-73" stroke-width="2" points="33.375 159.527 13 138.99 13 81"></polyline>
                                <path d="M74.13,238.13 C88.97,223.29 113.03,223.29 127.87,238.13 C142.71,252.97 142.71,277.03 127.87,291.87 C113.03,306.71 88.97,306.71 74.13,291.87 C59.29,277.03 59.29,252.97 74.13,238.13 Z" id="Stroke-74" stroke-width="2.374"></path>
                                <path d="M131.536,295.536 L128,292" id="Stroke-75" stroke-width="2"></path>
                                <path d="M138.33,286.5 L134,284" id="Stroke-76" stroke-width="2"></path>
                                <path d="M142.83,276.294 L138,275" id="Stroke-77" stroke-width="2"></path>
                                <path d="M144,265 L139,265" id="Stroke-78" stroke-width="2"></path>
                                <path d="M142.27,254 L113,261.843" id="Stroke-79" stroke-width="2"></path>
                                <path d="M138.33,243 L134,245.5" id="Stroke-80" stroke-width="2"></path>
                                <path d="M131.536,234 L128,237.536" id="Stroke-81" stroke-width="2"></path>
                                <path d="M122.5,228 L120,232.33" id="Stroke-82" stroke-width="2"></path>
                                <path d="M112.294,223 L111,227.83" id="Stroke-83" stroke-width="2"></path>
                                <path d="M101,222 L101,227" id="Stroke-84" stroke-width="2"></path>
                                <path d="M90,223 L91.294,227.83" id="Stroke-85" stroke-width="2"></path>
                                <path d="M80,228 L82.5,232.33" id="Stroke-86" stroke-width="2"></path>
                                <path d="M71,234 L92.213,255.213" id="Stroke-87" stroke-width="2"></path>
                                <path d="M64,243 L68.33,245.5" id="Stroke-88" stroke-width="2"></path>
                                <path d="M60,254 L64.83,255.294" id="Stroke-89" stroke-width="2"></path>
                                <path d="M58,265 L63,265" id="Stroke-90" stroke-width="2"></path>
                                <path d="M60,276.294 L64.83,275" id="Stroke-91" stroke-width="2"></path>
                                <path d="M64,286.5 L68.33,284" id="Stroke-92" stroke-width="2"></path>
                                <path d="M71,295.536 L74.536,292" id="Stroke-93" stroke-width="2"></path>
                                <path d="M80,302.33 L82.5,298" id="Stroke-94" stroke-width="2"></path>
                                <path d="M90,306.151 L97.543,278" id="Stroke-95" stroke-width="2"></path>
                                <path d="M101,308 L101,303" id="Stroke-96" stroke-width="2"></path>
                                <path d="M112.294,305.83 L111,301" id="Stroke-97" stroke-width="2"></path>
                                <path d="M112.294,305.83 L111,301" id="Stroke-98" stroke-width="2"></path>
                                <path d="M91.80775,255.80775 C96.88475,250.73075 105.11575,250.73075 110.19275,255.80775 C115.26975,260.88475 115.26975,269.11575 110.19275,274.19275 C105.11575,279.26975 96.88475,279.26975 91.80775,274.19275 C86.73075,269.11575 86.73075,260.88475 91.80775,255.80775 Z" id="Stroke-99" stroke-width="2.374"></path>
                                <path d="M91.80775,255.80775 C96.88475,250.73075 105.11575,250.73075 110.19275,255.80775 C115.26975,260.88475 115.26975,269.11575 110.19275,274.19275 C105.11575,279.26975 96.88475,279.26975 91.80775,274.19275 C86.73075,269.11575 86.73075,260.88475 91.80775,255.80775 Z" id="Stroke-100" stroke-width="2.374"></path>
                                <path d="M21.85125,324.93125 C12.71625,315.79625 12.71625,300.98625 21.85125,291.85125 C30.98625,282.71625 45.79625,282.71625 54.93125,291.85125 C64.06625,300.98625 64.06625,315.79625 54.93125,324.93125 C45.79625,334.06625 30.98625,334.06625 21.85125,324.93125 Z" id="Stroke-101" stroke-width="2.374"></path>
                                <path d="M63.924,315.803 L46,311" id="Stroke-102" stroke-width="2"></path>
                                <path d="M64.348,302 L61,302.897" id="Stroke-103" stroke-width="2"></path>
                                <path d="M56.828,290 L54,292.828" id="Stroke-104" stroke-width="2"></path>
                                <path d="M44.963,283 L44,286.594" id="Stroke-105" stroke-width="2"></path>
                                <path d="M31,283 L35.802,300.923" id="Stroke-106" stroke-width="2"></path>
                                <path d="M19,290 L21.121,292.121" id="Stroke-107" stroke-width="2"></path>
                                <path d="M12,302 L15.284,302.88" id="Stroke-108" stroke-width="2"></path>
                                <path d="M12,316.048 L15.912,315" id="Stroke-109" stroke-width="2"></path>
                                <path d="M19,327.435 L32.435,314" id="Stroke-110" stroke-width="2"></path>
                                <path d="M31,334.478 L31.932,331" id="Stroke-111" stroke-width="2"></path>
                                <path d="M44.995,334.714 L44,331" id="Stroke-112" stroke-width="2"></path>
                                <path d="M57.121,328.121 L55,326" id="Stroke-113" stroke-width="2"></path>
                                <path d="M32.34375,314.66075 C29.21875,311.53575 29.21875,306.46875 32.34375,303.34375 C35.46875,300.21875 40.53575,300.21875 43.66075,303.34375 C46.78575,306.46875 46.78575,311.53575 43.66075,314.66075 C40.53575,317.78575 35.46875,317.78575 32.34375,314.66075 Z" id="Stroke-114" stroke-width="2.374"></path>
                                <path d="M32.34375,314.66075 C29.21875,311.53575 29.21875,306.46875 32.34375,303.34375 C35.46875,300.21875 40.53575,300.21875 43.66075,303.34375 C46.78575,306.46875 46.78575,311.53575 43.66075,314.66075 C40.53575,317.78575 35.46875,317.78575 32.34375,314.66075 Z" id="Stroke-115" stroke-width="2.374"></path>
                                <path d="M25,260.994 C25,254.922 29.922,250 35.994,250 C42.066,250 46.989,254.922 46.989,260.994 C46.989,267.066 42.066,271.988 35.994,271.988 C29.922,271.988 25,267.066 25,260.994 Z" id="Stroke-116" stroke-width="2.374"></path>
                                <path d="M48.598,254 L46,255.5" id="Stroke-117" stroke-width="2"></path>
                                <path d="M43.087,249 L38,257.811" id="Stroke-118" stroke-width="2"></path>
                                <path d="M36,247 L36,250" id="Stroke-119" stroke-width="2"></path>
                                <path d="M29,249 L30.5,251.598" id="Stroke-120" stroke-width="2"></path>
                                <path d="M24,254 L26.598,255.5" id="Stroke-121" stroke-width="2"></path>
                                <path d="M22,261 L32,261" id="Stroke-122" stroke-width="2"></path>
                                <path d="M24,267.5 L26.598,266" id="Stroke-123" stroke-width="2"></path>
                                <path d="M29,272.598 L30.5,270" id="Stroke-124" stroke-width="2"></path>
                                <path d="M36,275 L36,272" id="Stroke-125" stroke-width="2"></path>
                                <path d="M43.087,272.811 L38,264" id="Stroke-126" stroke-width="2"></path>
                                <path d="M48.548,267.471 L46,266" id="Stroke-127" stroke-width="2"></path>
                                <path d="M50,261 L47,261" id="Stroke-128" stroke-width="2"></path>
                                <path d="M32,260.761 C32,258.684 33.684,257 35.761,257 C37.839,257 39.522,258.684 39.522,260.761 C39.522,262.838 37.839,264.522 35.761,264.522 C33.684,264.522 32,262.838 32,260.761 Z" id="Stroke-129" stroke-width="2.374"></path>
                                <path d="M32,260.761 C32,258.684 33.684,257 35.761,257 C37.839,257 39.522,258.684 39.522,260.761 C39.522,262.838 37.839,264.522 35.761,264.522 C33.684,264.522 32,262.838 32,260.761 Z" id="Stroke-130" stroke-width="2.374"></path>
                                <path d="M372.040001,103.207865 L372.040001,135.582798 C372.040001,137.816667 370.248861,139.626 368.039687,139.626 L325.000314,139.626 C322.79114,139.626 321,137.816667 321,135.582798 L321,85.626" id="Stroke-131" stroke-width="2"></path>
                                <path d="M321,70.2161729 L321,58.6296397 C321,56.4186297 322.789737,54.626 324.997178,54.626 L368.002822,54.626 C370.210263,54.626 372,56.4186297 372,58.6296397 L372,87.626" id="Stroke-132" stroke-width="2"></path>
                                <polyline id="Stroke-133" stroke-width="2" points="367 104.789562 367 125.626 326 125.626 326 85.626"></polyline>
                                <polyline id="Stroke-134" stroke-width="2" points="326 71.3498932 326 59.626 367 59.626 367 88.626"></polyline>
                                <path d="M351,132.626 C351,134.283 349.657,135.626 348,135.626 C346.343,135.626 345,134.283 345,132.626 C345,130.969 346.343,129.626 348,129.626 C349.657,129.626 351,130.969 351,132.626 Z" id="Stroke-135" stroke-width="2.374"></path>
                                <path d="M354,109.626 L354,90.626 C354,89.521 354.895,88.626 356,88.626 L383,88.626 C384.105,88.626 385,89.521 385,90.626 L385,101.626 C385,102.731 384.105,103.626 383,103.626 L361,103.626 L354,109.626 Z" id="Stroke-136" stroke-width="2"></path>
                                <path d="M337,91.626 L337,72.626 C337,71.521 336.105,70.626 335,70.626 L308,70.626 C306.895,70.626 306,71.521 306,72.626 L306,83.626 C306,84.731 306.895,85.626 308,85.626 L330,85.626 L337,91.626 Z" id="Stroke-137" stroke-width="2"></path>
                                <path d="M334,97.626 L346,97.626" id="Stroke-138" stroke-width="2"></path>
                                <path d="M362,96.626 L364,96.626" id="Stroke-139" stroke-width="2"></path>
                                <path d="M366,96.626 L368,96.626" id="Stroke-140" stroke-width="2"></path>
                                <path d="M370,96.626 L372,96.626" id="Stroke-141" stroke-width="2"></path>
                                <path d="M374,96.626 L376,96.626" id="Stroke-142" stroke-width="2"></path>
                                <path d="M312,75.626 L331,75.626" id="Stroke-143" stroke-width="2"></path>
                                <path d="M312,80.626 L325,80.626" id="Stroke-144" stroke-width="2"></path>
                                <path d="M350,73.626 L361,73.626" id="Stroke-145" stroke-width="2"></path>
                                <path d="M350,115.626 L360,115.626" id="Stroke-146" stroke-width="2"></path>
                                <polyline id="Stroke-147" stroke-width="2" points="79 317.626 91.0927146 329.626 132 329.626"></polyline>
                                <polyline id="Stroke-148" stroke-width="2" points="104 339.626 162.200063 339.626 184 361.626"></polyline>
                                <path d="M185,347 L208.711,370.711" id="Stroke-149" stroke-width="2"></path>
                                <polyline id="Stroke-150" stroke-width="2" points="183 300.626 189 306.626 279 306.626 292 319.626"></polyline>
                                <polyline id="Stroke-151" stroke-width="2" points="274 316 301.284 343.105 301.284 355.404 326.86 380.981"></polyline>
                                <path d="M313,353 L345.156,385.156" id="Stroke-152" stroke-width="2"></path>
                                <polygon id="Stroke-153" stroke-width="2" points="286.115 231.511 290 246.011 279.386 256.626 264.886 252.74 261 238.24 271.615 227.626"></polygon>
                                <path d="M280,242 C280,244.209 278.209,246 276,246 C273.791,246 272,244.209 272,242 C272,239.791 273.791,238 276,238 C278.209,238 280,239.791 280,242 Z" id="Stroke-154" stroke-width="2"></path>
                                <path d="M373.8285,335.7975 C375.3905,337.3595 375.3905,339.8925 373.8285,341.4545 C372.2665,343.0165 369.7335,343.0165 368.1715,341.4545 C366.6095,339.8925 366.6095,337.3595 368.1715,335.7975 C369.7335,334.2355 372.2665,334.2355 373.8285,335.7975 Z" id="Stroke-155" stroke-width="2"></path>
                                <path d="M322.263657,307.23404 L362.568657,347.53904 C367.254657,352.22504 374.852657,352.22504 379.538657,347.53904 L379.538657,347.53904 C384.225657,342.85304 384.225657,335.25504 379.538657,330.56804 L336.228657,287.25804 C341.526657,275.17204 339.228657,260.55904 329.334657,250.66504 C320.266657,241.59804 307.234657,238.91004 295.817657,242.60304 L311.656657,258.44304 C317.514657,264.30104 317.514657,273.79904 311.656657,279.65704 L311.656657,279.65704 C305.798657,285.51404 296.301657,285.51404 290.443657,279.65704 L274.603657,263.81604 C270.909657,275.23404 273.597657,288.26604 282.665657,297.33404 C292.558657,307.22704 307.169657,309.52604 319.255657,304.23004 L322.263657,307.23404 Z" id="Stroke-156" stroke-width="2"></path>
                            </g>
                        </g>
                    </g>
                </g>
            </g>
        </g>
    </g>
</svg>