<?xml version="1.0" encoding="UTF-8"?>
<svg width="274px" height="52px" viewBox="0 0 274 52" version="1.1" xmlns="http://www.w3.org/2000/svg">
    <title>Combined Shape</title>
    <g id="Page-2" stroke="none" stroke-width="1" fill="none" fill-rule="evenodd">
        <path d="M130.725133,13 C145.810378,13 150.67,26.2618732 150.67,32.5 L150.67,32.5 L150.67,51.4011516 L144.21943,51.4011516 L144.21943,46.3109405 C141.401939,49.4548944 136.804981,52 130.725133,52 C120.27076,52 111.67,43.4664107 111.67,32.537428 C111.67,21.6084453 120.27076,13 130.725133,13 Z M65.7251331,13 C80.8103777,13 85.67,26.2618732 85.67,32.5 L85.67,32.5 L85.67,51.4011516 L79.2194297,51.4011516 L79.2194297,46.3109405 C76.4019392,49.4548944 71.804981,52 65.7251331,52 C55.2707605,52 46.67,43.4664107 46.67,32.537428 C46.67,21.6084453 55.2707605,13 65.7251331,13 Z M241.524715,0 L241.524715,18.030303 C244.490494,15.012987 249.013308,12.6580087 254.944867,12.6580087 C265.39924,12.6580087 274,21.1212121 274,31.8658009 C274,42.6103896 265.39924,51 254.944867,51 C247.078992,51 235,45.038961 235,31.8658009 L235,31.8658009 L235,0 L241.524715,0 Z M166.225734,0 L166.225734,44.3737226 L192,44.3737226 L192,51 L159,51 L159,0 L166.225734,0 Z M211.055133,12 C226.140378,12 231,25.2618732 231,31.5 L231,31.5 L231,50.4011516 L224.54943,50.4011516 L224.54943,45.3109405 C221.731939,48.4548944 217.134981,51 211.055133,51 C200.60076,51 192,42.4664107 192,31.537428 C192,20.6084453 200.60076,12 211.055133,12 Z M17.76,0.31 C32.412,0.31 43.438,11.336 43.438,25.544 C43.438,39.826 32.412,51 17.76,51 L17.76,51 L4.97379915e-14,51 L4.97379915e-14,0.31 Z M100.658,3 L100.658,13.286 L110.574,13.286 L110.574,19.058 L100.658,19.058 L100.658,38.668 C100.658,43.552 103.544,44.958 107.022,44.958 L107.022,44.958 L110.574,44.958 L110.574,50.73 L106.948,50.73 C99.474,50.73 94.22,47.03 94.22,38.668 L94.22,38.668 L94.22,19.058 L88.67,19.058 L88.67,13.286 L94.22,13.286 L94.22,3 L100.658,3 Z M131.095856,19.1381958 C123.681407,19.1381958 118.046426,25.0518234 118.046426,32.537428 C118.046426,40.0230326 123.681407,45.9366603 131.095856,45.9366603 C138.658593,45.9366603 144.367719,40.0978887 144.367719,32.537428 C144.367719,25.0518234 138.584449,19.1381958 131.095856,19.1381958 Z M66.0958555,19.1381958 C58.6814068,19.1381958 53.0464259,25.0518234 53.0464259,32.537428 C53.0464259,40.0230326 58.6814068,45.9366603 66.0958555,45.9366603 C73.6585932,45.9366603 79.3677186,40.0978887 79.3677186,32.537428 C79.3677186,25.0518234 73.5844487,19.1381958 66.0958555,19.1381958 Z M254.574144,18.6926407 C247.085551,18.6926407 241.302281,24.5064935 241.302281,31.8658009 C241.302281,39.2987013 247.011407,45.038961 254.574144,45.038961 C261.988593,45.038961 267.623574,39.2251082 267.623574,31.8658009 C267.623574,24.5064935 261.988593,18.6926407 254.574144,18.6926407 Z M211.425856,18.1381958 C204.011407,18.1381958 198.376426,24.0518234 198.376426,31.537428 C198.376426,39.0230326 204.011407,44.9366603 211.425856,44.9366603 C218.988593,44.9366603 224.697719,39.0978887 224.697719,31.537428 C224.697719,24.0518234 218.914449,18.1381958 211.425856,18.1381958 Z M17.464,6.896 L7.178,6.896 L7.178,44.414 L17.316,44.414 C28.416,44.414 36.26,36.2 36.26,25.692 C36.26,15.036 28.194,6.896 17.464,6.896 L17.464,6.896 Z"
              id="Combined-Shape" fill="#35AFD5" fill-rule="nonzero"></path>
    </g>
</svg>
