<svg width="89" height="89" viewBox="0 0 89 89" xmlns="http://www.w3.org/2000/svg"><g stroke="#485F76" stroke-width="2" fill="none" fill-rule="evenodd" stroke-linecap="round" stroke-linejoin="round"><path d="M88 44.5C88 68.524 68.524 88 44.5 88S1 68.524 1 44.5 20.476 1 44.5 1 88 20.476 88 44.5z"/><path d="M10 70V34c0-1.105.895-2 2-2h14c1.105 0 2 .895 2 2v3h50c1.105 0 2 .895 2 2v31"/><path d="M18 31v-3c0-1.105.895-2 2-2h54c1.105 0 2 .895 2 2v9M49.915 58.067c.363 2.008-.474 3.85-1.915 4.933v4c0 1.657-1.343 3-3 3s-3-1.343-3-3L42.003 63C40.786 62.09 40 60.637 40 59c0-3.113 2.844-5.56 6.075-4.888 1.94.405 3.488 2.005 3.84 3.955z"/><path d="M44.963 77.977S31 75.167 31 64V46s2.99 2 7 2c3.966 0 7-2 7-2h1s3.015 2 7 2c3.942 0 6.928-2 6.928-2v18c0 12.084-14.965 13.977-14.965 13.977z"/></g></svg>