<?xml version="1.0" encoding="UTF-8" standalone="no"?>
<svg width="16px" height="16px" viewBox="0 0 16 16" version="1.1" xmlns="http://www.w3.org/2000/svg" xmlns:xlink="http://www.w3.org/1999/xlink">
    <!-- Generator: Sketch 39.1 (31720) - http://www.bohemiancoding.com/sketch -->
    <title>settings copy</title>
    <desc>Created with Sketch.</desc>
    <defs></defs>
    <g id="Page-1" stroke="none" stroke-width="1" fill="none" fill-rule="evenodd">
        <g id="List-of-resources" transform="translate(-1091.000000, -253.000000)" stroke-width="0.7" stroke="#66809B" fill="#66809B">
            <g id="settings-copy" transform="translate(1092.000000, 254.000000)">
                <g id="Capa_1">
                    <g id="Group">
                        <path d="M13.0878542,5.49186107 L11.8180012,5.49186107 C11.6138997,5.49186107 11.4457422,5.37950472 11.3675703,5.19098735 C11.2893985,5.00246998 11.3291128,4.80389836 11.4731401,4.65961973 L12.3709855,3.76202571 C12.5029476,3.63006356 12.5755896,3.45436537 12.5755896,3.26785886 C12.5755896,3.08110098 12.5029476,2.90565415 12.3709855,2.77344064 L11.2265594,1.62901455 C10.962635,1.36509024 10.5024013,1.36458752 10.2379743,1.62901455 L9.34038027,2.52660857 C9.19610164,2.67063584 8.9970273,2.71085288 8.80901265,2.63242965 C8.62049528,2.55425778 8.50813893,2.38610029 8.50813893,2.18199882 L8.50813893,0.912145842 C8.50813893,0.526816345 8.19469739,0.213374804 7.80936789,0.213374804 L6.19063211,0.213374804 C5.80530261,0.213374804 5.49186107,0.526816345 5.49186107,0.912145842 L5.49186107,2.18199882 C5.49186107,2.38610029 5.37950472,2.55425778 5.19098735,2.63242965 C5.0029727,2.71110423 4.80389836,2.67063584 4.65961973,2.52660857 L3.76202571,1.62901455 C3.49759869,1.36458752 3.03736495,1.36509024 2.77344064,1.62901455 L1.62901455,2.77344064 C1.49705239,2.9054028 1.42441037,3.08110098 1.42441037,3.26785886 C1.42441037,3.45436537 1.49705239,3.6298122 1.62901455,3.76202571 L2.52685993,4.65961973 C2.67088719,4.80389836 2.71035016,5.00246998 2.63242965,5.19098735 C2.55450914,5.37950472 2.38610029,5.49186107 2.18199882,5.49186107 L0.912145842,5.49186107 C0.526816345,5.49186107 0.213374804,5.80530261 0.213374804,6.19063211 L0.213374804,7.80911654 C0.213374804,8.19469739 0.526816345,8.50813893 0.912145842,8.50813893 L2.18199882,8.50813893 C2.38610029,8.50813893 2.55425778,8.62049528 2.63242965,8.80901265 C2.71060152,8.99753002 2.67088719,9.19610164 2.52685993,9.34038027 L1.62901455,10.2379743 C1.49705239,10.3699364 1.42441037,10.5456346 1.42441037,10.7321411 C1.42441037,10.918899 1.49705239,11.0943458 1.62901455,11.2265594 L2.77344064,12.3709855 C3.03761631,12.6351611 3.49759869,12.6356638 3.76202571,12.3709855 L4.65961973,11.4731401 C4.80389836,11.3291128 5.00221863,11.2893985 5.19098735,11.3675703 C5.37950472,11.4457422 5.49186107,11.6138997 5.49186107,11.8180012 L5.49186107,13.0878542 C5.49186107,13.4731837 5.80530261,13.7866252 6.19063211,13.7866252 L7.80911654,13.7866252 C8.19444603,13.7866252 8.50788758,13.4731837 8.50788758,13.0878542 L8.50788758,11.8180012 C8.50788758,11.6138997 8.62024393,11.4457422 8.80876129,11.3675703 C8.99753002,11.2891471 9.19585029,11.3291128 9.34012891,11.4731401 L10.2377229,12.3709855 C10.50215,12.6354125 10.9623837,12.6349098 11.226308,12.3709855 L12.3707341,11.2265594 C12.5026963,11.0945972 12.5753383,10.918899 12.5753383,10.7321411 C12.5753383,10.5456346 12.5026963,10.3701878 12.3707341,10.2379743 L11.4728887,9.34038027 C11.3288614,9.19610164 11.2893985,8.99753002 11.367319,8.80901265 C11.4452395,8.62049528 11.6138997,8.50813893 11.8180012,8.50813893 L13.0878542,8.50813893 C13.4731837,8.50813893 13.7866252,8.19469739 13.7866252,7.80936789 L13.7866252,6.19063211 C13.7866252,5.80530261 13.4731837,5.49186107 13.0878542,5.49186107 L13.0878542,5.49186107 Z M13.2839122,7.80936789 C13.2839122,7.91745118 13.1959374,8.00542596 13.0878542,8.00542596 L11.8180012,8.00542596 C11.4097982,8.00542596 11.0591559,8.2396902 10.9030636,8.61672494 C10.7467198,8.99375967 10.8289134,9.40749245 11.117722,9.6960497 L12.0155674,10.5936437 C12.0922311,10.6703074 12.0922311,10.7947289 12.0155674,10.8711413 L10.8711413,12.0155674 C10.7947289,12.0919797 10.6703074,12.0924825 10.5936437,12.0155674 L9.6960497,11.117722 C9.40724109,10.8289134 8.99375967,10.7472225 8.61672494,10.9030636 C8.2396902,11.0591559 8.00542596,11.4097982 8.00542596,11.8180012 L8.00542596,13.0878542 C8.00542596,13.1959374 7.91745118,13.2839122 7.80936789,13.2839122 L6.19063211,13.2839122 C6.08254882,13.2839122 5.99457404,13.1959374 5.99457404,13.0878542 L5.99457404,11.8180012 C5.99457404,11.4097982 5.7603098,11.0591559 5.38327506,10.9030636 C5.25684275,10.8505301 5.12664009,10.8248917 4.99794557,10.8248917 C4.74307009,10.8248917 4.49598666,10.9254343 4.3039503,11.1174706 L3.40635628,12.015316 C3.32944119,12.0922311 3.20501973,12.0917284 3.12885872,12.015316 L1.98443262,10.8708899 C1.90776889,10.7942262 1.90776889,10.6698047 1.98443262,10.5933924 L2.882278,9.69579834 C3.17083525,9.40724109 3.25328018,8.99350831 3.09693644,8.61647358 C2.94084406,8.2396902 2.59020176,8.00542596 2.18199882,8.00542596 L0.912145842,8.00542596 C0.804062552,8.00542596 0.716087781,7.91745118 0.716087781,7.80936789 L0.716087781,6.19063211 C0.716087781,6.08254882 0.804062552,5.99457404 0.912145842,5.99457404 L2.18199882,5.99457404 C2.59020176,5.99457404 2.94084406,5.7603098 3.09693644,5.38327506 C3.25328018,5.00624033 3.17108661,4.59250755 2.882278,4.3039503 L1.98443262,3.40635628 C1.90776889,3.32969255 1.90776889,3.20527109 1.98443262,3.12885872 L3.12885872,1.98443262 C3.20527109,1.90776889 3.32969255,1.90776889 3.40635628,1.98443262 L4.3039503,2.88202664 C4.59225619,3.17033254 5.00573762,3.25302882 5.38327506,3.09668509 C5.7603098,2.94084406 5.99457404,2.59020176 5.99457404,2.18199882 L5.99457404,0.912145842 C5.99457404,0.804062552 6.08254882,0.716087781 6.19063211,0.716087781 L7.80911654,0.716087781 C7.91745118,0.716087781 8.00542596,0.804062552 8.00542596,0.912145842 L8.00542596,2.18199882 C8.00542596,2.59020176 8.2396902,2.94084406 8.61672494,3.09693644 C8.99426238,3.25328018 9.40749245,3.17083525 9.6960497,2.882278 L10.5936437,1.98468398 C10.6705588,1.90802025 10.7949803,1.90802025 10.8711413,1.98468398 L12.0155674,3.12911007 C12.0922311,3.2057738 12.0922311,3.33019526 12.0155674,3.40660764 L11.117722,4.30420166 C10.8291647,4.59275891 10.7467198,5.00649169 10.9030636,5.38352642 C11.0591559,5.76056115 11.4097982,5.9948254 11.8180012,5.9948254 L13.0878542,5.9948254 C13.1959374,5.99457404 13.2839122,6.08254882 13.2839122,6.19063211 L13.2839122,7.80936789 L13.2839122,7.80936789 Z" id="Shape"></path>
                        <path d="M7,4.7377916 C5.75251775,4.7377916 4.7377916,5.75251775 4.7377916,7 C4.7377916,8.24748225 5.75251775,9.2622084 7,9.2622084 C8.24748225,9.2622084 9.2622084,8.24748225 9.2622084,7 C9.2622084,5.75251775 8.24748225,4.7377916 7,4.7377916 L7,4.7377916 Z M7,8.75949542 C6.03001531,8.75949542 5.24050458,7.96998469 5.24050458,7 C5.24050458,6.03001531 6.03001531,5.24050458 7,5.24050458 C7.96998469,5.24050458 8.75949542,6.03001531 8.75949542,7 C8.75949542,7.96998469 7.96998469,8.75949542 7,8.75949542 L7,8.75949542 Z" id="Shape"></path>
                    </g>
                </g>
            </g>
        </g>
    </g>
</svg>