<svg xmlns="http://www.w3.org/2000/svg" viewBox="0 0 660.05 441.27">
  <defs>
    <style>
      .a {
        fill: #0c0d0d;
        opacity: 0.07;
      }
      .a, .e, .f, .h, .k, .l, .o, .p {
        isolation: isolate;
      }
      .b {
        fill: #35afd5;
      }
      .c {
        fill: #999;
      }
      .d, .e {
        fill: #c4bfbe;
      }
      .e, .f {
        opacity: 0.4;
      }
      .f {
        fill: #e7dad8;
      }
      .g {
        fill: #6a6b6c;
      }
      .h, .o {
        fill: #fff;
      }
      .h {
        opacity: 0.2;
      }
      .i {
        fill: none;
        stroke: #fff;
        stroke-linecap: round;
        stroke-miterlimit: 10;
        stroke-width: 7px;
      }
      .j {
        fill: #31a2c4;
      }
      .k, .l, .n {
        fill: #67bdd8;
      }
      .k {
        opacity: 0.9;
      }
      .l, .m {
        opacity: 0.8;
      }
      .o {
        opacity: 0.1;
      }
      .p {
        opacity: 0.04;
      }
    </style>
  </defs>
  <path class="a" d="M428.1,246.1h0l-6.5-.4h0a69.91,69.91,0,0,0-8.3.4l-17.5.1-151.5-9.4a2.94,2.94,0,0,0,1.5-2.3c0-8.1-55.7-14.6-119.5-14.6S10.7,226.5,10.7,234.5s51.8,14.6,115.6,14.6a781.61,781.61,0,0,0,79.8-3.8l155.7,9.6,9.8,1.8c-.4.6.3,1,2.2,1.1h0l6.5.4h0c6,.4,21.6-2.1,34.8-5.5C428.2,249.5,434,246.5,428.1,246.1Zm-211.7-2h0l102.4,6.3ZM375.8,254l-5.8-.4-19.7-1.2,25.5,1.6Zm21.4-5.6-156.5-9.7h0l129,8,20.6,1.3,6.9.4Z" transform="translate(0 -0.33)"/>
  <path class="b" d="M423,243.6H599.6s133.6,1.6-33.3,20.5c-177.5,20.1-45.7,26.3,44.8,29.1,50.7,1.6,91.4,36.8-34.8,43.2s-13.5,24.8-5,24.8,118.5,40.2-61.7,39c-59.4-.4-243.8-3.3-82.3-32.6,140.5-25.5-41.8-30.6-91.8-31.9-53.8-1.4-37.3-26.2,12.4-22.7,25.6,1.8,81.2-12.9,35.9-32.1-66-28,13-24.8,16.4-27.7s-5.7-3.8-5.7-3.8l6-6C400.4,243.5,407.4,243.6,423,243.6Z" transform="translate(0 -0.33)"/>
  <ellipse class="c" cx="19.89" cy="88.23" rx="56.7" ry="12.3" transform="translate(-70.37 82.08) rotate(-73.6)"/>
  <rect class="c" x="-33.31" y="85.6" width="113.4" height="7.4" transform="translate(-68.88 86.2) rotate(-73.6)"/>
  <path class="d" d="M11,144.7c-6.5-1.9-4.7-27.8,4.2-57.9S36.5,34,43,35.9s4.7,27.8-4.2,57.9S17.5,146.6,11,144.7Z" transform="translate(0 -0.33)"/>
  <path class="b" d="M25.2,142.6l28.6-97A103.52,103.52,0,0,0,27.2,90.5,105.06,105.06,0,0,0,25.2,142.6Z" transform="translate(0 -0.33)"/>
  <path class="e" d="M233.4,127.8l12.9,3.8a110.86,110.86,0,0,0,.6-14.1l-13.4-4A136.43,136.43,0,0,1,233.4,127.8Z" transform="translate(0 -0.33)"/>
  <path class="e" d="M220.8,170.6a116.81,116.81,0,0,1-7,11.2l13.4,3.9a115,115,0,0,0,6.6-11.3Z" transform="translate(0 -0.33)"/>
  <rect class="f" x="382.78" y="193.77" width="44.6" height="15.6" transform="translate(97.36 532.94) rotate(-73.6)"/>
  <path class="f" d="M233.4,127.8A105.44,105.44,0,0,0,159,19.3l-1-.3A105.5,105.5,0,0,0,53.4,45.8L25.1,142.1a105.29,105.29,0,0,0,73.4,79.2c.3.1.7.2,1,.3a105.52,105.52,0,0,0,121.3-50.9l185.5,54.6,12.6-42.8Z" transform="translate(0 -0.33)"/>
  <path class="b" d="M98.4,221.2c.3.1.7.2,1,.3a105.3,105.3,0,0,0,114.3-39.3l.2-.4a36.2,36.2,0,0,0,5.6-9.1c-15.9,6.3-51,8.9-90.5,9.3-39.9.4-77.2-3.3-91.1-7.6C50.2,195.6,72.3,214.5,98.4,221.2Z" transform="translate(0 -0.33)"/>
  <polygon class="d" points="422.7 169.17 402.7 237.07 385.2 218.67 362 211.77 398.9 250.57 426.9 155.47 372.9 168.57 396.6 175.47 422.7 169.17"/>
  <path class="d" d="M393.4,249.4c-5.7-1.7-4.1-24.4,3.7-50.7s18.6-46.3,24.4-44.6,4.1,24.4-3.7,50.7S399.1,251.1,393.4,249.4Z" transform="translate(0 -0.33)"/>
  <rect class="d" x="360.9" y="199.49" width="99.3" height="6.5" transform="translate(100.15 539.03) rotate(-73.6)"/>
  <path class="d" d="M399.6,251.3c-5.7-1.7-4.1-24.4,3.7-50.7s18.6-46.3,24.4-44.6,4.1,24.4-3.7,50.7S405.3,253,399.6,251.3Z" transform="translate(0 -0.33)"/>
  <path class="d" d="M399.6,251.3c-5.7-1.7-4.1-24.4,3.7-50.7s18.6-46.3,24.4-44.6,4.1,24.4-3.7,50.7S405.3,253,399.6,251.3Z" transform="translate(0 -0.33)"/>
  <path class="d" d="M402.7,237.4l.4-1.4c-1.8-3.9,0-18,4.8-34s10.7-28.9,14.4-31.2l.4-1.3-26.1,6.3,7.3,2.2-12.6,42.8-6.1-1.8Z" transform="translate(0 -0.33)"/>
  <path class="g" d="M420,205.5c5.4-18.4,7.1-34.1,3.7-35.1a1.9,1.9,0,0,0-1.4.3c-3.7,2.3-9.7,15.1-14.4,31.2s-6.6,30.1-4.8,34a2.18,2.18,0,0,0,1,1.1C407.5,238,414.6,223.9,420,205.5Z" transform="translate(0 -0.33)"/>
  <path class="d" d="M390.9,232.4l19.2-65.2c-3.7,2.3-9.7,15.1-14.4,31.2S389,228.4,390.9,232.4Z" transform="translate(0 -0.33)"/>
  <polygon class="h" points="226.4 441.27 226.5 441.27 226.5 441.17 226.4 441.27"/>
  <g>
    <path class="i" d="M74,46.2s39.9-29.7,82.7-12.1" transform="translate(0 -0.33)"/>
    <path class="i" d="M178,45.4s8.3,2.8,17,14.2" transform="translate(0 -0.33)"/>
    <line class="i" x1="246.8" y1="142.47" x2="316.4" y2="163.17"/>
    <line class="i" x1="336.2" y1="168.97" x2="350.4" y2="172.77"/>
  </g>
  <path class="j" d="M219.7,172.2c.1,5.8-40.8,10.9-90.8,11.4s-91-3.8-91-9.6,40.8-10.8,90.8-11.3S219.6,166.4,219.7,172.2Z" transform="translate(0 -0.33)"/>
  <g>
    <path class="d" d="M246.3,131.6,403.9,178l3.9-13.1L246.9,117.6l-13.4-4a96.25,96.25,0,0,1-.1,14.2Z" transform="translate(0 -0.33)"/>
    <path class="d" d="M161.1,5.2A119.65,119.65,0,0,0,42.6,35.6L10.5,144.8a119.58,119.58,0,0,0,216.7,40.9h0L387.7,233l3.6-12.2L233.7,174.4c-1,2-2,3.9-3.1,5.8,1.1-1.9,2.1-3.8,3.1-5.8l-12.9-3.8a116.81,116.81,0,0,1-7,11.2h0A105.5,105.5,0,0,1,99.5,221.6c-.3-.1-.7-.2-1-.3a105.63,105.63,0,0,1-73.4-79.2L53.4,45.8A105.5,105.5,0,0,1,158,19l1,.3a105.3,105.3,0,0,1,74.4,94.3l13.4,4A119.45,119.45,0,0,0,161.1,5.2Z" transform="translate(0 -0.33)"/>
  </g>
  <path class="k" d="M99.2,153.2a19.46,19.46,0,0,0-32.9,14.6,19.79,19.79,0,0,0,.9,5.5c4.9,2.5,11.9,3.4,19.7,3.8,8.7.4,13.6-1.3,17.3-3.6a20.7,20.7,0,0,0,1-6.6A19.17,19.17,0,0,0,99.2,153.2Z" transform="translate(0 -0.33)"/>
  <path class="l" d="M173.9,160.5a11.91,11.91,0,0,0-8.7-3.4,12.49,12.49,0,0,0-9,4.3,11.94,11.94,0,0,0-2.9,8.2,9.34,9.34,0,0,0,.6,3.4c3,1.6,7.4,2.5,12.3,2.4a27.86,27.86,0,0,0,10.8-2.3,14,14,0,0,0,.6-4.1A12.17,12.17,0,0,0,173.9,160.5Z" transform="translate(0 -0.33)"/>
  <path class="h" d="M98,158.1a6.05,6.05,0,1,1-6.2-5.9A6,6,0,0,1,98,158.1Z" transform="translate(0 -0.33)"/>
  <g class="m">
    <path class="n" d="M578.8,234.4a13.62,13.62,0,0,0-23.1,10.2,12.27,12.27,0,0,0,.7,3.9c3.4,1.7,8.4,2.4,13.8,2.6,6.1.3,9.6-.9,12.2-2.6a13.36,13.36,0,0,0-3.6-14.1Z" transform="translate(0 -0.33)"/>
    <path class="h" d="M576.1,239.3a4.3,4.3,0,1,1-4.4-4.2A4.27,4.27,0,0,1,576.1,239.3Z" transform="translate(0 -0.33)"/>
  </g>
  <g>
    <path class="n" d="M601.4,243.9a7.53,7.53,0,0,0-11,.6,7.49,7.49,0,0,0-1.8,5,4.92,4.92,0,0,0,.4,2.1c1.9,1,4.6,1.3,7.6,1.5,3.4.1,5.3-.5,6.7-1.4a7.46,7.46,0,0,0,.4-2.6A7.19,7.19,0,0,0,601.4,243.9Z" transform="translate(0 -0.33)"/>
    <circle class="h" cx="597.6" cy="246.27" r="2.3"/>
  </g>
  <g>
    <path class="n" d="M562,283.1a10.1,10.1,0,0,0-7.5-2.9,10.36,10.36,0,0,0-7.7,3.7,10.9,10.9,0,0,0-2.5,7,10.47,10.47,0,0,0,.5,3c2.6,1.3,6.4,1.8,10.6,2,4.7.2,7.3-.7,9.3-2a8.28,8.28,0,0,0,.5-3.5A10.07,10.07,0,0,0,562,283.1Z" transform="translate(0 -0.33)"/>
    <circle class="h" cx="556.8" cy="286.67" r="3.3"/>
  </g>
  <g class="m">
    <path class="n" d="M384.4,254.1a10.1,10.1,0,0,0-7.5-2.9,10.36,10.36,0,0,0-7.7,3.7,10.9,10.9,0,0,0-2.5,7,10.47,10.47,0,0,0,.5,3c2.6,1.3,6.4,1.8,10.6,2,4.7.2,7.3-.7,9.3-2a8.28,8.28,0,0,0,.5-3.5A10.52,10.52,0,0,0,384.4,254.1Z" transform="translate(0 -0.33)"/>
    <circle class="h" cx="379.1" cy="257.57" r="3.3"/>
  </g>
  <path class="h" d="M171.6,164a3.8,3.8,0,1,1-3.9-3.7A3.74,3.74,0,0,1,171.6,164Z" transform="translate(0 -0.33)"/>
  <g>
    <path class="n" d="M145.6,212.5a13.79,13.79,0,1,1,17.5-8.6A13.86,13.86,0,0,1,145.6,212.5Z" transform="translate(0 -0.33)"/>
    <circle class="h" cx="155.8" cy="197.07" r="4.7"/>
  </g>
  <g>
    <circle class="n" cx="68.6" cy="190.87" r="6.6"/>
    <circle class="h" cx="71.3" cy="189.87" r="2.2"/>
  </g>
  <g>
    <circle class="n" cx="101.4" cy="209.47" r="3.9"/>
    <circle class="h" cx="103" cy="208.87" r="1.3"/>
  </g>
  <ellipse class="h" cx="547.3" cy="320.97" rx="22.1" ry="4.1"/>
  <ellipse class="o" cx="602.5" cy="312.07" rx="47.1" ry="6.9"/>
  <ellipse class="p" cx="460.4" cy="316.17" rx="68.2" ry="13.6"/>
  <ellipse class="n" cx="495.4" cy="379.97" rx="19.8" ry="2.9"/>
  <ellipse class="n" cx="343.3" cy="325.07" rx="22.1" ry="4.1"/>
  <g class="m">
    <path class="n" d="M435.9,365a19.27,19.27,0,0,0-13.7-5.3,19.19,19.19,0,0,0-17.7,25c4.8,2.4,11.7,3.4,19.4,3.7,8.6.4,13.4-1.3,17.1-3.6a19.68,19.68,0,0,0,1-6.5A20.19,20.19,0,0,0,435.9,365Z" transform="translate(0 -0.33)"/>
    <path class="h" d="M432.2,371.9a6,6,0,1,1-6.1-5.8A5.93,5.93,0,0,1,432.2,371.9Z" transform="translate(0 -0.33)"/>
  </g>
  <ellipse class="h" cx="547.3" cy="385.37" rx="32.6" ry="4.1"/>
  <polygon class="a" points="352.7 250.37 328.7 248.97 357 250.57 352.7 250.37"/>
  <path class="a" d="M211.2,244Z" transform="translate(0 -0.33)"/>
  <g class="m">
    <path class="n" d="M458.6,259.9a19.27,19.27,0,0,0-13.7-5.3,19.19,19.19,0,0,0-17.7,25c4.8,2.4,11.7,3.4,19.4,3.7,8.6.4,13.4-1.3,17.1-3.6a19.68,19.68,0,0,0,1-6.5A20.19,20.19,0,0,0,458.6,259.9Z" transform="translate(0 -0.33)"/>
    <path class="h" d="M454.9,266.8a6,6,0,1,1-6.1-5.8A5.93,5.93,0,0,1,454.9,266.8Z" transform="translate(0 -0.33)"/>
  </g>
  <g>
    <path class="n" d="M488.3,305.9a10.1,10.1,0,0,0-7.5-2.9,10.36,10.36,0,0,0-7.7,3.7,10.9,10.9,0,0,0-2.5,7,10.47,10.47,0,0,0,.5,3c2.6,1.3,6.4,1.8,10.6,2,4.7.2,7.3-.7,9.3-2a8.28,8.28,0,0,0,.5-3.5A10.07,10.07,0,0,0,488.3,305.9Z" transform="translate(0 -0.33)"/>
    <circle class="h" cx="483.1" cy="309.47" r="3.3"/>
  </g>
  <g>
    <path class="n" d="M475.3,241.1a6.9,6.9,0,0,0-4.8-1.9,6.63,6.63,0,0,0-4.9,2.4,7.06,7.06,0,0,0-1.6,4.5,6.28,6.28,0,0,0,.3,1.9,18.26,18.26,0,0,0,6.8,1.3c3,.1,4.7-.4,6-1.3a4.22,4.22,0,0,0,.3-2.2A6.84,6.84,0,0,0,475.3,241.1Z" transform="translate(0 -0.33)"/>
    <circle class="h" cx="471.9" cy="243.27" r="2.1"/>
  </g>
  <g>
    <path class="n" d="M495.9,257.4a5.88,5.88,0,0,0-4.5-1.7,6.33,6.33,0,0,0-4.6,2.2,6.18,6.18,0,0,0-1.5,4.2,5.66,5.66,0,0,0,.3,1.8,16.05,16.05,0,0,0,6.3,1.2c2.8.1,4.4-.4,5.6-1.2a5.11,5.11,0,0,0,.3-2.1A6,6,0,0,0,495.9,257.4Z" transform="translate(0 -0.33)"/>
    <circle class="h" cx="492.8" cy="259.37" r="2"/>
  </g>
  <g>
    <path class="n" d="M379.6,302.5a11.2,11.2,0,0,0-8.8-1.4,11.67,11.67,0,0,0-7.5,5.8,12.14,12.14,0,0,0-1.1,8.2,11.72,11.72,0,0,0,1.2,3.1c3.1.8,7.4.4,12-.3,5.1-.9,7.7-2.5,9.6-4.4a8.64,8.64,0,0,0-.3-3.9A10.89,10.89,0,0,0,379.6,302.5Z" transform="translate(0 -0.33)"/>
    <circle class="h" cx="374.92" cy="308" r="3.7" transform="translate(-56.98 86.55) rotate(-12.29)"/>
  </g>
  <path class="b logo" d="M465.3,222.2a3.17,3.17,0,0,1-.9-2.3V179.3a2.94,2.94,0,0,1,.9-2.2,3.1,3.1,0,0,1,2.2-.9h10.9a24,24,0,0,1,12,3,20.48,20.48,0,0,1,8.2,8.3,25.51,25.51,0,0,1,3,12.1,24.31,24.31,0,0,1-2.9,12.1,20.72,20.72,0,0,1-8.3,8.3,24.14,24.14,0,0,1-12.1,3H467.5A2.65,2.65,0,0,1,465.3,222.2Zm13.1-4.7a16.46,16.46,0,0,0,8.9-2.3,15.68,15.68,0,0,0,6.1-6.4,19.91,19.91,0,0,0,2.2-9.3,18.4,18.4,0,0,0-2.2-9.2,15.68,15.68,0,0,0-6.1-6.4,18.44,18.44,0,0,0-8.9-2.3h-7.8v35.8h7.8Zm27.8,4.9a3.49,3.49,0,0,1-.8-2.2V179.6a3.1,3.1,0,0,1,.9-2.2,2.88,2.88,0,0,1,2.1-.9,3,3,0,0,1,3.1,3v37.6h21.8a3.1,3.1,0,1,1,0,6.2H508.4A3.1,3.1,0,0,1,506.2,222.4Zm54.4-30.2a15.46,15.46,0,0,1,5.9,6,16.84,16.84,0,0,1,2.2,8.5v13.4a3.1,3.1,0,0,1-6.2,0v-2.2a15.21,15.21,0,0,1-19.4,3.3,14.45,14.45,0,0,1-5.5-6,17.75,17.75,0,0,1-2-8.5,17.17,17.17,0,0,1,2.1-8.4,15.72,15.72,0,0,1,6-6,16.74,16.74,0,0,1,8.4-2.2A15.8,15.8,0,0,1,560.6,192.2Zm-3,24.2a10.44,10.44,0,0,0,3.8-4,12.63,12.63,0,0,0,1.4-5.7,13,13,0,0,0-1.4-5.8,10.63,10.63,0,0,0-14.4-4.2c-.1.1-.2.1-.3.2a10.44,10.44,0,0,0-3.8,4,11.84,11.84,0,0,0-1.4,5.8,12.32,12.32,0,0,0,1.4,5.7,10.44,10.44,0,0,0,3.8,4,10.65,10.65,0,0,0,10.9,0Zm39.7-24.2a14.45,14.45,0,0,1,5.5,6,17.75,17.75,0,0,1,2,8.5,16.84,16.84,0,0,1-2.2,8.5,15.72,15.72,0,0,1-6,6,16.74,16.74,0,0,1-8.4,2.2,16.21,16.21,0,0,1-14.3-8.2,16.84,16.84,0,0,1-2.2-8.5V179.3a3.1,3.1,0,0,1,.9-2.2,3.35,3.35,0,0,1,4.4,0,2.65,2.65,0,0,1,.8,2.2v16.2A15.12,15.12,0,0,1,597.3,192.2Zm-3.6,24.3a11.19,11.19,0,0,0,3.8-4,11.84,11.84,0,0,0,1.4-5.8,12.32,12.32,0,0,0-1.4-5.7,10.5,10.5,0,0,0-18.2-.5c-.1.2-.2.3-.3.5a12.63,12.63,0,0,0-1.4,5.7,11.84,11.84,0,0,0,1.4,5.8,10.63,10.63,0,0,0,14.4,4.2C593.5,216.6,593.6,216.5,593.7,216.5Zm-88.3-40.2h6.2v5.3h-6.2Zm-41-.1h6.1v5.3h-6.1Zm0,41.5h6.1V223h-6.1Zm65.9-.6h6.1v6.2h-6.1Zm-24.9,1h3.5v5.2h-3.5Zm57.2-.6h6.1v5.6h-6.1Zm9.2-41.3h6.1v5.4h-6.1Z" transform="translate(0 -0.33)"/>
</svg>
